<mxfile host="app.diagrams.net" modified="2023-11-20T10:13:11.464Z" agent="Mozilla/5.0 (Windows NT 10.0; Win64; x64) AppleWebKit/537.36 (KHTML, like Gecko) Chrome/117.0.0.0 Safari/537.36" etag="DJfHpX-9zsbOUHLulpuN" version="22.1.3" type="github">
  <diagram name="Page-1" id="uas4u1M-nQL4pKcm8uq2">
    <mxGraphModel dx="4280" dy="478" grid="1" gridSize="10" guides="1" tooltips="1" connect="1" arrows="1" fold="1" page="1" pageScale="1" pageWidth="850" pageHeight="1100" math="0" shadow="0">
      <root>
        <mxCell id="0" />
        <mxCell id="1" parent="0" />
        <mxCell id="85fp8OsPQn2n-JRIOmVz-1" value="&lt;font face=&quot;Comic Sans MS&quot;&gt;&lt;b&gt;&lt;br&gt;&lt;/b&gt;&lt;font style=&quot;font-size: 14px;&quot;&gt;&lt;b&gt;&amp;nbsp; &amp;nbsp; &amp;nbsp; &amp;nbsp; Functional Requirements (Authentication Module)&lt;/b&gt;&lt;br&gt;&lt;ul style=&quot;&quot;&gt;&lt;li style=&quot;text-align: left;&quot;&gt;&lt;font style=&quot;&quot; face=&quot;Comic Sans MS&quot;&gt;&lt;font style=&quot;font-size: 14px;&quot;&gt;Register New Users&lt;/font&gt;&lt;/font&gt;&lt;/li&gt;&lt;li style=&quot;text-align: left;&quot;&gt;&lt;font face=&quot;Comic Sans MS&quot;&gt;&lt;font style=&quot;font-size: 14px;&quot;&gt;Send Confirmation mails&lt;/font&gt;&lt;/font&gt;&lt;/li&gt;&lt;li style=&quot;text-align: left;&quot;&gt;&lt;font face=&quot;Comic Sans MS&quot;&gt;&lt;font style=&quot;font-size: 14px;&quot;&gt;Provide secure option for recovering a forgotten password&lt;/font&gt;&lt;/font&gt;&lt;/li&gt;&lt;li style=&quot;text-align: left;&quot;&gt;&lt;font face=&quot;Comic Sans MS&quot;&gt;&lt;font style=&quot;font-size: 14px;&quot;&gt;Protect authentication from via third party-services.&lt;/font&gt;&lt;/font&gt;&lt;/li&gt;&lt;li style=&quot;text-align: left;&quot;&gt;&lt;font style=&quot;&quot; face=&quot;Comic Sans MS&quot;&gt;&lt;font style=&quot;font-size: 14px;&quot;&gt;define roles and permission set per role.&lt;/font&gt;&lt;/font&gt;&lt;/li&gt;&lt;/ul&gt;&lt;/font&gt;&lt;/font&gt;" style="text;html=1;align=center;verticalAlign=middle;resizable=0;points=[];autosize=1;strokeColor=none;fillColor=none;" vertex="1" parent="1">
          <mxGeometry x="-2310" y="70" width="450" height="160" as="geometry" />
        </mxCell>
        <mxCell id="85fp8OsPQn2n-JRIOmVz-2" value="&lt;b&gt;DB&lt;/b&gt;" style="shape=cylinder3;whiteSpace=wrap;html=1;boundedLbl=1;backgroundOutline=1;size=15;" vertex="1" parent="1">
          <mxGeometry x="-2150" y="290" width="80" height="80" as="geometry" />
        </mxCell>
        <mxCell id="85fp8OsPQn2n-JRIOmVz-4" value="Schema" style="swimlane;fontStyle=0;childLayout=stackLayout;horizontal=1;startSize=26;fillColor=none;horizontalStack=0;resizeParent=1;resizeParentMax=0;resizeLast=0;collapsible=1;marginBottom=0;whiteSpace=wrap;html=1;" vertex="1" parent="1">
          <mxGeometry x="582" y="211" width="140" height="52" as="geometry" />
        </mxCell>
        <mxCell id="85fp8OsPQn2n-JRIOmVz-5" value="username : String" style="text;strokeColor=none;fillColor=none;align=left;verticalAlign=top;spacingLeft=4;spacingRight=4;overflow=hidden;rotatable=0;points=[[0,0.5],[1,0.5]];portConstraint=eastwest;whiteSpace=wrap;html=1;" vertex="1" parent="85fp8OsPQn2n-JRIOmVz-4">
          <mxGeometry y="26" width="140" height="26" as="geometry" />
        </mxCell>
        <mxCell id="85fp8OsPQn2n-JRIOmVz-8" value="&lt;b&gt;Email Confirmation&amp;nbsp;&lt;/b&gt;" style="text;html=1;align=center;verticalAlign=middle;resizable=0;points=[];autosize=1;strokeColor=none;fillColor=none;" vertex="1" parent="1">
          <mxGeometry x="-80" y="400" width="140" height="30" as="geometry" />
        </mxCell>
        <mxCell id="85fp8OsPQn2n-JRIOmVz-9" value="&lt;ul&gt;&lt;li&gt;request valid email address for the purpose of second factor of authentication&lt;/li&gt;&lt;/ul&gt;" style="text;html=1;align=center;verticalAlign=middle;resizable=0;points=[];autosize=1;strokeColor=none;fillColor=none;" vertex="1" parent="1">
          <mxGeometry x="-75" y="430" width="470" height="50" as="geometry" />
        </mxCell>
        <mxCell id="85fp8OsPQn2n-JRIOmVz-12" value="Text" style="text;html=1;align=center;verticalAlign=middle;resizable=0;points=[];autosize=1;strokeColor=none;fillColor=none;" vertex="1" parent="1">
          <mxGeometry x="95" y="528" width="50" height="30" as="geometry" />
        </mxCell>
        <mxCell id="85fp8OsPQn2n-JRIOmVz-6" value="&lt;font style=&quot;font-size: 18px;&quot;&gt;hash : String&lt;br&gt;userid : unique&lt;/font&gt;" style="text;strokeColor=none;fillColor=none;align=left;verticalAlign=top;spacingLeft=4;spacingRight=4;overflow=hidden;rotatable=0;points=[[0,0.5],[1,0.5]];portConstraint=eastwest;whiteSpace=wrap;html=1;" vertex="1" parent="1">
          <mxGeometry x="-1930" y="300" width="160" height="80" as="geometry" />
        </mxCell>
        <mxCell id="85fp8OsPQn2n-JRIOmVz-14" style="edgeStyle=orthogonalEdgeStyle;rounded=0;orthogonalLoop=1;jettySize=auto;html=1;entryX=-0.023;entryY=0.371;entryDx=0;entryDy=0;entryPerimeter=0;" edge="1" parent="1" source="85fp8OsPQn2n-JRIOmVz-2" target="85fp8OsPQn2n-JRIOmVz-6">
          <mxGeometry relative="1" as="geometry" />
        </mxCell>
        <mxCell id="85fp8OsPQn2n-JRIOmVz-15" value="&lt;div style=&quot;text-align: left;&quot;&gt;&lt;span style=&quot;background-color: initial;&quot;&gt;&lt;b&gt;&lt;font style=&quot;font-size: 14px;&quot; face=&quot;Comic Sans MS&quot;&gt;Email Confirmation&lt;/font&gt;&lt;/b&gt;&lt;/span&gt;&lt;/div&gt;&lt;ul&gt;&lt;li style=&quot;text-align: left;&quot;&gt;&lt;font size=&quot;3&quot; face=&quot;Comic Sans MS&quot;&gt;request a valid email id from the user&lt;/font&gt;&lt;/li&gt;&lt;li style=&quot;text-align: left;&quot;&gt;&lt;font size=&quot;3&quot; face=&quot;Comic Sans MS&quot;&gt;random unique token inserted in URL ponting to valid confirmation page.&lt;/font&gt;&lt;/li&gt;&lt;li style=&quot;text-align: left;&quot;&gt;&lt;font size=&quot;3&quot; face=&quot;Comic Sans MS&quot;&gt;user needs to click on the link in order to verify the image.&lt;/font&gt;&lt;/li&gt;&lt;li style=&quot;text-align: left;&quot;&gt;&lt;font size=&quot;3&quot; face=&quot;Comic Sans MS&quot;&gt;Upon receiving confirmation, extract the token from the request and match it with token stored in the DB.&lt;/font&gt;&lt;/li&gt;&lt;li style=&quot;text-align: left;&quot;&gt;&lt;font size=&quot;3&quot; face=&quot;Comic Sans MS&quot;&gt;if matches means valid email address otherwise invalid.&lt;/font&gt;&lt;/li&gt;&lt;/ul&gt;" style="text;html=1;align=center;verticalAlign=middle;resizable=0;points=[];autosize=1;strokeColor=none;fillColor=none;" vertex="1" parent="1">
          <mxGeometry x="-2455" y="380" width="860" height="150" as="geometry" />
        </mxCell>
        <mxCell id="85fp8OsPQn2n-JRIOmVz-16" value="login_data" style="swimlane;childLayout=stackLayout;horizontal=1;startSize=50;horizontalStack=0;rounded=1;fontSize=14;fontStyle=0;strokeWidth=2;resizeParent=0;resizeLast=1;shadow=0;dashed=0;align=center;arcSize=4;whiteSpace=wrap;html=1;" vertex="1" parent="1">
          <mxGeometry x="-1580" y="393" width="190" height="167" as="geometry" />
        </mxCell>
        <mxCell id="85fp8OsPQn2n-JRIOmVz-17" value="userid&lt;br&gt;hash&lt;br&gt;salt&lt;br&gt;email address string&lt;br&gt;confirmation token string&lt;br&gt;token generation time&amp;nbsp; &amp;nbsp;timestamp&lt;br&gt;emailvalidation status" style="align=left;strokeColor=none;fillColor=none;spacingLeft=4;fontSize=12;verticalAlign=top;resizable=0;rotatable=0;part=1;html=1;" vertex="1" parent="85fp8OsPQn2n-JRIOmVz-16">
          <mxGeometry y="50" width="190" height="117" as="geometry" />
        </mxCell>
        <mxCell id="85fp8OsPQn2n-JRIOmVz-21" style="edgeStyle=orthogonalEdgeStyle;rounded=0;orthogonalLoop=1;jettySize=auto;html=1;exitX=0;exitY=1;exitDx=0;exitDy=0;" edge="1" parent="1" source="85fp8OsPQn2n-JRIOmVz-17">
          <mxGeometry relative="1" as="geometry">
            <mxPoint x="-1580" y="620" as="targetPoint" />
          </mxGeometry>
        </mxCell>
        <mxCell id="85fp8OsPQn2n-JRIOmVz-22" value="email_validation_status" style="swimlane;childLayout=stackLayout;horizontal=1;startSize=50;horizontalStack=0;rounded=1;fontSize=14;fontStyle=0;strokeWidth=2;resizeParent=0;resizeLast=1;shadow=0;dashed=0;align=center;arcSize=4;whiteSpace=wrap;html=1;" vertex="1" parent="1">
          <mxGeometry x="-1610" y="620" width="160" height="120" as="geometry" />
        </mxCell>
        <mxCell id="85fp8OsPQn2n-JRIOmVz-23" value="emailvalidationstatus&lt;br&gt;statusDescription" style="align=left;strokeColor=none;fillColor=none;spacingLeft=4;fontSize=12;verticalAlign=top;resizable=0;rotatable=0;part=1;html=1;" vertex="1" parent="85fp8OsPQn2n-JRIOmVz-22">
          <mxGeometry y="50" width="160" height="70" as="geometry" />
        </mxCell>
        <mxCell id="85fp8OsPQn2n-JRIOmVz-24" value="&lt;ul&gt;&lt;li&gt;&lt;font face=&quot;Comic Sans MS&quot;&gt;should allow null values since it is cleared &lt;/font&gt;&lt;/li&gt;&lt;/ul&gt;&lt;font face=&quot;Comic Sans MS&quot;&gt;once the email address is confirmed&lt;/font&gt;" style="text;html=1;align=center;verticalAlign=middle;resizable=0;points=[];autosize=1;strokeColor=none;fillColor=none;" vertex="1" parent="1">
          <mxGeometry x="-1450" y="635" width="290" height="70" as="geometry" />
        </mxCell>
        <mxCell id="85fp8OsPQn2n-JRIOmVz-25" value="&lt;b&gt;&lt;font style=&quot;font-size: 14px;&quot; face=&quot;Comic Sans MS&quot;&gt;Password Recovery&lt;br&gt;&lt;/font&gt;&lt;/b&gt;&lt;ul&gt;&lt;li&gt;&lt;font size=&quot;3&quot; face=&quot;Comic Sans MS&quot;&gt;allow user to get the link of password recovery on the login page.&lt;/font&gt;&lt;/li&gt;&lt;li&gt;&lt;font size=&quot;3&quot; face=&quot;Comic Sans MS&quot;&gt;requestiing user ID (username or email) validating the ID in the DB.&lt;/font&gt;&lt;/li&gt;&lt;li&gt;&lt;font size=&quot;3&quot; face=&quot;Comic Sans MS&quot;&gt;Once validated send the password recovery link to the user a randomly generated token.&lt;/font&gt;&lt;/li&gt;&lt;li&gt;&lt;font size=&quot;3&quot; face=&quot;Comic Sans MS&quot;&gt;the token link needs to be timestampe so that it can expire after certain time.&lt;/font&gt;&lt;/li&gt;&lt;li&gt;&lt;font size=&quot;3&quot;&gt;&lt;font face=&quot;Comic Sans MS&quot;&gt;Add two fields to the table: recovery token and timestamp(with expiry)&lt;/font&gt;.&lt;/font&gt;&lt;/li&gt;&lt;/ul&gt;" style="text;html=1;align=center;verticalAlign=middle;resizable=0;points=[];autosize=1;strokeColor=none;fillColor=none;" vertex="1" parent="1">
          <mxGeometry x="-2535" y="770" width="720" height="150" as="geometry" />
        </mxCell>
        <mxCell id="85fp8OsPQn2n-JRIOmVz-26" value="login_data" style="swimlane;childLayout=stackLayout;horizontal=1;startSize=50;horizontalStack=0;rounded=1;fontSize=14;fontStyle=0;strokeWidth=2;resizeParent=0;resizeLast=1;shadow=0;dashed=0;align=center;arcSize=4;whiteSpace=wrap;html=1;" vertex="1" parent="1">
          <mxGeometry x="-1790" y="880" width="210" height="190" as="geometry" />
        </mxCell>
        <mxCell id="85fp8OsPQn2n-JRIOmVz-27" value="userid&lt;br&gt;hash&lt;br&gt;salt&lt;br&gt;email address string&lt;br&gt;confirmation token string&lt;br&gt;token generation time&amp;nbsp; &amp;nbsp;timestamp&lt;br&gt;emailvalidation status&lt;br&gt;PasswordRecoveryToken&lt;br&gt;ReoveryTokenTime" style="align=left;strokeColor=none;fillColor=none;spacingLeft=4;fontSize=12;verticalAlign=top;resizable=0;rotatable=0;part=1;html=1;" vertex="1" parent="85fp8OsPQn2n-JRIOmVz-26">
          <mxGeometry y="50" width="210" height="140" as="geometry" />
        </mxCell>
        <mxCell id="85fp8OsPQn2n-JRIOmVz-29" value="&lt;div style=&quot;text-align: left;&quot;&gt;&lt;b style=&quot;background-color: initial;&quot;&gt;&lt;font style=&quot;font-size: 14px;&quot; face=&quot;Comic Sans MS&quot;&gt;&amp;nbsp; &amp;nbsp; &amp;nbsp; &amp;nbsp; &amp;nbsp; &amp;nbsp; &amp;nbsp; &amp;nbsp; &amp;nbsp; &amp;nbsp; &amp;nbsp; &amp;nbsp; &amp;nbsp; &amp;nbsp; &amp;nbsp;Authentication Through External Providers&lt;/font&gt;&lt;/b&gt;&lt;/div&gt;&lt;ul style=&quot;&quot;&gt;&lt;ul style=&quot;&quot;&gt;&lt;ul style=&quot;&quot;&gt;&lt;ul style=&quot;&quot;&gt;&lt;ul style=&quot;&quot;&gt;&lt;li style=&quot;text-align: left;&quot;&gt;&lt;font size=&quot;3&quot; face=&quot;Comic Sans MS&quot;&gt;using Google, Meta, LinkedIn to validate user.&lt;/font&gt;&lt;/li&gt;&lt;li style=&quot;text-align: left;&quot;&gt;&lt;font size=&quot;3&quot; face=&quot;Comic Sans MS&quot;&gt;if chosen, we dont need to store the password for validation.&lt;/font&gt;&lt;/li&gt;&lt;li style=&quot;text-align: left;&quot;&gt;&lt;font size=&quot;3&quot;&gt;&lt;font face=&quot;Comic Sans MS&quot;&gt;external Providers uses OAuth Mechanism to authenticate. i.e. provides with unique token for validation&lt;/font&gt;&amp;nbsp;&lt;/font&gt;&lt;/li&gt;&lt;/ul&gt;&lt;/ul&gt;&lt;/ul&gt;&lt;/ul&gt;&lt;/ul&gt;" style="text;html=1;align=center;verticalAlign=middle;resizable=0;points=[];autosize=1;strokeColor=none;fillColor=none;" vertex="1" parent="1">
          <mxGeometry x="-2650" y="1118" width="1000" height="110" as="geometry" />
        </mxCell>
        <mxCell id="85fp8OsPQn2n-JRIOmVz-30" value="&lt;b&gt;&lt;font face=&quot;Comic Sans MS&quot;&gt;OAuth Mechanism&lt;br&gt;&lt;br&gt;&lt;/font&gt;&lt;/b&gt;" style="text;html=1;align=center;verticalAlign=middle;resizable=0;points=[];autosize=1;strokeColor=none;fillColor=none;" vertex="1" parent="1">
          <mxGeometry x="-2080" y="1290" width="130" height="40" as="geometry" />
        </mxCell>
        <mxCell id="85fp8OsPQn2n-JRIOmVz-32" style="edgeStyle=orthogonalEdgeStyle;rounded=0;orthogonalLoop=1;jettySize=auto;html=1;exitX=1;exitY=0.5;exitDx=0;exitDy=0;" edge="1" parent="1" source="85fp8OsPQn2n-JRIOmVz-31" target="85fp8OsPQn2n-JRIOmVz-33">
          <mxGeometry relative="1" as="geometry">
            <mxPoint x="-1980" y="1469.5" as="targetPoint" />
          </mxGeometry>
        </mxCell>
        <mxCell id="85fp8OsPQn2n-JRIOmVz-31" value="User enter the logn via Google" style="whiteSpace=wrap;html=1;align=center;" vertex="1" parent="1">
          <mxGeometry x="-2150" y="1450" width="100" height="40" as="geometry" />
        </mxCell>
        <mxCell id="85fp8OsPQn2n-JRIOmVz-34" style="edgeStyle=orthogonalEdgeStyle;rounded=0;orthogonalLoop=1;jettySize=auto;html=1;" edge="1" parent="1" source="85fp8OsPQn2n-JRIOmVz-33" target="85fp8OsPQn2n-JRIOmVz-35">
          <mxGeometry relative="1" as="geometry">
            <mxPoint x="-1750" y="1470" as="targetPoint" />
          </mxGeometry>
        </mxCell>
        <mxCell id="85fp8OsPQn2n-JRIOmVz-33" value="Application redirects the user to login page of the provider" style="whiteSpace=wrap;html=1;align=center;" vertex="1" parent="1">
          <mxGeometry x="-1960" y="1430" width="100" height="80" as="geometry" />
        </mxCell>
        <mxCell id="85fp8OsPQn2n-JRIOmVz-37" style="edgeStyle=orthogonalEdgeStyle;rounded=0;orthogonalLoop=1;jettySize=auto;html=1;" edge="1" parent="1" source="85fp8OsPQn2n-JRIOmVz-35" target="85fp8OsPQn2n-JRIOmVz-38">
          <mxGeometry relative="1" as="geometry">
            <mxPoint x="-1715" y="1620" as="targetPoint" />
          </mxGeometry>
        </mxCell>
        <mxCell id="85fp8OsPQn2n-JRIOmVz-35" value="&#xa;&lt;span style=&quot;color: rgb(0, 0, 0); font-family: Helvetica; font-size: 12px; font-style: normal; font-variant-ligatures: normal; font-variant-caps: normal; font-weight: 400; letter-spacing: normal; orphans: 2; text-align: center; text-indent: 0px; text-transform: none; widows: 2; word-spacing: 0px; -webkit-text-stroke-width: 0px; background-color: rgb(251, 251, 251); text-decoration-thickness: initial; text-decoration-style: initial; text-decoration-color: initial; float: none; display: inline !important;&quot;&gt;Authentication service validates user credentials&amp;nbsp; and if valid it returns a token that identifies user on authentication service&lt;/span&gt;&#xa;&#xa;" style="whiteSpace=wrap;html=1;align=center;" vertex="1" parent="1">
          <mxGeometry x="-1800" y="1410" width="170" height="120" as="geometry" />
        </mxCell>
        <mxCell id="85fp8OsPQn2n-JRIOmVz-38" value="Application look for identification token in the table;&lt;br&gt;if user&#39;s account ID exist, enables option allowed associated profile. If it does not it treats it a new user creation&amp;nbsp;" style="whiteSpace=wrap;html=1;align=center;" vertex="1" parent="1">
          <mxGeometry x="-1792.5" y="1585" width="155" height="130" as="geometry" />
        </mxCell>
        <mxCell id="85fp8OsPQn2n-JRIOmVz-40" value="login_data" style="swimlane;childLayout=stackLayout;horizontal=1;startSize=50;horizontalStack=0;rounded=1;fontSize=14;fontStyle=0;strokeWidth=2;resizeParent=0;resizeLast=1;shadow=0;dashed=0;align=center;arcSize=4;whiteSpace=wrap;html=1;" vertex="1" parent="1">
          <mxGeometry x="-1420" y="1410" width="210" height="230" as="geometry" />
        </mxCell>
        <mxCell id="85fp8OsPQn2n-JRIOmVz-41" value="userid&lt;br&gt;hash&lt;br&gt;salt&lt;br&gt;email address string&lt;br&gt;confirmation token string&lt;br&gt;token generation time&amp;nbsp; &amp;nbsp;timestamp&lt;br&gt;emailvalidation status&lt;br&gt;PasswordRecoveryToken&lt;br&gt;ReoveryTokenTime&lt;br&gt;ExternalProviderId&lt;br&gt;ExternalProviderToken" style="align=left;strokeColor=none;fillColor=none;spacingLeft=4;fontSize=12;verticalAlign=top;resizable=0;rotatable=0;part=1;html=1;" vertex="1" parent="85fp8OsPQn2n-JRIOmVz-40">
          <mxGeometry y="50" width="210" height="180" as="geometry" />
        </mxCell>
        <mxCell id="85fp8OsPQn2n-JRIOmVz-46" value="&lt;div style=&quot;text-align: left;&quot;&gt;&lt;span style=&quot;background-color: initial;&quot;&gt;&lt;b&gt;&lt;font face=&quot;Comic Sans MS&quot;&gt;&amp;nbsp; &amp;nbsp; &amp;nbsp; &amp;nbsp; &amp;nbsp; &amp;nbsp; Multi-Factor Authentication (separating the concept of user identity and user account )&lt;/font&gt;&lt;/b&gt;&lt;/span&gt;&lt;/div&gt;&lt;ul&gt;&lt;li style=&quot;text-align: left;&quot;&gt;&lt;font face=&quot;Comic Sans MS&quot;&gt;involves the use of parallel use of validation element of different types&lt;/font&gt;&lt;/li&gt;&lt;li style=&quot;text-align: left;&quot;&gt;&lt;font face=&quot;Comic Sans MS&quot;&gt;combo of extra data such as (nationality, DOB, favourite sport) along with physical device such as (phones or other device).&lt;/font&gt;&lt;/li&gt;&lt;li style=&quot;text-align: left;&quot;&gt;&lt;font face=&quot;Comic Sans MS&quot;&gt;each authentication factor requires data to be stored in user tables to validate the information provided by the user at login.&lt;/font&gt;&lt;/li&gt;&lt;/ul&gt;" style="text;html=1;align=center;verticalAlign=middle;resizable=0;points=[];autosize=1;strokeColor=none;fillColor=none;" vertex="1" parent="1">
          <mxGeometry x="-2295" y="1770" width="770" height="100" as="geometry" />
        </mxCell>
        <mxCell id="85fp8OsPQn2n-JRIOmVz-47" value="&lt;font face=&quot;Comic Sans MS&quot;&gt;&lt;b&gt;&amp;nbsp; &amp;nbsp; &amp;nbsp; &amp;nbsp;Assignment of Roles and Permission&lt;br&gt;&lt;/b&gt;&lt;/font&gt;&lt;ul&gt;&lt;li&gt;create three schemas i.e Roles, Permission and schema to store the association between the roles and permission.&lt;/li&gt;&lt;/ul&gt;" style="text;html=1;align=left;verticalAlign=middle;resizable=0;points=[];autosize=1;strokeColor=none;fillColor=none;" vertex="1" parent="1">
          <mxGeometry x="-2275" y="1930" width="680" height="70" as="geometry" />
        </mxCell>
        <mxCell id="85fp8OsPQn2n-JRIOmVz-52" value="Roles" style="swimlane;fontStyle=0;childLayout=stackLayout;horizontal=1;startSize=26;horizontalStack=0;resizeParent=1;resizeParentMax=0;resizeLast=0;collapsible=1;marginBottom=0;align=center;fontSize=14;" vertex="1" parent="1">
          <mxGeometry x="-2019" y="2060" width="160" height="116" as="geometry" />
        </mxCell>
        <mxCell id="85fp8OsPQn2n-JRIOmVz-53" value="Guest" style="text;strokeColor=none;fillColor=none;spacingLeft=4;spacingRight=4;overflow=hidden;rotatable=0;points=[[0,0.5],[1,0.5]];portConstraint=eastwest;fontSize=12;whiteSpace=wrap;html=1;" vertex="1" parent="85fp8OsPQn2n-JRIOmVz-52">
          <mxGeometry y="26" width="160" height="30" as="geometry" />
        </mxCell>
        <mxCell id="85fp8OsPQn2n-JRIOmVz-54" value="Customer" style="text;strokeColor=none;fillColor=none;spacingLeft=4;spacingRight=4;overflow=hidden;rotatable=0;points=[[0,0.5],[1,0.5]];portConstraint=eastwest;fontSize=12;whiteSpace=wrap;html=1;" vertex="1" parent="85fp8OsPQn2n-JRIOmVz-52">
          <mxGeometry y="56" width="160" height="30" as="geometry" />
        </mxCell>
        <mxCell id="85fp8OsPQn2n-JRIOmVz-55" value="Admin" style="text;strokeColor=none;fillColor=none;spacingLeft=4;spacingRight=4;overflow=hidden;rotatable=0;points=[[0,0.5],[1,0.5]];portConstraint=eastwest;fontSize=12;whiteSpace=wrap;html=1;" vertex="1" parent="85fp8OsPQn2n-JRIOmVz-52">
          <mxGeometry y="86" width="160" height="30" as="geometry" />
        </mxCell>
        <mxCell id="85fp8OsPQn2n-JRIOmVz-56" value="Permission" style="swimlane;fontStyle=0;childLayout=stackLayout;horizontal=1;startSize=26;horizontalStack=0;resizeParent=1;resizeParentMax=0;resizeLast=0;collapsible=1;marginBottom=0;align=center;fontSize=14;" vertex="1" parent="1">
          <mxGeometry x="-1780" y="2060" width="160" height="180" as="geometry" />
        </mxCell>
        <mxCell id="85fp8OsPQn2n-JRIOmVz-57" value="CanCreateOrder" style="text;strokeColor=none;fillColor=none;spacingLeft=4;spacingRight=4;overflow=hidden;rotatable=0;points=[[0,0.5],[1,0.5]];portConstraint=eastwest;fontSize=12;whiteSpace=wrap;html=1;" vertex="1" parent="85fp8OsPQn2n-JRIOmVz-56">
          <mxGeometry y="26" width="160" height="30" as="geometry" />
        </mxCell>
        <mxCell id="85fp8OsPQn2n-JRIOmVz-58" value="CanConfirmOrder" style="text;strokeColor=none;fillColor=none;spacingLeft=4;spacingRight=4;overflow=hidden;rotatable=0;points=[[0,0.5],[1,0.5]];portConstraint=eastwest;fontSize=12;whiteSpace=wrap;html=1;" vertex="1" parent="85fp8OsPQn2n-JRIOmVz-56">
          <mxGeometry y="56" width="160" height="30" as="geometry" />
        </mxCell>
        <mxCell id="85fp8OsPQn2n-JRIOmVz-59" value="CanCancelOrder&lt;br&gt;&lt;br&gt;CanViewSalesReport&lt;br&gt;&lt;br&gt;CanDeleteCustomer" style="text;strokeColor=none;fillColor=none;spacingLeft=4;spacingRight=4;overflow=hidden;rotatable=0;points=[[0,0.5],[1,0.5]];portConstraint=eastwest;fontSize=12;whiteSpace=wrap;html=1;" vertex="1" parent="85fp8OsPQn2n-JRIOmVz-56">
          <mxGeometry y="86" width="160" height="94" as="geometry" />
        </mxCell>
        <mxCell id="85fp8OsPQn2n-JRIOmVz-61" value="Association of Roles  and Permission" style="swimlane;fontStyle=0;childLayout=stackLayout;horizontal=1;startSize=26;horizontalStack=0;resizeParent=1;resizeParentMax=0;resizeLast=0;collapsible=1;marginBottom=0;align=center;fontSize=14;" vertex="1" parent="1">
          <mxGeometry x="-2030" y="2290" width="280" height="86" as="geometry" />
        </mxCell>
        <mxCell id="85fp8OsPQn2n-JRIOmVz-62" value="RoleID" style="text;strokeColor=none;fillColor=none;spacingLeft=4;spacingRight=4;overflow=hidden;rotatable=0;points=[[0,0.5],[1,0.5]];portConstraint=eastwest;fontSize=12;whiteSpace=wrap;html=1;" vertex="1" parent="85fp8OsPQn2n-JRIOmVz-61">
          <mxGeometry y="26" width="280" height="30" as="geometry" />
        </mxCell>
        <mxCell id="85fp8OsPQn2n-JRIOmVz-63" value="Permissionid" style="text;strokeColor=none;fillColor=none;spacingLeft=4;spacingRight=4;overflow=hidden;rotatable=0;points=[[0,0.5],[1,0.5]];portConstraint=eastwest;fontSize=12;whiteSpace=wrap;html=1;" vertex="1" parent="85fp8OsPQn2n-JRIOmVz-61">
          <mxGeometry y="56" width="280" height="30" as="geometry" />
        </mxCell>
        <mxCell id="85fp8OsPQn2n-JRIOmVz-65" value="" style="shape=image;verticalLabelPosition=bottom;labelBackgroundColor=default;verticalAlign=top;aspect=fixed;imageAspect=0;image=data:image/png,iVBORw0KGgoAAAANSUhEUgAAAzsAAAI0CAYAAAA6DjdOAAAgAElEQVR4AeydB5hU1fn//9H8oiaW2GKiUcRusGBFRVGQKqAoTXq1IKCADRUsgCC9FxUUAQtNKSoqKIhUwQIooiioGBVrbLHn/J/PG89mdpjZ3Zmd2bn3zvc8z92dueWU77lz7/s9b/t/TkUICAEhIASEgBAQAkJACAgBIRBBBP5fBMekIQkBISAEhIAQEAJCQAgIASEgBJzIjm4CISAEhIAQEAJCQAgIASEgBCKJgMhOJKdVgxICQkAICAEhIASEgBAQAkJAZEf3gBAQAkJACAgBISAEhIAQEAKRREBkJ5LTqkEJASEgBISAEBACQkAICAEhILKje0AICAEhIASEgBAQAkJACAiBSCIgshPJadWghIAQEAJCQAgIASEgBISAEBDZ0T0gBISAEBACQkAICAEhIASEQCQRENmJ5LRqUEJACAgBISAEhIAQEAJCQAiI7OgeEAJCQAgIASEgBISAEBACQiCSCIjsRHJaNSghIASEgBAQAkJACAgBISAERHZ0DwgBISAEhIAQEAJCQAgIASEQSQREdiI5rRqUEBACQkAICAEhIASEgBAQAiI7ugeEgBAQAkJACAgBISAEhIAQiCQCIjuRnFYNSggIASEgBISAEBACQkAICAGRHd0DQkAICAEhIASEgBAQAkJACEQSAZGdSE6rBiUEhIAQEAJCQAgIASEgBISAyI7uASEgBISAEBACQkAICAEhIAQiiYDITiSnVYMSAkJACAgBISAEhIAQEAJCQGRH94AQEAJCIAECX3zxhduwYYM2YRCqeyDBraxdQkAICIG8RkBkJ6+nX4MXAkIgGQL33nuvq1mzprvqqqu0CYNQ3AN77bVXsttZ+4WAEBACeYuAyE7eTr0GLgSEQFEIQHbuu+8+969//UubMAjFPXD44YcXdUvrmBAQAkIgLxEQ2cnLadeghYAQKA4BkR2RvLARXZGd4n7VOi4EhEA+IhBqsvPNN9+4xYsXaxMGZX4P/PDDD/n4vMirMYvsiOyI7OTVT16DFQJCIKIIhJrsvPzyy+7MM890vXv31iYMyuweOPHEE90HH3wQ0UeChuURENmJFtn55z//6VauXBkKc7R0SZY0O/7Xq/9CQAgIgf8hEHqyc80110T65ZXuS0/XZU9Qa968ucjO/54hkf0kspO931BZP5+IrNevXz/Xpk2bSL8vRHYi+zjSwISAECgFAiI7cryN9Ms/G0KVyE4pnjghujQfyM7bb7/tmjVr5p555hn3/vvvux49ergZM2a4LVu2uDvuuMOdf/757vLLL3evvPKK+/LLL90LL7zgLr30Ute+fXu3atUqe3YMGjTI9erVy/ZjVhz/m+O65557zjVp0sRdcMEFbsyYMe6jjz5yn376qRs1apRr0KCBtbtt2zb32WefuYceeshdeOGF1sbSpUutXfrZqVMnd/HFF7v777/fff7556al6d69u/X13XffdXxetmyZmz17tp07dOhQV79+favvpZdecqeeeqo7+OCDHf2N72NUvovshOgBo64KASFQZgiI7IjsRPbFny0BRmSnzJ5POW0oH8jOunXr3B/+8Ac3adIkt3nzZnf88ce7vn37WhS6I4880l1//fVGhoYNG+ZWr17t/vrXv7oOHTqYhqRy5cpGTiAgnAsBeuONN3Z4nmDy2a1bN9e1a1fXpUsXd+ihh7rnn3/eDRkyxB122GHupptucuedd561O2fOHHfMMce4G2+80XXs2NFdeeWVbs2aNVZ/9erVrZ4DDzzQ0Z+5c+e6f/zjH+61116zdo877jg3a9YsN3DgQEcI5quvvtrIzq677mrtnXvuue6oo46KdIQ9kZ2cPjLUuBAQAgFFQGRHZGcH4SQZSbjuuuvc5MmTS3x+snrCvl9kJ6BPswx3K5/JzhNPPOHwTTv99NNdo0aN3PTp093YsWMdxKFhw4audu3abo899rBkm5AdtD8ffvhhwmcDGhyeG5AX6jrooIPcwoULzd/ykksucZiYrV+/3uoaPHiwg0ShZcLHBo0Smp6dd97ZPfXUU6bRQetD3+LJToUKFQrIDuQLIkfo8N/97ndG1CBO9erVS9jHsD+TfP9FdjL8EFB1QkAIRAIBkR2RnRK//FmRxZTEv1jz9b/ITiSefcUOIh/IzoYNG0yzM27cOPfqq6+aVgXNDkQBczBISo0aNWxj/2677ebmz59vZmkzZ850H3/8sZmWXXvttWaWluiZsGLFCjMho4158+a5Y4891i1atMhM5OrUqWPXTZw40d11111uxIgR7qSTTnLvvfeekR+vZYLsYF4HcapWrZo7++yzrS40NYwB7Q7PJ6/ZQTv05ptvuqlTpxaQHZ5dIjvF3vY6QQgIASEQOQREdgJMdrB1x7yEaHMIEc8++6yZcWCfjtDQuHFjM9PABh5b97feesvdcsstrlatWmYSsnXrVgvJzOppz5493a233ppw9RXbewSBtm3bWpZwrsOuvW7durZi++KLL9rqqyc7CDgILhzv3LmzmZnQ/vjx483WnpXfRx99NLKkSGQncs/BhAPKB7Kzfft2d8QRRxjBwKfmgAMOMNKBRgSzMHx4IBc8G9CynHDCCa5KlSqm2cEsDK0MPj8333yzPYMSkR3M0M466yw7r3Xr1tYGWhqeEYcccojVjy8NmuMlS5a4k08+2fadcsoprmnTpmaihpkb2pqqVau6cuXKuQULFph/DufyfIPEYBL32GOPmYkb+3kePvzww6aBwmcHcznau+222yL7bJJmJ+FPWTuFgBDIcwREdgJOdrCZr1mzpr2cH3zwQYcAsGnTJle+fHnbj4DQqlUrEwh4mZ9zzjkOIY2VzzvvvNNNmzbN/f73vzeBgBf/J598ssOLHpOVP/3pT2ZzD2HBMZl2+vfvb9ch7PiVU0gR/cBWHudihBcclnFA3mWXXVyLFi3MVh5n4USCTxT2iezkx1MzH8gOv0fCMbO4AVFAE8J3AghARgYMGGDmazxzOBctyvDhw93IkSPN9Ix9PD8IJADxSfT7Zj9mazxPMElDI+QDHjz++ONGrh544AHT2rDAQ1343YwePdqeO9SJSRvzQT99EAS0PLSNRoj/aKI2btxoJms8oxgD/eWZRvADNFf0nT4k6mcU9ons5MezSaMUAkIgNQREdkJEdiAunuzgDIympVKlSq5du3aOlUts2Vn9vOiiixwvPYjHPffc4/74xz/aSmiylzmCAudjbkKUIxyB0QQhTKxdu9ZWQxFKaA/bfFZG99lnH9MqkeeI1V7IDquurK5ic4+GKZnwk6wfYdkvspPaQyasZ+cL2cnk745ABDx/YjeiovFcyWQ7qitxWHCRnbA+bdRvISAEsomAyE7AyQ5RiTAbYcUTB2HIDquVkA9MOcgdgVYGAoLzLxGIsHfHHITVU1Y4d999d7d8+fKkwgZkhyhMmJsglCCooMFhZZQ2eIFiYw/ZwckXjdFpp51mIV9pg7YwGWHFFFM7rt1zzz2LbDPMworITjYfScGpW2QnsUBd1G8XDQzBBWI3niNFXaNjqeOcDDORneA8P9QTISAEgoOAyE6AyQ4vNAQutCWQDGzkcRZ+/fXX7TO+OWh1sLmHZKDFQcuCHw0265hvYDKCnTp+N8lekOTYwPwN4sI5jzzyiNnr45ODoy+JW4m0VLFiRbOrp60zzjjDtWzZ0kLGcpxQspyL/Ty+RJAhTEeStRnm/SI7wXmAZbMnIjuZE8LD/HsPU99FdrL5RFDdQkAIhBUBkZ2Akx1yVEA+IDLYsj/55JMWAQlNCk7EBArAhIwXMoEDiJSErTsBDPiOrT0al6KIxzvvvGNhXGmLejBfo07qxs/HX0ukI5L2YZ6GpojACJjWkfCP6zB5mzBhgvX15ZdfjiTRYZwiO2F93KXWb8gO5J0AIdqEQRjuAcyLVYSAEBACQqAwAiI7ASc7CNeZ2nA4JtgBWpzYzWt0MtVO1OsR2Sn8EInqN8gOEQwh/tqEQRjuAXIYqQgBISAEhEBhBER2Mkgmoi7ka3z/JZ4iO4UfIlH9BtlBq6oiBMKCAAFqVISAEBACQqAwAiI7IjsZ0xzlCxkS2Sn8EInqN5GdqM5sdMclshPdudXIhIAQSB+B0JMdsm3jkK9NGJTVPUAgBvybVKKNQCKy89VXX5lPW+zISfL7888/x+4q8eeffvrJfOv+85//FFzDZwKCxO4rOBjxD+BBotNff/014iN1FvmSef7ll18Kxsr9RSS7+IJf5ObNm20jgbMvYPXtt9/6r5Z6oOCLPggBISAEhIAhEHqyQzSy9evXaxMGZXYPEJpbZCf6T9BEZIdQ7oR5jy0k8E0koMaek+zz1q1bXdeuXd0PP/xQcAqf27RpU0gILjgY8Q8QxxtuuMFC7ScaKmH1CYoShUJiVnKjcQ9QILfkJCKJc3whiTPBMpo0aWKRMPv27esghiSdfuqppwpOl2anAAp9EAJCQAgUIBB6ssOLUUUIlCUCbdu2FdkpS8Bz1FYiskM49y5duhTqUbly5RwRDb///nvT+hDN8LvvvrNzEEj5/sknn7h///vfto9j5LNihZ6oik2bNrVjkBzOI1fN+eefn7a2qFDnQvYFDQYLWOADXuQXAxOwQntGfjHI4TfffGPfiQyJdgONCGQBjRD7uIb/fh6oi33MBXOCNoU6+E4buSiDBg2ytAKLFy+25ome2aFDB3fsscfu0J2jjjrK+soB7hPSDqxatcrxLJo9e3bB+SI7BVDogxAQAkKgAAGRnQIo9EEIlAwBkZ2S4RT2s1IhOxs3bnTDhw+3nFRXXXWVGzFihAngCLQdO3Z0V1xxhWmEEFQHDhxoq/QkAPZkB2Gd1XqEXfaTLyVd07gw4x5LdiCWLVq0sCTFkD/ygfmExgj4fL/88ssLTJjJP7Z69WrXunVrI6SQSPCH3BBVjzm47LLLbJ7QpjBPzZo1s8TMucCM+wXNzpAhQ6x5+t6tWzdXuXLlHbpDLjW0XhA0+n7xxRfbWEV2doBKO4SAEBACOyAQObLDywABAuHjjTfecGTvLsr+m/NZSU1WsKnG8T62+BXYWFvr2ONh/czqKSudUSoIkay6M2e+sNqLwBAvTL755pt233DvxN4TrDKzSuyLyI5HItr/k5EdfMNiC5qdV1991bVv396E65UrV1rOqXXr1rlDDz3UzZkzxy1YsMBh7kb+KfK1kDeL54onO+yvUqWK7cNEEoE3/v6MbTOqn2PJDiZd/fv3N7ICaenXr59btGiRu/HGG+33TKJliCP5x6699lojNOxbuHChYXf33XcbgVyzZo0lYWYO5s6d6zAJIzEyRGfDhg1GIHKBJ2QHgks/eJeQDw3iA7GLL3/+85+NxEHuIMSMm3eXyE48UvouBISAENgRgciRnaefftoEhXr16jm2U045xVZWdxz6f/dwPit+yQqrfzNmzCh0+LXXXrMVxlyZPxTqTAa/sBqNUJGsTJw40b344ovJDgdyP4lQK1SoYMKN7yCJWQlsEUtoOFa+fHnLQ8R9w3Fs5DFNYoWZsfsisuORiPb/RGRn8uTJJmD6kWM6dcABB5hZIw7kd9xxhzvrrLOM+EyfPt1hfoRAy3bTTTcZKbrrrrvMHIs6PNlBEEcTQaHO+vXr5z3ZGTVqlCVOBpMpU6YYSfRkhwULtCKYFIItflT48jRo0MDM1bgGkzcIEySCOfHzgJZnyZIlZg6Xy8UdyM6kSZNsDJiy3XzzzUbmEpGdww47zBbvMNljUcov3ojs2E9Gf4SAEBACRSIQObLDCy7Wpp7VU+yYCWKAOQOOxGh8cHTlO+djKoGAwQo+q/sIIF9//bUBh0kEL1G0Q2iJuBbBBMEldrW/SJRDcnDAgAEmrPEixX6cVVa0HAgE4IGdOAKc903YtGmTRQfy0YC8Vm3Lli2ODXx//PFHM78AN8iFt6lHYwbO/tpsQYRD+dFHH20rpqye0qfbb7/dCNC2bdsKNcvqqXc057zTTjvN7OERSsaMGVNwrshOARSR/pCI7Kxdu9buJ+5d7uHHHnvM7hMEUARXfjOQHp5BJPElch/feXagmeB3Bdl54oknDDtPdnjuVKpUyX4rmGOdccYZIjsJyA6kAGzxv0HDw0IU2KM941neq1cvW5hAO4bJG8QGPDH74rfNbx4tEJo4zAVzTXbuu+8+IziQ22uuucaeiYnITqzPTuyPTmQnFg19FgJCQAgkRiCSZIc8KJiSsM2fP9+0O5gtkQGbF9wtt9xiq3oIHPPmzTOygzDCqiwv0Ouuu85s7hHePdlB6O/evbu9TLH77tSpU2TJDporTCXAAmdggkAsX77cVaxY0WzKsS3v2bOnrUT26NHDIRRChjgPjCCCJ5xwggluCCBgjhCCPTrC4rhx40xrQiQh2spmgezUrVvXVoW9IzORrho1amSCT2zbkB3mGdM3yBoCJ/0vLdlBsFIJFwI8L7hf45OKQta5H/hdsBKP5pffA+T4gQceMO3B4MGD3dixY83xHU0QvwuIDvsh3CwYcA3FC+UsCrCowu8KMuRNm8KFWul7y4IIplw8TyAwaN4pmKaBL79L5gVzNBz0mQPmg2cVhJHjPL/B+9JLL7X/LGShJWKRA/KDppbnPc+heBPl0o+g5DVAhhkfwRMgY7yfGD9jiS8EbUjUV7BatmxZwekKUFAAhT4IASEgBAoQiCTZIXQnZg2NGzc2oZbQnGgQIDOQH15+zz//vIXtRMBAs4MNNwIwL9GZM2easPHKK68Y2Zk6daqbMGGCbf5aVgejqtnB1wDbd7RfrJoi0CFIYNYFbg8//LBr1aqVhTxFmOMzxBGTQYgCuBx//PFmD49/A8IbwgokCGGDFzSmg8xJtv0SIDvYuSMUod1DoECYwGk8kWaHsNIISdwTCJ6Mp7RkB42YSvAR4F7EvwMCz/xjJhVPdhgFhAehFC1O7DMAwsNvBoHbR17jeQGhwbncmx4hyKMdpdAmGmXOY+OeRBCHmOdjAQ8wBWMWm7zmF7M1fotg5E25OAcNDz55ngigKWHOIKsssPB8p4A9cwC+XEc7mCHzOVcldnxo/CC89IsxxRfuiUR9BSt/r3GNyE48cvouBISAEHAukmQHAZsVVAQPBBaIDC9DNDp+RRWzKjQLmJ6gCcIcxZMkSNGwYcPshYlmhxVFBHZWGimYRbByGCvoROFm8mZskB0EBYgOuCH8gZcnO6yIQgpYKWUDK8xJatSoUQBD1apVzRkbPwTIEphyLmQTvyBs6cuiQHYgpjiEQ1rR6mAKg3YuEdlBUEVoZfPCRWnJDmZ0KrlFAHLBSvr999+/w7zTM+6J2rVrmyM7v3Pmn3smEdnJ7UjUelEIQHJ4nuOnx2JFLs3Uiupnto6J7GQLWdUrBIRAmBGIJNmJ9dnBGf3000+31T/MSDC5YqUVIYaoSAjprOJi8oZpCmZVmDJhhsJqmjdjQ9uDwI6AzLW0kW9kB+KCVoewrxAgiAFmaTjv45eAmRtkcsWKFe6QQw4xHMEYkoF/AxhCdiBHZU12iLrEPNesWdNWhpORHe+zE/ujFtmJRSNcn9EEcD9CztEsQugbNmxo9ySaW+5dhGPMhNBasrruSyKfHX9M/4VAEBEQ2QnirKhPQkAI5BqByJEdL3x7YDELIHwpBAVTLIQdNAvsg9hwPlHIMC1h1Zf9HOd8TB+w9UYIQsvBZwgTGgoEIcwQolRY+cafAHMPIhiBCeYj4AJB5BjmgRAHtDtgSQhUTP9YOceUDWwgBwcddJARHARKoiCxD2wx/cFPiq0sCmFpMbVjpR5tFe1iDoPdPnMaWzDHi9/HcQgaQSl8STVAgTQ7Hrmy/4+pEj4eL7zwQkHj3N9E28OUEu0NWstEJRHZ4TcPyY/d+I3QTqw5UaL6YvdxP8ZrFlk84d7M1wIxxaQPPGML+9J91rLIQr3plPiFj3jzMp55nBNLkJlX2vRmiv7eSNQH7hnM17BC8IVnLs/adIvITrrI6TohIASijEDkyA4vnvgXI0IILxaKf5nwn8L5sZ95+fBS8y8gjnlbe15g2Opj2sVLLNELzCoN6R/GxAZBxFYeMy7GyGfw4EWOWQj/wY2XOt85xnWYsRGhDcESbRr1cD14gZufF+YjFcGwNHAyd97uH0GSfjMu+uLN1Hz9EJ34fRyL7y9kB2GZ6Fkl2XbdddcSnVeSunROyTD3ODFPmLL637+fa/y4Dj74YIuk5s+N/08ochY9YgsLAuTLQUvoN3LkkNMF7XBxBWdy/MYwt6pevXqBAz7XofFkkSFfC88LCCYaYP9s5VmDFh2/nFQL9WG2yv9UC8825sMXyG2dOnX8V3vO4eOJ7x8LPP7+wjewZcuW5vfHc493CX5E/nhBBc6Z9QB+pZBvCmMeOXJkoXZizy/JZ5GdkqCkc4SAEMg3BCJHdvJtAoM0XgRBEiPi+4Cjd1SLNDvhmVlINtEAWcTwBXLOfdqnTx/T5CFQJyqJNDtoOUkeGl8g0dTLggjkGPJPvRBtiDWkm+NECqNeTGXxKyHBJeayFHxMMJ9F6KUermPzwjp1US/7Yuv2x9nnr6GtMBaCyeBLyTgp+A/ye2OMbGDAApRfLAFXPjNuxuw/8x88zjvvPDvmrwFbNo6zj/pY4KBuMGcfc4nml6AqFDTZ5N7abbfd7Dvn44eInxf9xBeUz2iR6Sv9gLT4qGqQJvxG4wtacQg1lgMUAi8QBZNw5ekWkZ10kdN1QkAIRBkBkZ0oz67GlhUERHayAmtWKkUwRXDFXwffHUg4gih+OvjgQVwQOhFsMR+K1ewlIzsE6oCssBEEBYEbU1iEXYRgtAmQGqIOIryyQaxIyHvyySdblEhCmqPZQRBGKEZY92QH7Sgh3Alv36RJEyNHCOEQI/ZfcMEFNh7yspBEE00IAjpt0DYbY4wdS1bAzUKlkFN+X5iH0X8CyBAJE4KC6SzzhR+lTx6KJoXxso+EoxBb/PEwUcR/ELLD3KNtwS+L+iEvfGZeiJTI3D/zzDPWLqQGv0RMXjFvpN2XXnrJ5tabo6LNpj3M6yho9egn84dZJIUgNmgVKdxzaAHjC6a95NfxGiTuD0wuSYCabhHZSRc5XScEhECUEYgc2WGlDr8Q/HPYWNEt6qXP+X5lNdFEY2Lg64q32U50fqr7WGHkpVlUH6mT4whjvHyzURC24sPd0hZYprNKzLgQLNIptOfNVqiHxIuxZiD0izkDNz5zPt/9CndsmwiJmAwhkPpCnQipic735xT1X2SnKHSCd4x7G38zkkwSRRHhlN+y/03hc4ZfGeQB4kOIckoysoMQi+kSG6GNubeoG2Ebvy98/rjvELwhPazcY76GGSXCOdEdeaZAdvDTIXokvmSQHjQ73PuYgnLf4yeIGRf39+6772770BKceeaZVh/+ZLSNCR1meGhG2IfPHPd92ApzwhyBEb95Apz4CJoQEuYGUon2A/KKGRmmhjznIZfMB3VAUPDHhOxwHhoYwuljcggRQRODzybEiGArYIZpI/cFbUBcMGXzheu9xgVfK4iSfybRV+aNfd7skXMOPfRQu5x74dhjjzVNk6+P/5AdCDdEiGcY1+ITmiipaOx1RX0W2SkKHR0TAkIgXxGIHNlhlY6wxyRpY2OVjNXWZAUBJTZ6W/x5RO9i9Y8VP/LI8ELD3CFThcR4rAojgMcXhPFZs2YZ4UBgQ5BKV0CPrzv+O4kvEeJjC4IBq8jpECzGhSCSTsFUCKGNFW5y3rBKS2JQfB0oCATYzzMnCEKYq7C6nch0jpDirKYj3PhC3SQMTZeMiex4JMPzn3vYm0Al+g15Akyocu4tnh3Msxde/Ui5NxFOISlsCLLxZIdAHRSEZaIOUh/aIBZO4skO/eK+pk40OQjNCOpEjEM4JyEpq/3cq3vttZcJxWgA0PhQeN4R+AOBGz85iAIb4dbxMwljgWwg8EMI0WR5UoG2hXmB3DFWSA/PGDQwzC3k0//OwdWbsXk/PeriecF1PNMhOWBMFE7IDukFuDcgQ+Aeu7gVS3ZYFOLe8JodSDGaHTDn/qDw7DrxxBPtM+QLc7X44BOQHaIBQnbpE+ZwEDqRnTDeteqzEBACQUYgcmQH85BY8oKTKKtdvEB5kfGiQuhgJZDvnI+gwcuRlxHmE2y83CiEU2aFkIJAhPDNS5XzISBoCFjF42VLYR/f2Twp8vt8vZyLMzz98BGY/CozK7j+PPrOWOgj7fmXL/3kWtrw/aQ+xsT+eA2NdayYPwhsEAoELQrtIWTxIgcn2vbYgAMCBPvoA/1hTBxH+8RnVrNxDOc7GIEFdSIccg399JoZ+o1pCGNHqINggQdtI3xyHfXRHwgYK6z0F8GmdevW1l+EBQRF9scWrj/qqKNM6KROBCBWUzEJoh/plFTJzpQpU9JpRtfkEAHuLQJuJCI78T478WQHMs1KPfcjhIP7G4EW7Q6aCvajVUCzQ+FcBPm//vWvbsyYMaah4Bx+KwjhkH1+R5Ad7mHIDmHgKZ7s8IxiYYbfEL9/2uP5EdbCMwDhHxM2Cr9btFngyfjQlDBHkB1IEccxB4P08TxCWweWaHY4Bm6e7LBo5DVH4A7JBGc0cjzr0Gaj2QFzX2LJDvPFNTyTeAaSKBnCSsRGcOe5hukkvkcUvuOfxXMstkB2CF7w9NNPm1kepAttnshOLEr6LASEgBAoPQKRJDuQF17+bKyUsbKPaQgvJ8gDK3q8lBBKMB/hfF6gmLIgUPPSGT16tAntsWQHuHkBnnvuufafMMyYqnA+5ia8EDFF4aWKgMIqHwIHmgjOYz+fecHxwsVuHNt6zC84jxc413Mu/3mJ40iNqQWECaLFajGmMbSJxooXJsIWAjhjY1y8LBF6Ui0I5di2UyAdCGP0C40JuCAAQC7oP6SIqFT0jVxF+AvQbzaEDLCFlDAOIg7x8qcuBArw5zwEBoQFBBvqZ0Wa8YAJggEEiHFT0HAhVLCC6onIo5wAACAASURBVDV1CBHMD+ciUFJffOhoyA71I2TSFgIkWLFyXlZkxwagP6FDIJEZGwItpm6xBeJPLil+E2gdvNkVzxbudbQ77Oe3S94vngNLliyxY74efq9oa0hoCnHnt4aPCsI4vxmOsxjBvY4mA8JO4RmH6RZCOs8R7nOu4XOYC89tnjUQD1/ABO0L+PMMACeepyyyUNDIMHaeIfyHUPJcARtw47mEnxV5wtDC8MzmPJ7jmLrhqwORQZPkQ+z7tlms8Qsr7GOued4yr8yvj0oJQWMxjGPeDM6/d3xd/j/aaO4HFo94RkFceb9wz6RbZMaWLnK6TggIgSgjEEmyU61aNXtZQQ4ID8oqH9oGBHI+8+JjVZCVN4RhyA4rcwjlaFF4GeLAjGlXPNnhWmzjuQ7nUlbleGkhiKDBYCWR/DPY3KOF4IXLi4+XIWQIszlWKxF4ELz5DslCw3P44YcbyUDAx0wDkoFzLf85lzZ4IXMtAhYCPgISglCzZs1sdZJVTMbvTb5SuXl5yeOEywuX8WEeQ2Fc9AE8GBukAuHgiCOOMALBy5wVVl7akA1WnhFWMCFkLBwnQhvj5xhCCbjxgicPT+XKle07x3nRMzexhe/MJYIdAiACBYX26C8CChskJj5nCuOAkGE+hGMyQibzTn9FdmJR1ud4BBKRHe5nfsuxhWcCRB6BmGPclxS0Cfx2MGnyplgI3gjnaB/4/cYWFlz4nXMvc29yHefxbOB3TV0UFjcg7hTapG36wDOBRR18dWg7zIXx8hyKHQdYoPngGcOYwYrPnOsL33kGgBmFZyPYUFgcATvwBSPvywcpYc6ok0KbhABnEccX6qA/sYW6WZDyCzIc4zN99O3TFuSM52V8YTz+WhaX6Bv3R/x9EX9dUd9FdopCR8eEgBDIVwQiSXZY9UMI4KWDKRXCMi8yhGS/6soLEaEXLQXEBt8ONCKsyrFqysooJhPxZAcBBELDdZAPCBTns0KIoMMLlBVIzKTQ7iCg4/iMIELhpcm1aI4oEAFPdvAJ8gUixcpwPNlB68EKJYWXMiSAfiLoQ0goaC0gE+kUxk8bkA7IDQX88IPCvp2x8h+THDRcFExAPAGxHb+NCz8FCuFjuR5BBCdg5gQBAKLGCilkh5c9Bcz8OPiOYzm4bN682bBjFRvySEF48RGP+E7dfn7tBOeMtDEWnNK5FhMkHLwhQCI7HiX9T4RAIrKT6Dztix4CLI6hSfZEKd0RopliwYX6yqKI7JQFympDCAiBsCEQSbLjhWEmA0EcLQk+IgjYkydPNpM1tDcI6Kzeodlh5Q3TKlbqEKzRvrByB9mBdLBiipYGIoFJFsI+pmistkKcsLGH7ECgOBeiQEQktBj0B60CfcCsAlMMT1hiyQ5JDtEGQdJOOOEEqweyQ/tes4PzM0ESWB2GKNB3VhExifMkoTRkhzFjG8+LnvFA0tDwQBZYeYaoQRTQXEH6KIzVYwG5wxyNnDv0g+LJDhgQJpbxgRFkEU0PZMebfGCGw5whZGDigUaIc7ytPmYofj7R0kG8KPSTPoBxbEHQwGQFny2OQ2gZh8hOLEr6nAgBkZ1EqGhfkBEQ2Qny7KhvQkAI5AqByJEdBGPv1AqomDhgf435F4IymhjsvNFQIKRzPlocTArIkYANNmQE/xW0QxAgCAxCOP/RemDygMkB7VA3pl3+fKLroB1B4EdY4lw0CnynbkgWWhfM5SgQKJygaX+//fYzYgHRYB+aG8gYJliYO9Bn/mOTzjjQCFEfpg9EdINEUCAnkKZ0Cm0yJnxkMMGAdGD6xT4IGthA7DA/g4hRaB8SxLjBAnLGcW8Gh7aLMUCeuB68wZH+Q4SIfOTNPsCFcyEv1ImmBzzYMBfE1M37MjAnfpyQJ+bHm6L4sdN3/HyoD/8h8OIcNGv0J52CFi3epCWdenRNsBFIRHb4nXqTtNL0njpYwPCF3xALDflewAENMM+hqBeeQ5gj8pz1hee7X/jx+1L5L7KTClo6VwgIgXxBIHJkBxKCQBJbMCHgBUrhBYPw7YVizvfCC58xbeJlw0uXgkCMEMKGQB5r1sA5CL2cjzBN8fswy/IvMY7xnTp4iUOAENopHOMFR9u8qLDX5jzfDoSLfdTlCQEEjn6y3/eT8XjbdcZDfekWhDD66Att0BZtUi/40i/MyHyhf2BB3+kH4/K4cj3nMiauRStFG8wL9cQKN2BBeFn2MSbq8xv1gZ9vy19HvWi8IJweD98v6vdCpceFOqjbz48/t6T/RXZKilS4z0tEdojiBdlPp3C/s0hBYeEA7aL/naMhxu8u3wvPBhZW/PM5Hg+eMSxYRKGgLUcz732xuBe4ty666KK0hyeykzZ0ulAICIEIIxA5shPWuUJIR4hOVwAP67gT9RuTM+/TlOh4/D6IIw7F8SZs8edl6rvITqaQDHY9icgOWmE0ivHFk3B+x57A+H38ptmH/wbCKPsxod17771N60hdaGWJGknhXK6hLv884Bo2v89/5r8v/prYff5YWP6DESa5fnHEj4n/4ELEMjS4jDEWp9gxx17j9/Of/b4e8Ijdlwt8MKsuV66cRZWjfbQ8+BQSdCXdIrKTLnK6TggIgSgjILIT5dnV2LKCgMhOVmANXKUlJTtoIYiQSGhiIgxiqom2F6Ec4RU/NUJWY+a55557FkQUxBwV/zjvpwfZQSuKyS3XkEuH//gQYsJKWHmCerAfwkWkSXzW0IYQmAMtAQFLiJaIX1oYSyzZQfNB8BjGRDAUTFIxZz3++OMt1Df+jvwW0YgRlIZrMYsFB0Logw8msxBETIiph415ZWGEwDFoUbw5blnjxfzjt4gJMgWTavpEFMt0i8hOusjpOiEgBKKMgMhOlGdXY8sKAiI7WYE1cJWmQnYwrSJSI6aUxx13nAUPQbAmiMbKlSuN0OBX5oVRNDv4tnGdj24I2cHsEqEeoR2fQgR5cu+QWwufM7SYECDy+mCeST0ECyHnFf5yBFohgIn3lwscqMV0KJbsQFQgeZjEQlbYCNUPDpjTQv7QtEH0CEKCiSDBYAhwAsHBVND7ZhJMhWsxdyVSJhhDHPEtTGYyV0xXS30YsgMBhpihcSLyJDmVlFS01NCqAiEgBIRAIQREdgrBoS9CoHgERHaKxygKZ5SU7GB+hAYC0kKCScyQIC0I1mgcSAxMXZiqxZMdyAuh6tEunHjiiXYdwTsgOQjCEBsIEWSHyIIU2kEbxLUQAHJqYRJHYA9IDgSIQClhLLFkh6SfBBehQCLRZnmyw9jRyhBAhjGj8SGJM/5+XqsF6WE+CPaCtoTz2AiIAmYkZk43SEkmsIXsME9o4pYvX27pCwheI7KTCXRVhxAQAkLgfwiI7PwPC30SAiVCQGSnRDCF/qRkZAdhmUAbbAQdQBAnpDwCOEIrZIcw65AUAm6g2UGwJlT8YYcdZsE/vGYHkNAunHPOOXYMZ3UiEHI910JsiEII2cG8jcI+tD6e7GDORfh2yBX9oV3M5sJY4skOERkpnuxAUjAZRBuDNgdCAw6QID6Dk49uOWzYMCNBaMkgQfgBcR2aITCHKOWa7DA+5oow/WiqIMQiO2G8c9VnISAEgoyAyE6QZ0d9CyQCIjuBnJaMdyoR2UG7gnkaAjMbgTQwX4Og8BltDL47CK0kGkazgCkVRAVBGx8NQtETth7zMwqO8rSFWRUEClMmQtXjywFJgsRgkoVzPoXj1I/2iLxhCO74e3Ts2NFyiSE0hzU0Ov1GWwUOkDwfoh9CQGoAxg3WJIGG5JEwGA0JYyaMP8eJcoemp0GDBmbaRiADNDpohtCgERiA6Jhc5yNGGrBl/AdSxvgga9WrV3dPPfWURbxkztMtXnOY7vW6TggIASEQRQREdqI4qxpTVhEQ2ckqvIGpPBHZQThG++A3wrEjTCOkk8eLkO0I0j70OpEFOdeHhSeMOucSNh0tjC8IvAQaoCDok4yY72h3aJPz+UzBbA6fFdolHL0PE094eAR+H6LeTg7ZH3DCDA0fFsihDxvPfx+hzacHgCSCNVowjlEgECQ0hvQQwhqNEAWMIKXMBdfh04NWh3ZyVWLHx1xDXhk/Y0q3iOyki5yuEwJCIMoIiOxEeXY1tqwgILKTFVgDV2kishO4TqpDhRB44403TLOGWR+at9Ik6CxUcUi+iOyEZKLUTSEgBMoUgVCTHVZSK1SooK0YDHbeeWdhVAxGqd5H3gm6TH+taqxMERDZKVO41VgGEBDZyQCIqkIICIHIIRBqshO52cjSgIjUpCIEhEBqCBRFdjA7I/8N5keYRZWmYM5GfSr/QwAzQEJ1gy8mZxTMvDDxS6dgxobZmC/UxUahLW8G54+XxX/GEm9Kx72AOWK6RWQnXeR0nRAQAlFGQGQnyrP729hEdvJgkjXEjCOQjOyQo4XcKCSAbNeunUViixWkU+kIfjdETyPksMp/ESB6GvgSLQ2TUZK0QiiJaudDUaeKFcEduJ4CeSLYAQEBKPhA+bxFtqOM/hB2mvsHHyQK9wKJVAlUkW4R2UkXOV0nBIRAlBEQ2Yny7P42NpGdPJhkDTHjCCQiO2gb9thjD4uAhtCMQzmkhwSY6RSE+HHjxhXk0EmnjihdQwCHRo0aWaQ68EXjUr9+fYtIR0Q2EodCClIpYEykOjQpaHEI+/2Xv/zFPfDAA1YNc8gcLF26NJVqS30uUeHKlStXEJUPLQ8JYQldnm4R2UkXOV0nBIRAlBEQ2Yny7P42NpGdPJhkDTHjCCQiOwMGDLCklLGNEf0MkzaipRFm+sILL3SNGzd206dPN41E+/btTYitXbu25VNBC4SmgRDWrOLXqFHDyA71oM0gWSbHVq1a5XC4RwAmNDHah6gXcCGPTmykOnIPQQQgOyRoJeFq1apVDV8i1ZFbB7zBl3DdkBfCf19yySUWcnrGjBkWmQ3siHRGGG/ChHuyw/65c+fatWUZnY3Q13Xq1HEkkaWsWbPGiPOZZ55p39P5I7KTDmq6RggIgagjILIT9Rl2zrKr58EwNUQhkFEEEpEdEnqSJ4dCKGPID/l0yL9DyGOIC4lFEbDJqYOvCII4CS/xETnjjDPMfAptEGZVhJC+/vrr7XoEcAR0SA4C+cknn+wIXd2qVSuHaZcPPZ3RQQasMvLnkCMHXOILZAfih4aGvEKQHkzAHnroIQchggy2aNHCiBI4QjY5t02bNm7OnDkF1aHpwYwtluy8/PLLRrLQ/JRVgewwVogZfeKewWRPSUXLagbUjhAQAvmCgMhOHsy0NDt5MMkaYsYRSER2yN2CgEpBq/DSSy8ZkSGB5eDBg129evWMAJEUtFu3bmY2hd/Jq6++ategtYEscQwBnUJiUJKOYmoFMYJA9e3b15JnQnJIhIlmIx8Kmh00NbGaHYgIBBKyg+YMMzaiIV588cUWwACycNVVVxlpRCPGtRBErqPUrFnTLV68uAC+RGQHDdrll1+ekGQVXJjhD5Ad7jEINMSX+4oxiuxkGGhVJwSEQN4jILKTB7eAyE4eTLKGmHEEEpEdknbi74HGBU0NmhsEafxMIDE4nKOVIL/LhAkTzKSKfZAWCqQIk6nOnTsbASIKGwI8mqFBgwaZoM/1Pikm7eBjQlLRfChEX4PwQVTAAdO+pk2bmtYGIuB9djzZAeOePXsazi+88IIFNkADBgHymKPZQevmSyKykyvNzn333ecef/xxG2OnTp1s3kV2/EzpvxAQAkIgMwiI7GQGx0DXIrIT6OlR5wKKQCKyQ1eJ4oUJFRoISAt+N88995z7+uuvzeemd+/e7uabbzaygw/I7bffbkIs11577bWmDVq0aJHr0qWLBTagLupEU4SZFlohNBWYdOELNHbs2EJhkwMKV8a69eyzzxqmkLwrrrjCzATBEe0Oc4JmBxIE/vi5oBHD7A+tG/hBINGSQBgpkEvmxAc24D/YQjJ8wcwNnMvSZwfzu3nz5pkm6pxzzrEgDJA9SE+6RT476SKn64SAEIgyAiI7UZ7d38YmspMHk6whZhyBZGSHhhC20Rxs2LChkMkV2gi0MW+++WaBSRQRxthP+eCDD0wYR+DGjI06OI5vCYX/7Hv33XftO9fF52KxAxH/g+YGbQvmZT4fDuZpXsMFKQFLcIQgcC4hpNmH5gbNmsec6zAbjM1fQ5AIjznaOYjOsmXLyhRV7iEfsnzr1q02TnyGGE+6RWQnXeR0nRAQAlFGQGQnyrP729hEdvJgkjXEjCNQFNnJeGOqMKsIoElLlsvImxxCesJeRHbCPoPqvxAQAtlAQGQnG6jmsE7s1bds2VJo22uvvQp9Z9VYGdtzOElqOhQIiOyEYprUyRgERHZiwNBHISAEhMBvCIjsROxWIGwtUYVit1122aXQd0w6MLVREQJCIDkCicgOJlHkamHDbIrEl6UtmGLhr4OPiTfT8nWyKMHiBMk1fbt8xlSLgqkWCxzUkahwPX0OSyFHDrgyVsz7orwog49X7FwyR4yX8adbRHbSRU7XCQEhEGUERHaiPLu/jU1mbHkwyRpixhFIRHZwbCeHCwEEiPKFAz3+FskKAi2O6MkKvicEJ2BxAod7/hOK2ptUkXeF/UOGDLEoZb5dAiBADMg3QyS3eNJFzhnMs5588klzxk/WftD246ODgz7hmC+77DJH2G5M0JKROfx5yJkTxsI8c//gZ0RhjERna9myZdrDEdlJGzpdKASEQIQRENmJ8OT6oYnseCT0XwiUHIFEZIeoX0RgQ5sCkcGx/bTTTrN8Oolqfv31142kJDrGPgRdcu8QVcxrcQib7P1LmjdvbkEQyLsDwaFdtEC1a9e2KGOQHO/AH9vGSSedZElPEZ7pc1jK6tWrLUodRA18Cet97rnn2udEY0ADdPbZZyc6FPh9ENlDDz20IDACgSiILHf00Uen3XeRnbSh04VCQAhEGAGRnQhPrh+ayI5HQv+FQMkRSEZ2unfvXqiSM844wz3//POWXJQw1BdccIHlTUFLQeLLv//9727GjBmWMJKko3Xq1LHQyETjgiz5JKW+0kceecQSiZJT5qCDDjLNDiGrr7nmGvO9w9yNXDRLliyxbdSoUUYGIF3169c3bcgee+xhWiIEas698MILLVnl/PnzC0zgfHtB+g/ZYZwQHV8gl2hB8EVEs8VYCNUMThC5fffd167ZtGmTaYVq1apleXZI+JpMI+TrzuV/kopCWkePHm3dWLt2rYUuP/PMM9PulshO2tDpQiEgBCKMgMhOhCfXD01kxyOh/0Kg5AiUlOyQ9BIyQ+JKfOHYMHEjhwpJSBs2bOgIpVy9enU7B7+6Fi1amPnaDTfc4O6+++5CnSJnD0I9fjlodhDy77zzTtNwQIwQ/hGICW+NBmjAgAEWRvmoo46yHD748Rx33HEWthnNDuZg7KM/JDD1JnKFGg3Il0Rkh7HTb8gM+XDefvttN27cOMt1hGYMLAjZDLEjN88rr7ziIIAQxCD7K0F2yP/DvcJcz5w50+ZSSUUDcjOqG0JACEQGAZGdyExl8oGI7CTHRkeEQDIESkp2KleubH4lU6ZMMY0Cgjl+PQjmnuyQjwdzLARytuuvv94tXLjQDRs2zPXv379QF/AL4ng82cF3B6d98rAMGjTITJ5iyc4pp5xifjxUFkt2EPwpaJ8whwuy038istO1a1dLJgqWELcbb7zRMINEerLjc+lwHHyZAwhRrIaoEMgB+ALZ4R7DTwvfK5Ki4mMlshOAyVEXhIAQiBQCIjuRms7EgxHZSYyL9gqBohBIRnaIZggRYVuwYIHDdAiTtVatWlkUMcgEWgVIy8aNG82UDaG8atWq5nPjV/HRAL3zzjvms8N/9pNkEs3NrFmzrGuxmh2EYd8upk+Yp8WSnVNPPdUR8IBywgknWNuxPjthITtXX3214cBYwbVKlSoWtWzgwIGmBcM0jaAFEEp8djAjxG8JIjd9+nTDiKARDz/8cEFi0aLmOVfHIDvMDxo35hnSg4miyE6uZkTtCgEhEFUERHaiOrMx4xLZiQFDH4VACRFIRHYQoOvWret69OhhwikCN2ZTaBZuv/12MzcbMWKE+ezgH4NfDj46aHHuv/9+M1lCk4NfCloaAgxQJxoJTNQwX0Oo/+qrr6yXaDEgSkQcI5AB7RKtDL8VtEXLly93EydOtPYvvfRSE/S5EG0I2g2uo34KPiGYzCUKaGAnBOAPY2rXrp35rkB6MBHENweCQ9Q68MFPp0uXLoYFoZsbNWpk0eoYH8fRljH+xx9/PAAjSt4FIuZBiLl3KlWqZKTnvffeM41d8quKPiKfnaLx0VEhIATyEwGRnTyYd5GdPJhkDTHjCCQiOwjXmFOx4TMT6xMCQcEpHm0E+XJ8zhy0DBAbNBWs3BN5jXp8YT+EBl+ezZs3FwojvW3bNvNHIfeKbxffFW+eRXQ2onhRB9ohX9AQ0Rbt+rZ8DhfODWrBnwgMGCtaMcbt+4tfDphDLiFsYEb4bSK3gQnn8XnlypWWmyjIwQnAn/uDyHoU/JAYO2MsKpR5cfMmslMcQjouBIRAPiIgspMHsy6ykweTrCFmHIFEZCfjjahCIZBBBER2MgimqhICQiAyCIjsRGYqkw9EZCc5NjoiBJIhILKTDBntDyoCIjtBnRn1SwgIgVwiILKTS/TLqG2RnTICWs1ECoFEZAdTo48//rhgizVjSzR4zsfULFnB3AzTpdhCmOggR0yL7WumPxNgAXNAb7qW6fqDVB/3DmZssWPlfvHmj+n0VWQnHdR0jRAQAlFHQGQn6jPsnBPZyYNJ1hAzjkAisoPTO4EACDBAVLb27du7Bx54IGnbBCYo6ni/fv3Mzye2ghdeeMEc14PucxLb50x9xudm6NChBT5J8fVCNJ955pn43aH8Pm3aNAvEQEQ5CvNN+PIOHTqkPR6RnbSh04VCQAhEGAGRnQhPrh+ayI5HQv+FQMkRSER2xo8fb8KoD0BA9LDy5cs7omglKpMnT3a9evVKdMj2EUksXngnuSQR3fKR7OCoTzQ2H1QhHrglS5a4m2++OX53KL+TD4h7h4h6FO4povIdffTRaY9HZCdt6HShEBACEUZAZCfCk+uHJrLjkdB/IVByBIoiO0QJY0M4P+qooyyC2NKlSy08NHlhCJsMAfJkh4hphJHmWIMGDdzixYvNfMmTHSKpNWvWzFWrVs02wk/nO9khpDaYkIz1rLPOsmh1JFaFIIwdO9ai2hGaGkwJOU3kOXBs0qSJYUiobkgjpnH8J39NjRo13KOPPmpzc8MNN7jzzjvPQnmX/K7I3Jnk2alZs6aNhVqJ5Md9c+aZZ6bdiMhO2tDpQiEgBCKMgMhOhCfXD01kxyOh/0Kg5AgkIzunn366aWtat25tJm1oeyAzJIUk7DE+OEOGDLEcNySNRLOD4M5xQipDgMgTg/YCskNiUIgQJkyEUubaAQMG5D3ZGTx4sLvlllsszDQ5iMhPRDJRsAJjzAjJqQOm3bt3d2hKyENEXiFwxByORKyEAofUYB6IFu0f//iHaVMaNmxoBKo0PjIlv5t2PBOyw/jQZOG3M3v2bBujkoruiJX2CAEhIARKg4DITmnQC8m1IjshmSh1M1AIJCM7LVu2NAH6wQcfNCH6/fffNw0PBAZtD2Xu3LlGWCA5CLQkHG3VqpUlDO3Tp48JtSQchew8+eSTRpq2bNli186bN88SZ+a7ZmfUqFFu0qRJhgl+T7179y4gOzjyoyGD8KAF49iECRPcxRdfbMEjuAgcIY4zZswwzRDnsXXu3NnqiZ0va6SM/0B2SPqK6RoJUUkCi0+YyE4ZT4SaEwJCIPIIiOxEfooVoCAPplhDzAICycgOQjIFMgKJwTQKx/o2bdo4koCyH5IzevRo5zU7I0eOLDCpImkkfjlEafOaHQIeQHooaH5kxva5g+yAHwWtF4Tm2WefdZifkVS0a9eujgAQmKmRkBVyA5FZsGCBzcHdd99tmh2SuEKMIEg///yzadq8yRgauVwVyA7je+yxxxxaQjR/JIIV2cnVjKhdISAEooqAyE5UZzZmXNLsxIChj0KghAgkIjuYSKGZ8QUBum7dukZUpk+fbiZJEBV8SDZu3GiCLP4i+JIQuW3QoEEOv5P777/fTK3w0Vi2bJkj0AFmVRzH5wTTuHzU7ODndNNNNzlCck+dOtVMu8B6zpw5DsKIyRp+PJh8QWrQioAv+9COvP766+Y3BSGCNGDGBo5g3rNnTzNz4zOklEh4aNdyVSC1jAPSW7FiRbtX3n33Xde2bdu0uySfnbSh04VCQAhEGAGRnQhPLnbgrCLvueee9nKPzecQ4WFraEIgIwgkIjv4d3zwwQeF6id0sNfovPnmm+YPsn37djsHYRrHeQo+OhAbSBA+JRSE26+//to+cx4+P5iz5cqPxDqSwz/44mAWiLYGrYuPyuZx5Bm2efNme65xDgEiVqxYUYAxBIht3bp1rm/fvgWaIQgFGh72cx3tMI9oenJVYse3adMmy61EjiWIcbpFZCdd5HSdEBACUUZAZCeis8uK85gxYxz+BUQsat68ucPHwAtZER22hiUEMoZAIrKTscpVUVYQePHFF03bg5aMQAbeDyorjQWwUpGdAE6KuiQEhEDOERDZyfkUZKcD2LbjW+DNNFgtbdGihWMFUUUICIHiERDZKR4jnREsBER2gjUf6o0QEALBQEBkJxjzkPFeYN9OPonYQrQiHKdVhIAQKB4BkZ3iMdIZwUJAZCdY86HeCAEhEAwERHaCMQ8Z7wVOuzj1xhaEN0KdqggBIVA8AiI7xWOkM4KFgMhOsOZDvRECQiAYCIjsBGMeMt4LkueRYO/LL7+0unGiJsoP0YxUhIAQKB4BkZ3iMdIZwUJAZCdY86HeCAEhEAwERHaCMQ8Z78V3333nbr75ZkumRw6HSpUqWehWBSjIONSqMKIIiOxEdGIjPCyRnQhProYmBIRA2giI7KQNXbAvmA+HugAAIABJREFUJETr2LFjLYv7H//4R8viTk6HfMzdEeyZUu+CioDITlBnRv1KhoDITjJktF8ICIF8RkBkJ6Kz/8knn1imcczWSCq6aNEiyzuBxkdFCAiB4hEQ2SkeI50RLAREdoI1H+qNEBACwUBAZCcY85DxXqxevdoykX/11VdGdj7++GN3xRVX7JAQMeMNq0IhEBEEIDt/+tOf7PfDgoE2YRD0e2CnnXaKyK9PwxACQkAIZA4BkZ3MYRmomojGNm3aNOsTL2jK4MGD3f333x+ofqozQkAIJEbg66+/dv369XPdunVzF154oZsyZYojWbBKMBFgvvr27VswX1OnTnXff/99MDurXgkBISAE8ggBkZ0ITjYv2ObNm7utW7fa6DzZ2bhxo6tTp4774YcfIjhqDUkIRAcBzFC7d+/u7rzzTouoSDRFNLP44X3zzTfRGWhERrJ9+3abr/79+xear3Hjxmm+IjLHGoYQEALhRUBkJ7xzl7TnjzzyiLvxxhsdQQoonuz88ssvrk2bNu7xxx9Peq0OCAEhkFsEIDpXXXWVGz16dCFBGYH6pptucuPHj3c//vhjbjup1gsQYL46derkxowZo/kqQEUfhIAQEALBQUBkJzhzkZGeEG2tQoUKbv369QX1ebLDjhdffNHVqlWr4Jg+CAEhEBwE0Npce+21FiY+UeTETz/91LVs2dKxoJHoeHBGkh89wXSN+Ro1alTCAUOEWrRo4aZPn675SoiQdgoBISAEso+AyE72MS7TFp577jlXs2bNQm3Gkh0ONGzY0EhPoZP0RQgIgZwiQAJgfD4wXUOITlY++OADd+mll7pJkya5b7/9Ntlp2p9lBJivPn36pDRfioaZ5UlR9UJACAiBBAhEguxgzz5r1iyHvTTmW6y05etWpUoVd9555xUa/6677lro+znnnGPanXzAqFevXrbqumzZMjkLJ3gAaFcwEMBErWvXru6uu+4yn4/ievXhhx+ajwimbiI8xaGV+eNEt+zSpYvN17/+9a9iG/Dzhamb5qtYuHSCEBACQiCjCISa7LBKxsu+du3aBUkzn3/+ebd8+XJtwsCtWLHCLVy40FbAW7du7S6++GK3du3ajP6AVJkQKC0Cn332mfnoTJgwIaVoaxCkG264wd1zzz0OfzyVskEAU0J8qu6+++6U5guCdP3112u+ymaa1IoQEAJCoACBUJIdbNURELBd79ixo9u8ebNjdY2NvDL+s/7/F5N8xSH+XnjyySfdCSecYARZIXwLngH6kEMEMFdD+zh06FD3008/pdwTBGgiL+IT8vPPP6d8vS5IDQGeKaWZr48++sg1a9ZM85Ua7DpbCAgBIVAqBEJHdiA6L7/8smvUqJGZJ+EAGivMxwu4scf0Ob/IT6J74d133zVzoUGDBhWKnFSqX5EuFgJpIMCCza233mq5dLhX0y348EB40AwpLHW6KBZ/XabnC82Q5qt43HWGEBACQqC0CISO7LzxxhuuQ4cObubMmWbbHk9gEgm48efoe36QnmT3AprAHj16uGHDhilCUmmfILo+LQQwQevcubMl+uV5VNpCffgr4hMiJ/jSornj9WjQMF0bMmSILa7teEZqe/x8kTdJ85UadjpbCAgBIZAqAqEiO7wUevbsaTbPn3/+eSGNjicwyQRcfzzX/9977z331FNPOYIqFNeXDRs2WGS1J554othzi6sr1eP4tpx66qnu0UcfLXHbaNkuueQSMxMjUlGqbWb6/KLuBRKuVqtWTTmHUn1i6PxSI/DFF19YgtBddtnF7b///u6ggw7KyEbUxT//+c9u4sSJpe6jKvgfAszX5Zdf7jI9X8wVG1H1VISAEBACQiB7CISK7OBzgY/Otm3bkgrSRQm46QjT2Fhv3LjRbdmyxb399tuO76zKvfPOO+7NN9+0fTisvvXWW+61116z8xD0ITNoEOgr12Nqwv6bb77ZCMyrr75q3yE/HMe8yvePc6lryZIl7qSTTkpKOCAX9MO38f777xdou/hMvQj11OvP5fumTZscx2mTMaEtI1qQ/8y57CPaEAEfMN/gGOSL9jzRpC76CQ5gwHmEYp0zZ471g3poiw3M6Ae4cB0b/fOkz7f5+uuvFzm/HqOS/C/uXmAOzjrrLOtL9n5iqlkIlA4Bnhnkx1IJBwIkfl2zZk04OqteCgEhIATyAIHQkB1IRp06ddzSpUsLSEEigbc4ATfRNcn2QQgwd0IDcNlll7kaNWq4hx9+2DQzRICrW7eu+X+wr0GDBu6iiy6ybeXKlbZax/lcTxLPq6++2ggACT//9re/WW4GfI8IslC/fn3XtGlTE2ggBpCM6tWrmx3+gQcemJTskFMHTQrmMPXq1XNt2rQxQkIdbdu2tX1NmjSxqGQvvPCCa9y4seM7UckwxyDfDtcSqhoTDcZYqVIl05xBBC644ALTfKBZIq8H13MtpJO+85l+M+4HHnjACA913H///UYKceRl7OT9QSMHibv33nutXcYIPrfddpsRnsGDBxfgR99jyV+y+Sluf0nuBbLR0wcFLMiDp11IhyiyE66JE9kJ13ypt0JACEQfgVCQHYIS3H777a53794Ok4KihNySCLhFXR97jCzle+yxh5s8ebKZhhxyyCFmokXko3333dccgglzjfA/bdo0E/LZP3z4cDdgwABHfhvOveOOO9wBBxxgZAdziLPPPts0JnyGSC1atMiRH4fwyBCFww47zEEwMG/Yb7/9kpKduXPnur///e+WbR1zs9NOO82NGDHC8m+cfPLJ7plnnjEiBZlasGCBO/jgg41ksR/H6GOOOcY9++yzrlWrVo7zqaNq1apGKhkX44XE4Atw3HHH2ZggB6xa4hvwhz/8wY4R/nvx4sWmvTn33HPdwIED7bq//OUvRpyoY6+99nJc269fP+szRI3zKlas6NavX29tQbqISgUh8hqf2PlI9XNJ7gU0VhCvl156Kfq/do0wlAiI7IRr2kR2wjVf6q0QEALRRyAUZAeTpzPOOKPAFKooobckAm5R18ceI2IXhAUTK0y4IAQI9hCYE0880aH9gHwhzB9++OFGCPbZZx8T4iE72HhjuobmB7KD+RfC/oUXXmjmbgj6O+20k5EG/h977LF2Lb4ymH2hPSFUcjK/GchOuXLlzMQMczi0L9dcc41h5evdeeedjZhByMqXL+/WrVtn/YA8onGhHUgk2hlM1Nq3b2+EBw0aZOfBBx90Tz/9tPXt//7v/4x8kdcD7REmYNT/pz/9yfIcUZcnOyRIxBcBx14w+Otf/2qBJRg/cwnO8+fPN8zAcdSoUQ6fg9///vfu6KOPtn7GzkU6n0tyL9A3SBgkUblKov/AC+MIRXbCNWsiO+GaL/VWCAiB6CMQeLLz66+/mhYBM6eSCLwlEXBLUg/nEPFtzz33tORxCMQI757sQEjQSGBeh9BPcr/Vq1cbGSALOmRnt912sz6jIfJkh/1oMDB1I98CpnnY4xOVBy0L2hyIE5oSiAbakaLIDmZu9A1tDf3API1odZijrVq1yjRSEB00O0ceeaSRNkgXZAdTPAgKWh7M8BKRnalTp5opGxontFenn3669Zv6IC4QLszhjjjiCKvLkx3C4KKVgug99thjhuPIkSPtmsqVKxeQneOPP940ReAKaYRgok3jf0nnKdl5Jb0XCMaALxjEVUUIBA0BkZ2gzUjR/RHZKRofHRUCQkAIlDUCgSc7OL2jJYAQJBNqY/eXVMCNvSbZZ3xMunfvbtoKfFMgFuPGjTPigBYF7QaO+bzc8G/B/wUCQUhjTLEwK6NuyAbmYZCM2bNnG2HATwQ/GkgGmp7zzz/fiANO+2hXIET482DmtnDhwoRjh2igfWnRooX5D0E60Aax4cuD+Rp+MWii0NTg10MwAfrBODp16mRaK0zS0AihHULLA1nCVA3ND21A1qgLMzv8lCAlkDGO4wNE/++8806rq127dkawCJqAHxDjZiy0Rf3klsBsDlyog34S5ACfHjAEZ/qJWVmyeSnp/pLeC9xjzB0aLBUhEDQERHaCNiNF90dkp2h8dFQICAEhUNYIBJ7sQHLwGUFQLomQW1IBtyR1LVu2zIRxBHk0LvjSYHpF5DJICUIy9RDIAO0AkcQgE2hI6C/mWRznfLRAfMasCzJCtDNMqDifMXIt3zmHyG9oiWiD89AesT9+g4hgmgYxgJwQ/c37NPGZejG/o17ahVT4PtM/2uYYwQCIJgcJwocFEudN9+g7hI5r6RPj4Bh94Xr2MR76SF1cCx4c51r6xsZn9tEuY+IzfWLc9MnjQp+pl+Ol3VK5F2bNmmUkDE2iihAIEgIiO0GajeL7IrJTPEY6QwgIASFQlggEmuwQmOChhx6yxHteiC9OAE5FwC2uLgR4NBr4pOy+++6mwYAQFHddpo9j3kb7sRs+MAQ4IHAA5CjTbUahvlTuBcz5CPYAYVMRAkFCQGQnSLNRfF9EdorHSGcIASEgBMoSgUCTnZ9//tnMozD9KqnwnYqAW9I60Xyw5YLolLSPOm9HTVCq90Lz5s3NbK8sf4BqSwgUh4DITnEIBeu4yE6w5kO9EQJCQAgEmux899137sorr0zJfyNVAVckYUeSEBVMUr0XpkyZ4q677jqHRlFFCAQFAZGdoMxEyfohslMynHSWEBACQqCsEAg02UHoxieFiF1EKNMmDLJ5DxDNjmSuCkFdVo8ftVMSBER2SoJScM4R2QnOXKgnQkAICAEQCDTZwen+6quv1kwJgTJDgMhyBEtQEQJBQUBkJygzUbJ+iOyUDCedJQSEgBAoKwQCTXbI7TJ8+PCywkLtCAELQU10ORUhEBQERHaCMhMl64fITslw0llCQAgIgbJCINBkh0SdJNRUEQJlhQBhxkmYqiIEgoKAyE5QZqJk/RDZKRlOOksICAEhUFYIBJrskLhz+fLlBVgQnY18LyTjZCO3zTfffFNwPP7D999/b2GZf/rpp/hD9p38MeR9iS/kgSmq3vjz8+k7OXGITJfLsnLlSptX3wdy45DbiH6VNrgASU8Jd64iBIKCgMhOUGaiZP0Q2SkZTjpLCAgBIVBWCASa7Jx77rmWpNKDQa6dpk2bWqLPK664wrVu3dpVrVrVIfwmKgjA3bt3t6SYiY4/8sgj7vbbb9/hUIMGDYxI7XBAO9yMGTMcwleiAung+OLFixMdzti+vfbay1100UUFhJTcOOeff77r1auX+/HHH0vVzvTp09348eNLVYcuFgKZREBkJ5NoZr8ukZ3sY6wWhIAQEAKpIBBosnPCCSe4f/7znwXjgexcc801BUSEqFn9+/d3Y8aMsXNeeuklN3bsWHfPPfe4Dz74wFb7PdkhR87UqVPdqFGj3IoVK+z8WLLz9ttvu3vvvdc98MADrlatWgVtFDSuD4aAJztEysPEEAzBdN26dQ6tz8UXX+x69uxpROTVV1+1ubnvvvvcJ598YlqXTZs22fygQVm4cKHNE1q0Bx980I0ePdqRQBVNHBo36h43blwBqfFTsPfeexvRXbVqle3asGGDq1ixot0LpSU7TzzxhBs2bJhvSv+FQM4RENnJ+RSk1AGRnZTg0slCQAgIgawjEGiyc+SRR5oA7VGA7LRt29a0MZASVuDRwjz99NOW8LNx48Zuzpw5DuG6Xr167vXXXy/Q7LDqP3jwYPfMM8+4unXrOgRkT3Ywj+vRo4ddN3PmTHfYYYeJ7HjQ4/57srN582Z30EEHmckX89C+fXsjJV26dDHSsnXrVle7dm03b948B7Fp166dER4EAYjN448/7mrWrOmWLFnibrvtNptTyE+nTp0srxLHIZ0QV8wRY8t+++3nBg0aZOQUs7W77rrLrhs4cGCpNTvcH9SnIgSCgoDITlBmomT9ENkpGU46SwgIASFQVggEmuwccsghjsSQvkB2WrRo4TBhu/zyyy0HD0QHgRetDQENfMGsCd8LNDvbt283wZzIbpMnT3aNGjUyLYAnO99++60J5v/+97/t8ksuuURkxwMZ99+TnbfeestIIYe3bdtmBBLSCKGEqEBwMDEEb8gnpmdobZgPtELMGQR09uzZlkcJrRrnQmbvuOMON3/+fHfjjTfGtf7fr/vvv7+R2r59+zruibPPPtuIaybIDiZ4BClQEQJBQUBkJygzUbJ+iOyUDCedJQSEgBAoKwQCTXYSaXZizdggK2gMPvzwQzdlypQC4RhBukaNGu7hhx824RpTOLQQmElBitAKPPfccwWaHYRvtD2e7DRp0kRkJ8kdGEt2KlSoYGdhMgh+sWQHc8Jq1aoZ3pCY3r17m/kgeZMgKMwR5m7Ud9JJJ5kGh7mBkEJgMSdD45OoQHYwkYMM0Q7nPfbYYy4TZEeanUSIa18uERDZySX6qbctspM6ZrpCCAgBIZBNBAJNdorz2YGkdOvWzUgMPh6YtM2dO9c0CZAdfHi8zw7aIMyTFi1a5Jo1a7aDGRvmU5MmTTKCdNxxx4nsJLnriiI7+FBBJPv06WPYn3feeTYfmBxeddVVlqzzuuuuMz+eiRMnuurVq5vfTufOnd2tt95qBPT666+3a4sjO++//74bOnSoO/300x3+VpkiO/LZSTLx2p0zBER2cgZ9Wg2L7KQFmy4SAkJACGQNgUCTHYRlHNp9wXeDVX80ORS0A4SJxlyNzzisIwDj50EYYjQIrNR/9913FugAcyqOo9XBkZ0w1viMUPBBwfeERKbU59uwg/pTgMDGjRsNPwI++KhlX3/9tZFE5gA/KUzSIKJr1qwxvDlvy5Ytpvl58803DV9IKQSTEOIENkAzB1GCbKBhYz783BQ0/tsH5hDzRs6BSNEu9wlhyiFcpSlEY5swYUJpqtC1QiCjCIjsZBTOrFcmspN1iNWAEBACQiAlBAJNdtDAxObZSWlkOjlwCKCN6dq1q1u9erV75ZVXzHcKE7ggFYiO8uwEaUbUF5GdcN0DIjvhmi/1VggIgegjEGiyg08G4Y1VooEAWhfCfhOY4JZbbnHr168P3MAITrBgwYLA9Usdyl8ERHbCNfciO+GaL/VWCAiB6CMQaLKDSRkO6ypCoKwQwLcIrZOKEAgKAiI7QZmJkvVDZKdkOOksISAEhEBZIRBosrN27Voze/JgEO0LnxC0A2z4f7AvEwUflNgEpkXV6ZNexud/Keoa/Eroc3x/CYtNws2wFPxrCAaRy/Liiy868vj48uuvv5pPEP0C59KUCy+80AIplKYOXSsEMomAyE4m0cx+XSI72cdYLQgBISAEUkEg0GTnm2++cZdeemlBSGgCDjRs2NDVr1/ftWnTxnLjtGzZ0mXC74OElmiSSiIsI/APGzbMgiCUFGwCIuy0007u008/LbiEtohKRrthKT4aW6L+QjpIykqummwWcvZcdNFFjvxIlC+//NJCjWMeB87pFkgniU5Lcg+k24auEwKpIiCykypiuT1fZCe3+Kt1ISAEhEA8AoEmOz/88IMjrw4aHApkhzwthJT230ku+vzzzzvOxb8H8kCELwqr/0T9IsEl0dnmzZvnHnzwQQtNTVQxIoAhvKNt4TjR2RCgZ82aZQkuidrGMSKzkbMHUoKJE9HC0DoREYyNOohAtmzZMmuXhJtEgaMvOLsjRMeSHbRItEF0OBKhhpHsMG4ipxHymbGjcWN+yFFETh1wBE/CeYMBJA8SQQQ1cGdj3sDWY+7nDswhsNQNNp7UGLjOub333tu1atXKAh2wj7ZPPPFESxRbGrIDUUNQURECQUJAZCdIs1F8X0R2isdIZwgBISAEyhKBQJMdhN4hQ4YUOIwjTONTgRbm448/NnKBcI1ZU//+/R1Cwfz5800QhhBBUMi9M2rUKAtLTShrn4i0adOmRo4aN27sli5daqRo5MiRbtq0aZab58knnzSihZnZ4MGDTZOD8E19COII9AjuBFEgrwykqlGjRm7lypUm/KNxog6OE+HLkx36TTskwOQ4ZlNhJDuM/ZBDDrHQzyNGjHCXXXaZIwQ1+YzQekE00cBBBEnmyn4ID9oXSB5kr3bt2hZeul+/foYnc0c4agglRKpWrVqWk8cne/U/jP3228/wg0hBoJgf6i9tUtHWrVu7p556yjej/0IgEAiI7ARiGkrcCZGdEkOlE4WAEBACZYJAoMkOCMyePduEZUykIDt16tRx5cqVc0cddZQ766yz3NSpU02rs/vuuxsx4nvbtm0t2Sg5WBC8IU1E/mrXrp2RDgRwhGME5dtuu82Eb7RC5G+BIFE3uXrw4eGcO+64w9qF0OCnA2Hp2bOnJSbdZ599TLtDXxG+Ca08duxY+8y1ECkID5onzNjQQpDoFO0Px9GKhJHs0P/y5cs75oWQ0nXr1jWcIR6PP/64jQtyiQZn8uTJDtMzNGWMHbMzxo5QAO4kjwUHP3eQR7RwaL2oP77sv//+pvXp27ev1VWlShXTHpWG7DCvBx98cIHJZHyb+i4EcoWAyE6ukE+vXZGd9HDTVUJACAiBbCEQeLLz8ssvu1tvvdWITrwZmweFgAG77rqrkR20BmiDICaQHUgLBbJz5ZVXmvAMgULopkBkICme7GByhlbh2muvdWeccYZpjdBSoPGBLFWoUMFM2CA7aI/23XdfS1pKXQj2aJ4gO5jLUcgThNDuyQ6mXbSNZgSBnz5CBsJSIIoIX5AdsKCg6YonO2PGjHHVqlUzIol5GpowsMAM0ZMd6iGJZ8WKFd24cePsXAgniWOZA4hoogLZQfsDicREEW0RWrfSkB20bB07dkzUnPYJgZwiILKTU/hTblxkJ2XIdIEQEAJCIKsIBJ7sQHB69Ojh3njjjR18dmKR6dChgwnHaFIQqElcmQ7ZgQghPBM5zZs1IYgjVOMLdMwxx5iGArKDL1Hz5s1NI/Tss89a8ASE5qLIDsRgwIABdg0+PgRgCKtmJ57skEdn0KBBZlK4Zs0aV7VqVTPVQ1vWuXNn99FHHxmJBEu0ODVq1DCTRLRs5Ldh7hAU8IcqjuygTUKLBCFlHkpDdtD8QUDxIVIRAkFDQGQnaDNSdH9EdorGR0eFgBAQAmWNQODJDtoPtDP43eC7gYlUohDR+IOg1UEAnjNnjp3L6j9CNwXTM7Q91IcpGaSEgmkVGhoCFkA+CB6ASRVaArQORIR75513zHeEuvHpQDNBAAKistEX+oc2iWP45qxatcqtW7fO6iccMpoKBGq0G9999531BYLDNQj9aK/CUtBM4TPF2JkTCsEK0GqBLePGRwmMwJMxQv42bdpkGHA95+KzQ3AJCCRzg/YHogRpISABBAYCmahAFmmTOpkr2mX+qAvClWqhHsgYPkcqQiBoCIjsBG1Giu6PyE7R+OioEBACQqCsEQg82QEQtCFnn322+cuUNUBqL3MIQPwgFZBQCCfBHrZt25a5BtKoCaKEGeH48ePTIkppNKlLhEBKCIjspARXzk8W2cn5FKgDQkAICIFCCISC7NBjVvNxXE/ksF5oRPoSWATQuqB9ue6668ycDdKT64KPFmaSXhOX6/6ofSEQj4DITjwiwf4ushPs+VHvhIAQyD8EQkN2MJsiTLPPsZN/U6URZwMBzAnxFyKAhIoQCCICIjtBnJXkfRLZSY6NjggBISAEcoFAaMgO4ODDQR4W/DVUhEBpEXj77bdd5cqVzUyytHXpeiGQLQREdrKFbHbqFdnJDq6qVQgIASGQLgKhIjsEKCAMNVHW0nFETxckXRc9BAhoUbNmTQu2EL3RaURRQkBkJ1yzKbITrvlSb4WAEIg+AqEiO0wH+V3IlzN//nyLwhX9KdIIM42ATwpLLiAVIRB0BER2gj5DhfsnslMYD30TAkJACOQagdCRHaJnkSCU/DSEOCbUs4oQKCkChBYnIMHw4cMtxHVJr9N5QiBXCIjs5Ar59NoV2UkPN10lBISAEMgWAqEjOx4I/Hbatm3rSEi5fft2v1v/hUBSBJYsWeKOP/54I8kKSJAUJh0IGAIiOwGbkGK6A9nZc8893T777KMtixiQ105FCAgBIVASBEJLdhgcCTrR7tSvX9/CUpNwdOXKlW7t2rXahIHdA0uXLnXTpk1zHTt2dE2aNHGvvvpqSX4XOkcIBAYBkZ3ATIU6EhAERo4c6ebNmxeQ3qgbQkAIBB2BUJMdD+6HH37o5syZ4wYPHux69erlevbsqS0JBqeddpq74IILCuFz4IEHFny/8cYbLYErxCAKON5+++2WMBQSLG2O/8Xof5gQENkJ02ypr2WBgMhOWaCsNoRAdBCIBNmJznRkfyQEdmjdunWhhipVqlTw/eeffzbzwE2bNhXs0wchIARyh4DITu6wV8vBREBkJ5jzol4JgaAiILIT1JnJYr/OPfdct3nz5oIWYsnOc889Z35QBQf1QQgIgZwiILKTU/jVeAARENkJ4KSoS0IgwAiI7AR4crLVtXvvvdeNGDHC/frrr9aEJztoderUqePwc1ERAkIgGAiI7ARjHtSL4CAgshOcuVBPhEAYEBDZCcMsZbiPb7/9trv66qsd+WYonuysWbPGnXPOOQrnnWG8VZ0QKA0CIjulQU/XRhEBkZ0ozqrGJASyh4DITvawDWzN3377rcNxn1DMFE92unbt6ubOnRvYfqtjQiAfERDZycdZ15iLQkBkpyh0dEwICIF4BER24hHJk+8zZ850Q4cOdZiuQXbeeecd16hRozwZvYYpBMKDgMhOeOZKPS0bBER2ygZntSIEooKAyE5UZjLFcWzdutVddtll7ssvv3SEo548ebIbO3ZsirXodCEgBLKNgMhOthFW/WFDQGQnbDOm/gqB3CIgspNb/HPW+i+//OIQokaPHu3Kly/vunTp4lavXp2z/qhhISAEEiMgspMYF+3NXwREdvJ37jVyIZAOAiI76aAWgWu++OIL16ZNGwtI0KJFC3fyySe7GTNmRGBkGoIQiBYCIjvRmk+NpvQIiOyUHkPVIATyCQGRnXya7d8Q44n9AAAgAElEQVTGilZn4sSJbsCAAeazw+633nrL1a9f33322Wd5iIiGLASCi4DITnDnRj3LDQIiO7nBXa0KgbAiILIT1pkrRb+//vprd+edd+5gtta3b183bdq0UtSsS4WAEMg0AiI7mUZU9YUdAZGdsM+g+i8EyhYBkZ2yxTsQrX3zzTdGdlauXFmoP7feequbPn16oX36IgSEQG4RENnJLf5qPXgIiOwEb07UIyEQZAREdoI8O1nq26+//mrR1yA3P/30k7Xy+uuvu1q1ajly8KgIASEQHAREdoIzF+pJMBAQ2QnGPKgXQiAsCIjshGWmMtzPr776yvXp08eCFDRt2tS1bNnSLVy4MMOtqDohIARKi4DITmkR1PVRQ0BkJ2ozqvEIgewiILKTXXwDXTuBCjZv3uxOPPFEt337dvef//wn0P1V54RAPiIgspOPs64xF4WAyE5R6OiYEBAC8QiI7MQjkoffK1WqlIej1pCFQDgQENkJxzypl2WHgMhO2WGtloRAFBAQ2YnCLJZyDCI7pQRQlwuBLCIgspNFcFV1KBEQ2QnltKnTQiBnCIjs5Az64DQsshOcuVBPhEA8AiI78Yjoe74jILKT73eAxi8EUkNAZCc1vCJ5tshOJKdVg4oIAiI7EZlIDSNjCIjsZAxKVSQE8gIBkZ28mOaiBymyUzQ+OioEcomAyE4u0VfbQURAZCeIs6I+CYHgIiCyE9y5KbOeieyUGdRqSAikjIDITsqQ6YKIIyCyE/EJ1vCEQIYRENnJMKBhrE5kJ4yzpj7nCwIiO/ky0xpnSREQ2SkpUjpPCAgBEBDZ0X3gRHZ0EwiB4CIgshPcuQliz0gSHfXtpJNOcuecc07kxxn1eczV+IL4u1WfsouAyE528Q1F7SI7oZgmdTJPERDZydOJT3PYBx10kNu6das2YaB7IME9cOSRR6b5y9JlYUZAZCfMs5ehvovsZAhIVSMEsoCAyE4WQI1wlQcffLD717/+pU0Y6B5IcA8cffTREf71a2jJEBDZSYZMHu0X2cmjydZQQ4eAyE7opiynHRbZEdET2U1+D4js5PTxlLPGRXZyBn1wGhbZCc5cqCdCIB4BkZ14RPS9KAREdpILuiIBwkZkp6inR3SPiexEd25LPDKRnRJDpROFQJkjILJT5pCHukGRncQC/QEHHOCuueaalE27LrroIsdWGqJ0wQUXuOuvv959/vnnO9Tz5ZdfuqVLl7oXXnjB8bk07SS79u2333ajR4/OSt0tW7Z0559/vvvss8+yUn+yMaW7X2Qn1I+3tDsvspM2dLm98KmnnnKZ2kR2cjuXal0IFIWAyE5R6OhYPAJhIzsI+C+++KLbtm2bCfsrV65077zzjvv000/dK6+84hYvXuxefvll98knn5gw/cEHH7gVK1bYNZyDkL1hwwa3ceNGIwzvv/9+QqE7luzQFu1Qz3vvvWfn0w/qWL58ubVPnz766CM3ePBg22j/1VdfdZs3b3bLli2zvtF+MqGbflA/fa9Tp04B2aENyM2qVavcxx9/7NatW+dOP/10d9NNNznG9uGHH1rfID9vvPFG0vppFxJDX6iD/tMm/abef/7zn/b59ddfd2eddZY799xz3Ztvvml40Sf6wFi4DgzWrl1rfX3ttdcc16xfv97GCx7URXvvvvuutUff/LUiO/G/QH0PIgIiO0GclRL06c9//rMbNGhQRrapU6eWoEWdIgSEQC4QENnJBerhbTNsZAcSceaZZ7q5c+ea5uMf//iHGz9+vHv00UfdhRde6Fq0aOHq1q3rpk+fboSnS5curlatWq5mzZquf//+Rkwuu+wyh/akatWqbtGiRQkJgic7b731luvWrZsJ/zVq1HBXXXWV1fHSSy9ZHWhx2rRp4ypXrmyCPcfZIFSXXHKJa9WqlWvWrJk777zz3NNPP52wLUgL5IX+tG3b1h166KFGdiAUtMm4ODZ8+HD38MMPu3333dcdf/zxRrT69u3rateuXTDGTZs2JWwD0tSwYUMjUowd/CBQ9erVc5MmTbL2GzdubFhyT/ztb39zo0aNclOmTHHVqlVzDRo0cK1btzaiNHPmTHfqqadamwMHDjR8wLd9+/bu5JNPdrfeeqsRnR49ehhGtNGxY0cHliI74X1W5FPPRXZCOts8vFSEgBCIPgIiO9Gf40yOMGxkBy0Ewv60adNM6/C73/3O9evXz1133XWuXLlyRmhmzJhhWpf58+c7Qms/8sgjZpa15557uiVLlhg5QPCHsKAZSaRt8WRn4sSJrnz58kZkIAjk7Ln//vvNxA0NCJqSPn36uL/85S9u4cKFZsIGOaFuiBiLjGhSICdofRK1xblHHHGEoy3OPfzww43soFm55557TFsFgYPwQKLQ7EAo6PuCBQvcE0884e666y4HFvQxURs9e/Z0hx12mGlvrrzySiMl27dvd7fccovhBjb33nuvaW2w3oDgoM2qXr26u/baa41YQZJI0Eo/DzzwQDsfbVGjRo2M7KGZatKkiTvqqKNMazR79myrY8CAAe6YY44xrER2MvnrVV3ZQkBkJ1vIZrlekZ0sA6zqhUBAEBDZCchEhKQbYSM7COiQHSwM+OzJzvPPP28an7322svtt99+bujQoUYudtppJ4dlwz777GP/H3zwQSM7d955Z0JS4ImCJzsQGbQYmG+hmcDErFevXqZtgdRgmgbZSER2KlSo4J588kkjZSQ1RbPk64/9D0mAUGGCx34IBj47mJhBqCA/EDk+b9myxbRMaF2++OILIz2QGEgYWKB1ia3bf0YDtfPOOxt2e++9t+HB9ZA/rme8mOtxfpUqVUzjQ/toanbfffeC6yBNkB3GtmbNGjsfsgMW+BihzUEzBVFDqwYpom+MAVM4kZ2QPBjyvJsiOyG9AUR2Qjpx6rYQSBEBkZ0UAcvz08NGdhCo999/f9NIQFwQ4CEkmLGhQUDjgwM8JlloFhC2MXN74IEHTPuBZgSzr2RaFk8OPNmZPHmykQFIBEJ+xYoVzZQM4nLcccfZPkzPEpEdjqN5wU8IApGM7ODbA3mg/5x/yCGHGNlBowIxwd8WQoH5Hglg0bpgWofJGsQO8jVu3DgjO2i1/Bhi/992221GmCBfaGcwT8NnB/MyTPDQgHXv3t20ReB3xhlnmKYKrDgHcz8IJAQHszfGho8UbdA3yBTkiT5DdsAeAoc54YQJE0R28vw5E7bhi+yEbcZ+66/ITkgnTt0WAikiILKTImB5fnrYyA7CNdoDBPIbbrjBtCAI35AEfGSaNm1qvimYrmHy1rt3b9PGoJHB1AuzK6KsIezHkoH4z5hsIdyjSbnjjjvMhAzfH+rDQR+H+yuuuMLaxCwMsgMhwJyODad9fHUwc4OgcS7mb/Ht8J3ABrTFmNq1a+eaN29u/jKQnLPPPtt8ZfCHYXyciwkb5OmZZ54x/yBM3NAEcS7jTtQGmpYOHToYFmhhICNodTA7w5fovvvucxdffLH1d8iQIabR4T8kEuzw2aEPEJw5c+ZYH31ABPyNGDParxEjRlg9mOP5Pnfu3NnmhOAFkC6+J4o0l6jfud6naGz5+YAU2QnpvIvshHTi1G0hkCICIjspApbnp4eR7EBiICH4rEA8MGdDq4CmAjLDPh/amIAGnItGhH2cR7QwrilKkKYOiAXn+Dqox1+HLw3aDDQp+L2gGYEIUDcb7WAW5vtBEAJ/baJ2fRuMgesZI3UQ0Yy+s48+QSjoFxHouIbPHgvO5bpE9bMPvLjO18P1tAfxYON69tFPzvPj4Hz/nfY5h7HRP+rlPDY+0x/q5Dz2cR1j91jQB74n62PQ9ovs5OcDUmQnpPMushPSiVO3hUCKCIjspAhYnp8eRrKTKYEYfxu0KDjUx25oWYrTPKApQRODv8uRRx5pWqPi+kUIZzQysW3xeezYsRkT/gmSgElcbBunnHKKaaKK65+O75hzSWQnPx+QIjshnXeRnZBOnLotBFJEQGQnRcDy/PR8JjulFe7R2sRqgEpbn67fkWzkGhORnfx8QIrshHTeRXZCOnHqthBIEQGRnRQBy/PTRXaCJ2DnWsBX+/+7J0R28vMBKbIT0nkX2QnpxKnbQiBFBER2UgQsz08nXPEuu+yiTRjoHkhwD/D7UMk/BER2QjrnIjshnTh1WwikiIDIToqA5fnp5G9REQJCIDECJIZVyT8ERHZCOuciOyGdOHVbCKSIgMhOioDl+ekiO3l+A2j4RSIgslMkPJE9KLIT0qkV2QnpxKnbQiBFBER2UgQsz08X2cnzG0DDLxIBkZ0i4YnsQZGdkE6tyE5IJ07dFgIpIiCykyJgeX56PNn5/vvv3caNG923335bgAwJNMmfkk75z3/+45YuXep+/PHHQpeTh2XTpk2F9ulL5hH47rvv3IYNG3bA37f066+/up9++sl/DfV/ciytWbPGcQ/7Qs4fErvGFxK2kkyVxKyvvfaa++GHH+wUsCJXkS8iOx6J/PovshPS+RbZCenEqdtCIEUERHZSBCzPT48nOyR/vOaaawoRkVtvvdU98sgjaSEFyTnmmGMsEWVsBS+88IK74YYbYnfpcxYQIKlnhw4dLFFoourXr1/vBg4cmOhQ6Pb179/fcgyR3JUCgbnxxhst51D8YPbee2/Xo0cP16tXL9eyZUvXokULw6hjx45u1qxZBaeL7BRAkVcfRHZCMN0rVqxwnTt3LrTtvvvuhb7fdNNN7o033gjBaNRFISAEUkFAZCcVtHRuKmQH4XHixImud+/e7u677zaNwFdffeWmTJnieKfcc889Do3NW2+95aZNm+buuOMOt3LlygKy88UXX7hJkya5W265xfXr109kpwxuv1iys2rVqgL8BwwY4D788EM3ZMgQV7lyZff44487kqyOGzfO9ezZ0z300EOmDUIzxLxCCsaMGeOWLFlivV69erW77bbbXJ8+fdzWrVstKeqTTz7p+vbt6yZMmFAGI9uxieHDh7uTTz7ZTZ8+3Q5u2bLFderUyZ100kk7nEwy2E8++cT2//LLL65hw4Zu8eLFTmRnB6jycofITgimnRj5ZHeO3f72t78V+s4DkIeYihAQAtFCQGQnWvOZ7dGkQnaef/55d/XVVxuZufzyyx0C7+TJk43UQHAQNkePHu2eeOIJhzXB/PnzHQInmh1Mg6ZOnWrCMO8mtA3S7GR7dp2LJTtDhw51bdu2devWrXOtW7d2Y8eOdfPmzXNXXnmlaTVGjRrlBg8ebPPbtWtX0+ZBaq+99lozbezWrZuRWkwcL7roIsf9sGDBAlelShWTLxo0aGBEB4KbizJy5EjXvn17I2u0j/kkfT///PN36A73PTh88MEHRvTOOussG4PIzg5Q5eUOkZ2QTrvM2EI6ceq2EEgRAZGdFAHL89PjyQ7CH4QmVvOPJmfGjBm2Dy0AWgEERTQBCMDXXXedaXzQ5HTv3t20AvXq1TNkvRnbu+++a1qAZ5991vZjgSCyk/2bL5bsQGbGjx9vjaKNQ8P23HPPmakX89S0aVPbh/YOTR3mjM2aNTPNDRdBjDB5QwsEOeA8tlNOOcXNnTvXSBPaolwVyM6IESPcJZdcYj5njJX+1axZc4cu7bbbbu700083rRZaHa+xEtnZAaq83CGyE9JpF9kJ6cSp20IgRQREdlIELM9Pjyc727dvN7Kzdu1aQwbTNcjPokWLTDuDUzfmTNWqVTMtDn4Pt99+uwm7mK5BimbPnu0uvfRSu96Tnffee8+0OjiEU/DZwZ9CJbsIxJId5g3hn8Jc8azAdIt5YJ6aN29uZAZSg7nhzJkzTQOEXw+FecUvBs3deeed5x577DGbd2+uCPGNde63i8rwD2QHkztM8zDHQztFwIJEZCfWjC22iyI7sWjk72eRnZDOvchOSCdO3RYCKSIgspMiYHl+ejzZQejFHK1du//P3p3HSl9X9wPPT+uKVRFFFkHgYZV9kX2Vpew7Ao/IIiLgghBCBUVRaY3FsrSoqBSlsggUEbTWusUQlyjRYqhibZvWVNumrSaNJv2jTTO/vI49j99nmHufmbn3zny/M+ckc+/Md/ks5/OZ+Z73WS/o3XPPPSHcCt4GVr7//e/3uK8Rds8444ywErAQiIsAYiQy8Jnmvx/sEIIJzwRQ5wnWZdlZ+c23LrDDwnbKKacE+OSCCLBwTbPOYnAE659++ukRo+U6vy9ir7ixAUTic6w118S2gB3ZA1etWhUWSBnaCuys/D6btR4K7HR0RQvsdHThatjFgRE5UGBnRIbN+eX9YAc7/uu//qv35S9/OWJxbr/99h4XNCmkpSh2/P3vf38Iwj4DR1zTBKYDMe51fVpwBH8DTY67loXI/YRsr6KV5YAEElzV8J+F5oc//GF0KO232BqWOxYb6/WrX/0qXNVuuOGGiHexvuJz3PepT30qQLC4H3tBLBZwxFL0i1/8ovfLX/4yANM0Y4G5Vpqf8YkP45Jp/ixV/eR8M0V1nscrACmpsrElJ+brf4Gdjq53gZ2OLlwNuzgwIgcK7IzIsDm/fBDYmXOW1PQbHBAD8/u///s9bo0scaw980QFduZptX8z1wI7v+FFp94V2OnUctVgiwNjc6DAztism8sbC+zM5bIPPWmpxFl1ZGnjvjhNy83Qg17GCwvsLCMzO9RUgZ0OLVZzqAV2mtyo98WB2eVAgZ3ZXduVmFmBnZXgarU5KxwosDMrKznaPArsjMav1lxdYKc1S1EDKQ6sKAcK7Kwoe2eu8X6wI4bjr/7qryLOQ6Yur8cee2xgfMNKMUP64n/6p3+Koo9qpRjDN77xjd6//uu/RjzGuP1KL/y///u/a24X2yHxgpiTYUg6bjEgTfrpT38axTmbx9r0XqyO+BzxUrNOYsXE7djDSfaSjGzjUoGdcTnX7fsK7HR0/QrsdHThatjFgRE5UGBnRIbN+eX9YEdQt+xbijOqn+N10003DQQEgtJl4yJMLydJisBtSvY29VyMQaavI444ovd7v/d7Y3UF2Bx33HFrCcL/8z//Exm7ZB8bhvBEIdUmqV2T6Zybx9vyvpmNbdCYfvCDH/QkJJgFkhZ7p512iqyB5gPgXX311b1tt9127OkV2BmbdZ2+scBOR5evwE5HF66GXRwYkQMFdkZk2JxfPgjsKCbZLCqKRTJzATYsGdJIE/BZXNRbUd9E1rXPfe5zUTgUWJHp6p//+Z97Dz300Jpiog8//HCkMFakFMAAQAjjMnwBMffee29kBGuCnTe/+c1rVoiF6WUve1mkPlbjRVY3Y5A9S7ps9V5Ygv793/89ssYZA0DDKiR7GKHe57/927+NPhVHlQrbWAjGf/qnfxpjvf/++2O+5mksrgMCE+yIW/noRz8a/UvRrbZLW6kJdiQZUF9H5jz8Mj8JCA455JCe+kk///nPI500Pko5bc1ZhvBFkgK8+OY3vxlT1Rb+A6WsYyxeMvX5/IlPfGIq7ADKd9999wDJBvCP//iPkRZ9t912G3s8BXbGZl2nb5w62PHFtXHrNRoPnvGMZxTPlrhvPOSLigNt50CBnbavULvGNwjsvPrVr+698Y1vjLo5aucQfAn4KtIrIvqOd7wj3gMZ6rFIPQ10nH322eEyRJgGaICT448/PoTfb3/7272TTz659/GPfzzAx5FHHtlTD+XCCy/s/eVf/mWkQT7//PMjzXET7DgPNAErBG7FTN13wgknROHIv/7rv46xqu9DED/66KMjvfVFF10U9xHgjYV70/Of//w45jsC0LjeOIAdQr/iqd/73vfCivTII4+EO99BBx0UYybMJ9gh0F911VU9c1J75kMf+lC7FrUxmibYAQbOO++8sE6dc845AV6BUYU0gTmFOAEYvAIyWdbU0rniiiuCF/hj7e2F0047LdJV4xOLGwB56qmnRjpqgHMaBHTbQ9YXKVx75ZVXxp4ZdzwFdsblXLfvmzrYkUP94osv7v3nf/5nvYoHE9sDtHceGkXFgbZzoMBO21eoXeMbBHbOPffccF277777el7qsbB8qLly4oknhlDrGfwf//EfIVhyhQIE/E4SjllQtMvlixuRIpRAx5ve9KY1NUwUKgUs1HZ5/PHHw+LAwgBANMGOSvd77LFHb++99w5BVgwGwZpbGwHdmAAWFggEtBDq//AP/zBAFpnBtVzunv3sZ4fQLoWy+B9Wnj/4gz8IsLPnnnuGVcf4XW8urBdAX8aAmKPx7bvvvnG//rLWTLtW9TejaYIdLncADQIOARd1Zd72trfF+ioOeu2118YaXnPNNQF4AFhAE6lXg1/qKR1wwAFxHX5RPgM9l1xyyVTjl4Ad6w+A2g+sb6xug4qKxoSG+FNgZwgmzeAlBXYKYEwMYLQJ0BbYmcFfsxmdUoGdGV3YFZrWILAzyI1N99yegJTVq1dHAoF+sEMRqUAltyduaYDBddddF88MYIdlgGsReu1rXxsWIZYh4MM9LD+AVRPsNN3YkgXADgHdeIAY1hygBwE5hN4nn3wyrD/ea5vLHLADWLHKsBb1gx0WG+PnrifdMrAD+HDRQ8CO8R144IHhuuXYBz/4wc7E7DTHyp3NbwWLXIIdwEbcCx4ACSw71gmYRaxAXPqAHcDUeVY/bm8KxOKVNZkWWWvjBsgAHS6KrIsFdqa1It3tt8BOgZ0CO939/tbI54ADBXbmYJGXcYqDwA4XJ2BFXI4XwVjGskxWwELAtQnYIVByTfvSl74UVh8aftYB1hWWHWCHC9ggsCPG59hjjw3LSiYjIHyPAnZkV2NREIPywAMPhJUHoAFQgDIuVlyQE+ywDBkfwZhQf8wxx0T/4obMWy0ZYE/8ySCwY06sORRg4oZYutJasozLsmxNNS07g8AOkMIlzX88scbmDmQqIMqyh4/icLg3+n2xlieddFJYh6y985JUtAXsGIukBPYwV8sCO8u2neamoQI7BXYK7MzN170m2kUOFNjp4qpNb8z9YIdbGeAhPod23OvOO+8M1zGCrXgNLkKOcQVj6aDd5+YmBgZoADq04zwh2jnJArhMZepmgrTz0gJzeyNUE7JZZJ544ok4/uMf/zju6eeOQpfiMYwFATPcqQjrBN1ML82FDfgCdJDzrDn6NRfCv3gj1ibjE7vDuuO/ObJSSFed9wvid69rgSKgD2ASN9RW4iEBiOIVEJhjxWeJG8wT783NteaDB9bCPFnOWEcAXuvEcoYfEliYv/3BSmZdAdVck2nwQ8p0e8f6A+kSJ+Scxh1PubGNy7lu31dgp2NgxwNg00037Xk4DOsWpr6B9I38c4e9Z9avKze2bv9wzdPoC+zM02ovfa79YGfpLVYLs8QB4IbrGlc27oascfNEBXbmabV/M9cCOysAdmifaFhoRWhVaKaABwDlK1/5ShxzjWO0KY8++mj84DhHk8bUTntFM0Nb4z1NDlOzY/yM3cuc7RwtDk2N9mmuaNik/MyUnTRXfKtp7NwnM4txaUtKT+06R4viXqCIZiyvpdVj3s9jjnf91WWwYz1p4Oo1HzzgssEVpda73eud1oLfPF6n867AznT43pVeJZcQ8/Te9763J3V4xkZ1ZfxLHWeBnaVysJv3F9hZZsEd4OAusMsuu0RwpgwnAgKZ75ncZaD5nd/5nUidKCiT6X3HHXeMQmuXXnpp+A2rcwDQbL/99lE0jS/tNttsEwBFxpXtttsuTO+0MgJA+SUffPDBAW5obRRt06cUm7Q2LDuyzQAy3A722WefuF62Gr7MzvORdr2UlcbOvA2kCdw888wzw09aZpeug5wcf5fBDmAqO42A23oVD2oPTH8P+M1MV6tpiwIFdqa9AtV/mzlQYKfNq7NyYyuwswJgB+DYcsstI70jq42HD2vJ8573vDAb8zsFcN797neHj7GiakzKag0IjhQgykKz1157RQEt6Tif+9znRlpJWWXUFmBlAXAAJ1YcftI0NsCPgqPSNfKt/rd/+7fwc91iiy0i84qUnq985SvDJ1dbstkYG0ADILle/z7T+jzzmc8MAOa9dJUJFrr+v+tgR/ahrq9Bjb/7FtJaw1+v4eGHH95asCPN8ve///3wIPA88pIiWvzGpIg1WhyOBAi8F4whn09LsYiJ82mCTG1R3nkWros8Q5Mf+R+fMi11//3iY5Yy1v72xvlsrjw6eGM0ybFxsqaZj5iYcedF7mjeS0HaJHE/Mvg1rUdiiniXUAwjiTJ+8pOfrLWO2QZZSUySGLEke8n+HZcK7IzLuW7fV2BnhcBOAgquYTvssENYcP7f//t/AURYVnbeeefIICOgktXFD68vPLDDvOzHGpjhr0+gePGLXxz1DRLseGjIpsIaw+qz9dZbBzjhmnbYYYeFVQjocb0fjAQ7vuhnnHFG/NAI2nzOc54TgX/ADUuRHyB9ugb44v6mJsLGG28cfQFesyDgFNgpQXsW9nHNoR37uM1gx2+27Fw8ACiyvBSaJGT2k+B1Aer9Qmv/daN+bmZj8/wzBt4EnnHSCo9DhGwFSZvgRLIC8Siebesi6ZaNgwIwx0RJuBBQ8kyfJEAcNH4Z6XiOyIxnrshvwOmnn76mds6g+xY6pg3Z7Zo8XOja/uOAoeQVSBIDCR6aVkWFZRWKVbRWQVgyjv0l0xsvFu652jB+7TjfT9JmizcGjtB///d/99QLIvOMSwV2xuVct+8rsLNCYOeFL3xhuK3JV8+Kw31s1113DTAj641aBDQewA7AAugk2FGtOsGOImF+DPrBjmwpKmGrQO2HQtICDzA/glJMSqUJpCj61gQ7zgE+UmsqNOfHyTiAHbn5gR19Ajuy1vhhkgJUlebf/u3fDi3LLAhYBXbaISTOwl6qOdReajvYGVRnh6DrWeRZInbzrrvuCldowq/nA8GawCqTF/dpgj6tOpDgmJhQrtHaIJSKOQVACK0f+tCH4rkkqxutfhPsNOvsSPtMKee5o11gg7VGG4R67tQsQJR7nkeEcm+BALYAACAASURBVONyn+elODbzYNkwZs8qcwV2WAPEsxqrmFOCsnmai36krEY+87JIcp9YWH2LbdE3AnYI9RSKYmTxQyyt569MYa5jXeE6LpEQD48U0rPt5fjPmuK5nqAMX6688sqYH9f45Js54xV+3n///WvmzJODnOAYvltvvDdf95gjPjuPd/jKkmRNrDeZA/+1YQ8gawSEUIoi1hsyjvnju3bU9JEBjleCfcJbROprxBVXP/2kD3KTfYSsOZDs2LhUYGdcznX7vgI7KwR2WG4uvPDC0BoBHh4SYi0U+eJ6xooChPgBUN/AA4cG7p3vfGc8dPwI0Yj40SRM0dx4YPgRFsPjx4f7Go3dcccdFxoqyQyAqlNPPbV3/PHHR3VqfWqbixpTvYeCHyUPZ236sXYewFK8S7/6ZF1i2QHW1E1gcfKAoA2cBeGuwE4JqCu5jyUn8R303RqlH985GnhpYke5r3ktdxvWYt/t5vHmewIQ95XmsXo//nei7WCHMkvNFHVKvAiahFrPJs8itXO8F1sqXhTIIcgqOOo/MOAZQcinrWf9kYRH7KDnBqDjuaYGCmHUc8p34Pzzzw8FWRPseC4CGgRXArZilunC7Rlj//Io8BySRtrzzX8FTn2fPIMo+lgFXvCCF0RbPhOkXcdiAOwAXCw33OYAIJYHnhasSTwe7HfUD3Yk5NGXZyerEwAFUHErl8Lb2DzPfYfw1HMVP/CQ4pAwDfA4pl+AYzkJeBRba/7GhWeACQBhbPfcc0+smZhciZCMATgyduCPMtM4jRdQBXY8762h9XIPuURSFKDGvQBdWmqAYnPWjnVD5AbyCysMAvqMEbhEQGOuhz4Rt/itttpqzXsWtn4S50zRqi9kz5GLWPTGpQI743Ku2/cV2FkhsOMH1Q96CRDjCxArybsCO+1cl5Vc82ybsOQh7DPtaP97cWuUCXm993nMQ91x99Dk5r15bf4nTIrFEz/gmD614fpsw3+fsy3t0Z5effXVIaAZm2PN/rP9Qf+zD0LY0572tKiNkn0QPrTlM+F1ww03DIHU52zfOPQ5qO06tvj3pe1gh7ILsAAIvAAAFgyCM/ACtFhje4QbsxhSoMfvJHdpmnneA4RfHgD2iX3zxje+MQAOMQgwEkuhXYo3yjjPQYJ1E+zwJiBwUgjyHABgWCQABwIzEEbw9R8BG17GD5jIYEqA5xIl5hSAAdg8bwn/PByAHcI+gGb82ubJINOpMTfdtppgB2DgcsV6ggj+PrPiiJXlhaE/sTPGg0faZ2GSwAdIyIKX5gTYGdNyE/AArPjO+r0wToRnrCnGpAgnUAJ8WjdzYJVJFz/jcj2w43fAnFhdWGkANL9dACIFLZ6x6gCV1hcoxnOgL0lb1hRZR3yzn5A9B0wDQKw4eY09hYyFK74xNgnYsfZikfULWAORyePmtcO+L7AzLKdm67oCOysAdmhQ/GgQbkpIWFxImBZ/Cuy0c10msR88LGmh9UUDy2pJePMQpgEn+BEQPNAJfdwxCIQe+IQ5D3jWTsIdTeigMTfBDuGMYOAeD21p3wkBXEYc0wahiAaVZpwARUPNXcb17iWQENj0Pag/gonzxmm8wA5tL22sOdGO2/OEHi6qz3rWs2L8hF7ab1YofKB1HdR+HVv8+9J2sAMc2If95BnFkgh0EFCbYMe+JLCyBrCysAilRcB+AHZYEgB0BFDxLPDdcZxrFy8EFpIm2Gm6seV4AAMgCigX1O77mWCHVYH1wndRe1y/CfOACbDDEuR5m2AHCCGYc+NmmTF+VgXgC9jxPWlaW5pgx3HfHxYspE9WHkL4qlWrwl3s2muvDcFb2671u8HagUcsssaIWD1WCuyYKyBJcYFv3MaAFcCE5cOYdt9993D9sx7AkDlYwwQ71k9slt8W4M/9fmv8Jlg7nh9cy1h4EuwAktzS/Dbi+UJgx/7wO+Z3yTppB+DBM+59yF4yB6RN4KyZyMBxYAfAEYeFv/aV+wrsBNvqzwgcKLCzzGCnhILFhYK28KfATjfWaSX2C5cImRG17QH60pe+NDSkAAGhlRab1pSGlIsp1wwKDC6j6XJKyCLI0OQOGmMT7NCGSkFPQCMgEEL4yPvP5ZRgwu3MNYSS3XbbLfpznAWGgMH1dL311gs3jkH9EQBZkrjnEOaAHffzdTcfx2lOaaAJj9x/CIUEB4IwTTGwQ/gY1H4dW/z70nawA4gQNAn2XoAwgM+KYx+IjSDoAjvAr/0AMAD+/nNzsm+AZd8NgGQQ2BEPAsAT+oF5pQu4s40CdgjdQASAoo2jjz46QAogArgTdLmAJ9hhGfKdJlBzn/M9JtCbL4Gb0sD3jlvnusAO2YkbmOeDOXDfwx+WBzE7QIY2XaNd4/Rf375ngMIkwI5xmpO+8Ajhm0QLfpOAL0H8lB0JdpwH/MT3iPPBMwBkENgBKliM8IDFCvC1DxLsAMb2DuVMUtOyoy97yjWsQxQ5eA/U2lPG7PcTHxGXxkGuaQl2WApZZOxDfRbYSa7X/2E5UGCnwM5cCjcFdhYX3mZZuPWQBxzMkQYToCD4cZcAGATZqlXlQU9wci2g8KIXvSjiCwhX7gEmFuJTE+x4MBMgCYc0ndonMOor4+QIEwTDfrCjphbNOOFN5kT/B/XpfkG7NOO062nZAXa43tByb7TRRiGQET6NnxBCcCDMuFdfrhvUfh1b/PvSZrDD3cteBYgJ5V7qu7E82H+/+tWv4uW7QFPPWiBuhbbfXqKJJ5RydSLsc5N0jjXBd8TeQKykvhvcoAAElhR7zJ4WXwJYsy4BHf3k+2dfpmaftcjYWHTcm5YYCgh7GtBBAAargLTWABVXKd8Rsana8j10DRDms/llIoUcg9TGYkGSzMsYCfZAYbpisXoaB77pS3sssK4DDn338Mf4kDmZP8F/JcicKTEAzyQgBijVL3CCdwBPzsGYKVqM2XlrDwCZF55aA0DGOtov9gRrNlCEp36LzMf6S0phrZMAQtcnadu+ATqBQOukD/sn10Q7CECzZ/qJO6E56BP4FedjHxrzuFRubONyrtv3tQLsyPK1+eab16t4MLE9QLPvx7uL5IFDq1cC6OIC6EL8kXTjGc94RggtHtgyJ4p3IRgRBAgygAH3DW4hBFkPWUISzTZBYJNNNgl3tIX6aIIdwJoFh6DmoS4ol3ad2wbNMGFCHwBWP9iRtp5LDe0xsENAGdSnxCY0ufaGbEzADuEAWOM2RMgEpggZ/Phf8pKXhECLF2p4cQViPRKEPaj9Orb4Xmsz2Onib1yNuf0cAKwA56US9zqxVX5jJ0EFdibB5fb10Qqww2RaVByYJAf4YRfYWVyAm1UBl+bXA487Bb/0XXbZJawuhH0uONwrZIiiDfbab7/94jpB00AK7a1jC1lZ8I1mmFsaLSntuHvFIQia5tZGw8zNg8sa97Htt98+XMj4woufoZnlksMqRLMJoEhhT/M6aF2AGW4gXFLMCfChlebP77jfWOOh9XWtQGJAjuYcoDJn8UGupTkd1EcdW/j7UmBnkr/e1VcbOMCSQ6mTVrZxxyTJAiWSBASToAI7k+By+/oosNO+NakRTYADBXYWFtxmXahlxQEegBVWFW475swthPUGwPHwdR1XFK4UXHS4Ygjodtw9XNIW4pVzrnGtF6sOAMPtBdDJLEqyE0lYANRIHOA464yYBH7s+uQek6DJ/4X6lEranPzXjza4qTkGJMki5Zw5GVteQ0PrGvN0vMDO6N+NAjsT+NGuLooDy8CBAjvLwMQONlFgp4OLVkNeOgcK7Iwu0C0kZM/zcVYbsTzNl6K9i8Xz4BdAITOSeCApbRVWBD7WxUuJEsTbNPvbcsstAwyt6946v3J7vsDO0n+Tq4XiwCQ4UGBnElxuXx+tBDu0ogLQBDhyxSBQZIDdUljI3Mr3fVhzKY0qTe8oRIgx3gyodK/3YgEmQTTIsp4sRDTHAge7RLTT9gL3oSTvCX7N4EznBFIKinQ9Db3UmoIbxUJII5pUYGflBL8SqofnrX0sQ1GlqR+eZ23cXwV28pe1/hcH2s2BAjvtXp+VGl0rwQ53j6zSLACOYDooN/+oTCH0yqgi28owJCNMpkYc5nrX8IdXf6PZh4wjhx566LBNLOk6AchiAhYi6SS58HSJAF+ab6l7EdAq+41Ab0CoSQLL5eRXS0UBtb333jtAjmBtaSyTCux0W7hso8BbY5rfPVVgJ39Z639xoN0cKLDT7vVZqdG1Fuyo/ZBEI6/WBSFX+kqFzuTbl/aS1YQQK6uSYlpSagr8lf1ITnapGdXHkD4T6BCgKx+8oN9LL700CqEJBGbtIVTLoc+PnnVEsLD0i/pg4ZHe9dWvfnW8d0z6RpmPtC/QV7tNsKMN9Q3U5pB5aRKUYIdvvzSQQKJAbHMThyAYWQAzbbJc99LO4qfYBSQrk3niv2xULGqyT8n2JKYAH80zawucd955i1qSlmPOxi4gHIhjlRIYaXwA5CCwI1YBAbfqEABJswZ2VCE3/3oVD2oPTH8PcCv0e9MG8ttQVBwoDgzmQIGdwXyZ9aOtBTsAh1SEwIOKxQR2gjfhWipWQb+Cerlt0aoBO8AJYOFFIAd4aPm9P+yww+K+rJausBaBnfuIgn5ZhZnrGiCkGBYLCDDAwsNao7CV64855pi4XpExIEfAMSAgu1eCHe3wpXePoF9WiElQgh1uW4qxCXbO8QEGQKJgZXUFzj333HADE5is6Jd5SqmLF0ClOiBAUYI6IAPoYW1TnFAWKzyn0V5JAnbwV99qHHBdsx9YZwaBHUHd9g4LoXgI85k1sIMXRcWB4kA7OCDTXoGddqxFjaI4sBgHCuwsxp3ZPddasAOAsIoANwrwsVQQYLklKf7HosIKwyoD7BC4PWxYd4AUlhpuTARe5FrHE+ywepxzzjlhBSIcs16oXaL4n2JmQAuQAuywiLCQEPaRwGICOLDD0sDKwzringQ7LEHS2CLFtIxxEtQEOypiAzoKiamqzkKWYIcbGCsVEMDapd6HtLosKEkAouxN1kAKWzwnZFsP1jM1OiZBeM0KpzgZax6wxeLm2CCww9Jm71izLGBXYGcSK1V9FAfmkwMFduZz3WvW3eNAgZ3urdlyjLi1YKfpxpYTZXlQrwKAYZkgfNPaAxKASIIdVglgh0VC9WCkjkQT7Kj8S3C+4447ervvvntYQFT2db1KvsBLunlxR3vjG9+4Jg6H1cc5YEc/CXZYcRLsaF8RP2MCNriaTIKaYMc4WaL0z9rVBDtikQAcPEk+sPio9wGciTkCOFWXZkEBFvBcUgC59Vm0uLRNgoAddUKsDddE643PC4GddGNrjq3ATpMb9b44UBxYTg4U2FlOblZbxYGV40CBnZXjbZtb7hTY4b4EdLAusL6Ix1CLYhywQ1BnyZGwYOuttw7rDVcuge0EeeBItXKWHYCBWx3wBEyIeVGTYzGwIyub61hEVAfeeOONJ7IP1gV2ABcggeWJBYSVhMXEOLkJqvbuxSry4he/OFzzWMFYdx544IHe6tWrI8sZN7ZJgx2ui4om2gPGWmDnN1vKfusHeYCq6tTjEJDOFRKQTxIzJ1NiM/lGnqv/3eYABce8rK2MlJQlYjiTfH8oq+z7JlF0cfP18qxJ4mnw85//PD9Gwdj+e9ecnPCbitmZMMOru05xoMBOp5Zr2QbbSrDDpSwD5vtnqiCeGhbAjoeNB4xUzwQxL5aePO7hxY0LcUXzkOOaxhrzy1/+MoR37lDADGI5IvwLaAesXM9Cg1wDGHH/4rqmLy5S+vdeHJF7vMTJEBK9WCWknQacJkEe4oRc4xDPRNhl9VJQkKsf3gAt+CLtrfkao4e96zzEFRn0cGfxAjAcdwwI9PBHYnX0NQkixOd+wFv7g6BijP1ptFncxGj1k9gjY07qeja2/pgd1jYAtUmSYgAs4xAe7rrrrvE9yfsJxCxsYtqKZosDYgytrd+OQQQIsY4O+m4Nur7Nx3gEUHCx5CO/334HV61a9RTlwNOf/vQAMhRrkuT47zfnHe94x5rskNooy06bV7zGVhz4DQcK7PyGF/P0rpVgZ54WoE1zBSAkfRC7AwT2C89tGutSxzJPYAdQB8wBIjFYADpw+4UvfCFi3igFAHNgH6h1HDBOsMOKpmYR0H722WcX2Fnq5mvh/U2wQ7lAyWPNKWkoTsRGslQ7ToEizpFigWsrZQggTKHkmOKoFCGOU0zYN176oGiy37ikShAzDaIoA1xYrO173wWxnvZ7vyX0Oc95zpr6XubDssyNusDONFau+iwOLJ0DBXaWzsMutlBgp4urtoJj5qpBsEnhZAW7mmrT8wJ2WDqlX+dyqNAq100umOK5uGUS+CTloLkHcGW5858FlfDHEuha93Px3GeffQrsTHXnrkznTbDDgm0fSOMvC6W4xoceeqh38sknh2WcsC8G8K677oq4P78XrOv2kVhA52S7ZBXmEsvl9dZbb42EMMAPJYqYTKBjGmTPc+GVaAWQk0VTjKbabv1g59nPfnbEOgL8rMsS5AB8BXamsXLVZ3Fg6RwosLN0HnaxhQI7XVy1GvOSOTCLYEfMWZO4sXE5kz1Q6m4AlvsizbrkGYRVLoxStN9///0hlAJAtPSSWgA7BDwCL408QVCcVLmxNbk8G++bYAcYIMyzAHIZtub2gYLE9gUAI9Mjd1h7C3AAiDPzoUQn3CxZbnbccccA2YA21zGWIpkhuf2ylEyDzO+aa66JxCuAv3nY97JT9oMdbmzceYEcVm/Az/ejwM40Vq76LA4snQMFdpbOwy620EqwI26EJlHmL/+5TNA0L5X4ZtNAEtyGIe4/spWNQlxAPNgza5mYieUM6DYH7kjcL/qJwMKtpEl87B988MGxBAvzx69xiCYU77jGiRfy3osW1RzEQ2nb2vKBJ/i4btA6c68yB+NJMlduNmKvxqFZAzsy6km3jbcI3zfbbLOw4tCmc03khnTIIYeE9h3YoXFnxVGLivApJoMVCGXMjhgpwi0i/Co0KxasaLY40AQ7BHrCP/L7K2tjE+wAN+J77B1p613PDSx/e1g+ZE0EInbeeeew6riWJcU+A4xkhpwWATvKEihGLQZTMhpjHgR2mm5szfEW2Glyo94XB7rDgQI73Vmr5RxpK8EONwk1ajyM1HMhbNEGLpUIa1xxhg2yJZhLVjAKffrTn+696lWvirHTehJACZD9GsNR2mxeaw6yu9Eu9hOgxRWD+0gSzb2McuMQ4UV7oxIwSSgW7MyKwDJAwCHs8NXnOsJNhsDBnUXAsHl97nOf6+FfP5AzBwVOudcgAj2rhEKt/XV2hh3rrIEdGmpFZLkRScIhmcTxxx8fQJtAR/AkYBLsAEeWHscIn+9+97ujWOsgsKNd3z8AWzyP1O9l2Rl2l3XnunWBHQBXRkoKCb/LCj17L/sj5Q7LINc1ewQQ4NImKYhaXb7zjitirFZaW8CO7wNrDRc2+3xWwM6LXvSiUGRQZtSreFB7YO09sNFGG3Xnh7lGumwcaC3YadbZITQLKCXkEs48SM8///ywDBCMCctiCrgmEIJpEQnYUirTOioe6gtPCOc7DuwI1OZb7kEHXDlHCJTWWPtiHf7u7/4uwJE+PKwvueSSSMHsvWOAWLYvmw8LjgBdD/0k/dCMevBzAXnXu94VbSSIAqgIDoqeAmJAjPgJbiLGRohwH80p1xDzkyZ6ENgBGNyX2nnX8LPHMwAIX7RJ0Dc/8TkEF3M2bvWJnKe1BXQIzWrtAC4EHQKPead/Ph6bB6tMxnSYC37iIXIt0Kdt80LcXAjm2sJj75GgZvwRMNwkYMc4gCW80J+1Y6UosPNrTuV3w54HXoCdv/mbv4nvjD1ondWPAnCATd8pgqpjAKa9KzsVSxvyfXCOhQhgda3vjnVmKSqaLQ6wkNoHMjSy5klNj3zn/QbZMywiLD2A0e233x57AUB2j98X9/uNYdUBeHxXWXPtIxYgiQtYcdOdclocND8ud35HfF/8PvrNoUzp/13122fu/eQ3TkKGpDZlYxNDVa+V5YHvAYWsAufJawpZz6X87JxrPFvzWP1f2XUZlr/5va3/88OB1oIdQjdhXLpgQq6Un4KlaaYJ4h6wxxxzTIAW2mYCNU2dHxsvD1+xCO973/viPWuLtMna4SolUNsDiwB+wAEHhLYaUPDZw4/Q7kHNKmIctJI02qwnNOaEAH7cAI/zNOW0lv1gR1+AG2Gfhtz15sEVRP9AGG08wQCY0q6+/JjSNorDkGL5Wc96VoA6x7bbbrsFLUW0rc6jjLcgCGuPEOLBbYz88M1z/fXXj6Ki+jjuuOMCPHgP8AB/tCAEYyBLJi6CLiBDgCYgnHjiifFerSM8tV54TkBCtL7Go07PLrvsEnMFEF2LAE/HAR/WL+uLn00CdrhgAXvAEcHM2gKRBXaanOoFHwlxgG+T8NdxeyGp/5hz/eeb17peu81r8nz97z4Hcm2tb+6f5nvH7AHkfXOfUThxhwSOAWLg2nnkf77Pe6e5h/rnlGPJOceg/+9Pzrd5bNAc2gR2+sdan5efA/YKYO+5mMSCzl04KbOa5v7K4/W/OFAcmDwHWgt2FOwk4J555pkRGAuEiN0AMGitWS9YdwjuBG2pcv0AsYAAKTTT3KQACsRy4jjhHADxcFYgk7YaKBAnRDNDkPejxeLCsgHs0ODJIJQPbMCKAG6MNJUeiMAZy0Q/2AFs3EubyP8bEDB2wAagcr050n4Ccen2lW5vNI3eywqUfS0GdvywisegpSdwAFIIfxwTcEzrCnjxU99vv/3iPE0usIfwUb+u5+aBgBvv8UAcEg0KHrLKAE3AJOsVAjbxDuW6GRewCcwQimhMEbCz2267rRGigDvAsEl4DZyJIzBOFjBzc6zATpNT9b44MB0OUC4BOVzBWAHF5M0TFdiZp9X+9Vw90z3D0/LXBDuet871P8vmj0s14+JAOzjQWrDTdGNLVgE7gA1BmysU1zHuWI4RwhPs+IEBdgjH/MURIbsJdgAY57hhyLZDYAc2xI2wgLAaiFMAdgjpXL0SgAALLCXAjn4S7AAq/WCHpUbfgABfam5fxk5gF2DvHsHl0ryyVkjHCvyw9GgXIGHpAJTM0bHFwI65ynjEksI3nqUFX2igADlz8h5Q1La6EYhrHmsOAqoAHfVWMmaHdYcFjWXJvQCba8Te4CWwk+5NgAz3Nf1aC0AJmSuAcvfdd4d53zHWMBY6BBABgcBnk4AdYzMvQNM4sq0CO01O1fviQHFgGhwosDMNrk+3T4pMij3PItQEO7xMKF5dU1QcKA5MnwOdAjs0KIRlYARo4AoGCIwDdviQAwMsH1Ki0tIQqLlYMU8DKKxCwA4fdTEr7mFR4LLGnW0Q2OG3zrLCqiRVK2uIsbKUsGiwJjFvE/C5nOkfOACSuMcBYNy1ABP3Ef79mI4CdgAwrnk0S2kNAgzxDkgDplh2gL8EOzSzxmaOXgCd+feDHeBEHJAfdokSDjrooLDiNMGOvvj0Ay8AndgeLnHmwm2P+xse8Zc3T8cQbZgxAlRNSrAjwxt+ijny3rUFdn7NKdbKBJtN3g37Hs/xfxAB+ZQK1jOJJVSfRbPBAW7BvlNNkv1wHAuNfeJ3mUvbOOQ77TdMO1Kls5hTnCSxBnMp9h8RKP0eD0vmSQnUHJ+9L8at2c+w7bmuwM4o3JqNa+1PSj/PO9QEO5nspfmbORuzrlkUB7rJgVaCHYKUuJFBRChnmfAD4yHn4cS1yY+KF6uAh5njtCspAAIzHt4sGB6k4j7Ek3CJy5TGXNcI3gR1Dz8PetYL5BoBusCQe/XF8qEf71kwgDFuWywXXgT87D/nwuIBMHmAI4HhAAErFCsQ0ibrFdAFXPjM/Szn6HoWnsUIHzzQk4zZePDNmFiyjJVVKYk1iWXJ2PHZ/FmhEIAiwNhYgDR8Y/HCY4KNdjLFtmMsSzlevDc/17gfEaBZt1jS0mJm/kCisTZJ+7kfWN/sD4IKi1L/tc37Fns/a9nY7GWJK8YlllRWv0FkPZ/2tKfF/rGmCEDXZ9FscMBaUv5kgL7/3G/z+z/KLP02sf6Oo4gAurjB+V5TBElMQjHE3dYxe1GGN0oo8Zd+H/0W+Jy/P+saK/dbCq5MxmFPO7Zq1ao1v0XraqP/fIGdfo7Mx2f7j7LVcy3BjveUiM4VFQeKA+3gQCvBTjtYU6NYCgcITglQhmmHgMTqBECmQD3MfeNeMy9gh8UGyKQQSM094A50OwZgOg58Ow4IA7MKQhJ0gVwC5gYbbBAWvQTQCXYImtZZdivXp7UHKOUmqR2WUVZE51kaCQMUC+4BoBeyKI27tnXf6Byw/lx100LiM0s3y4o1tX6szpQk1s91lA0yq1k/cXzWM+tmATu+y+5xHSDie00JY09Yd+CFgoibq+uAI1ZcyU30IYlJughxlwXIWPUpe5ynmKGY8l4mNcLmMOQ+tTYorvzuGD+XI4lSUvEyTDvNawrsNLkxX+89SygSE+yoscfroKg4UBxoDwcK7LRnLWZqJKxuXJ+GJUIHQXpSgu88gB3AgtDJLZELpRTsgAfNuc+sfOLECJp8z1kTuU66jkAoWQQhEtihCeeyITW4dhPsEGgl9nAf4ZiLprVUTFLmQYk7uH3SnHMNZT0yhnRflLCDy2RaFIbdL3Xd8nLAmrIMAqRACXdcCQdYwbmrAhnW/9BDD42MiNLqcnvlcgsI2T/2jLT7GRPIWmjduQCz7gI99gCQ4RjLNWBtf3D5BZb0AyQj4FucIjC+5557BmgHgNICbt+K4QNQ/HbYf6zT6yIWevteinaAC/AWo8mNuMDOurhX5/s54DnHkgN421tcukd59vW3V5+LA8WB5edAgZ3l52m12AEOzAPYAUQAF0CCBWb//fePRBiy7rHgOAa80M7TRKabowyFtOWsP66led9mm20CpMhqyCKUYIfWX+IQwiwAoz39yB/LRgAAIABJREFU7bHHHuFmyqrEFckxgAjwYsEjWKr5Q1svviwz+XVg68zsEFlUgE9rJd0/6wtiHRTPwqLCIgKUABk02fYQkMMl1Z7h/srqA2Sz8gC+QJO9xYpjne0V+00qe1ZBIIX7GrdZ76WXTwJ07Dmuv0CyfQd8I/sQOBK7wwLlXq656yICKXAlhpBLrLEB/4OKiq6rrTxflp3kxPz9t++BZ79pYly9d6yoOFAcaA8HCuy0Zy1qJBPkwDyAHUBC3AWirVfgjrUFgCFE0poDH/1gh2be9YRSwmWCHe0QMKUbJyiKqQBYgChuQIRNwidhGcBhFZCCPLPtiQUj+BI2CYfGwkLgP2G3aLocAIDFwbCoAMlcGO0DFj5rKD2+dU2LCjCNrKG1RdaeVTdjdtwvDhKQsnckdWH9sV8kSgF2AGQWXfdxpWNpQfaEvgV7a4f1yd5lDUL2rSQn9hkgZP8NEydh/4kNzHGzMnG7LLATbK0/I3DAvhSvS7kDlHt575hzRcWB4kA7OFBgpx3rUKOYMAdmEexICgFceBEixV0AJgQ5WnoPYYIidyVAiNVFLMQoYIfGkluTYrPADgGTO5yYDe5o2iZ8LgZ2jIEwTSCQMMQ9w7gfTXiLzGV3LB5czVhSEMsMqx4rH0sN90Tujiw7CXYkGbGG3Mu4qAEgg8AOy589Io09dzQ1z5pgh+VH/zKtERRZf1772tdGjI89zQpjrwHMADjrkyyWiPUJUGJZWhcl2NGG7wcB1f0FdtbFuTrfzwFKIwqCZrkE72Usda6oOFAcaAcHCuy0Yx1qFBPmwKyBHUKjGATady9Cp6BwQIaLjjgdsRWsObLo0ZaLpxCrQFMv2x8Q4hqxFYiWXOwGjT/BMokWnjZesLq2ZNoTf8FNjQZfH8ZAUOaSxC0OaRfA4vqkXfcZFzBWWtDk7nT/c1djeSH8JwHGAIz1tW8ADzWvAFzEAsQaaM2d58YmdivTVosDsk9cz6LiGvvEe5kWgSV7lVUImPHZHjGO97znPWv2tP3JguMae5o1Sd8IGAPCh3EfAtoANfvUPSyY2gGCjGEcKje2cbjW/XvElwHx/eSYfVVUHCgOtIMDBXbasQ41iglzYNbADiGPgJgv1hUERAi6dhzRjtOq056LtWFhoeEm+GkDQPFCPjuujWwvTvyfu5LrnNO2Pnx2PcrrtZECZH/bzXFlu/V/uhzI9fQ/yRpaK+uYa+y/40k+J2BxLPeN981rc6+413v95J5xLQERGMq94Zp8aQcZh77ys2PcKhN8xUWL/HFf3qstYzGO3KeL3LrgqQI7C7Jmpk+wUqoj10+OOVdUHCgOtIMDBXbasQ41iglzYNbAzrDsI9jRtJ977rlRm4SlpSnYDttOXVccWAkOAD7cI2VJG5ZYHiVJmCYV2Jkm96fXt/0q5gtAZwn3YuVmMW+C+OmNsHouDhQHcKAVYEc2Jm4S9SoeTGoP7LPPPmsCobv2U0D7LeVvUXGgONAODhTYacc6TGMU3DXFsGWCAu6ZFa8zjZWoPosDC3Ng6mBHYLJUpvUqHkx6D3CF6SINAjviaKTk5Z7mv5TQbbHYGIcYEK5tNJ+yaiX5/js2LNGW0uSnm9yw99V1i3NA6mbZ0JpEiBtXaJMCetw1sh/ca9+I0VFDJ/cy9zNjctwrv8OOuy+L2jpuzzVd7XJu5imWjHtcUqbFHnR9XrPY/wI7i3Fn9s/5XWLRYeEpi87sr3fNsHscmDrY6R7LasTFgelyYBDYEfCvBoqij/vtt19vk002CXeg6Y70170TKhUXlVJY9itudEmSExAUhyVCubTFAtuLlo8Dgv1lSktBzX9pywX+j0qAR2ZjG/VeAEaiA+DjvvvuiwyChx12WGT3U09Hkouddtqpt8UWW/S22mqryCqojwsuuCD2veKj9hk3OAk4JFzoJ8dlmMvipYCUOkGrVq2KWKH+64f5XGBnGC7N9jXqTknMUVQcKA60jwMFdtq3JjWi4sCiHFgI7KhYnySr2o477hiabRpugh2QQRAk3MmYBWhoiwbfMamqv/71r0fmLJp1BSAJjd47DrT4/Pd///cR4C0AV+poWbIEd0v7S7gkILO+0O67T9+E0cXAjv7zetm+aOlp2Qm/7pdBi0Yf2JFiWMYu/RiLe4uWxoEnn3wy+JpFOa2jjFL4zWooTbg9Jb20dbG+rIhSmtsT9kruHdY6YEddHfe4TsIB62TPOGZNWfi87DvHAFh1m4AcfVx++eVrCohK5eucl9pQ9oI2kTEo5AhkSUVtryHvP/7xj8f75h/xPTvssEOc04/5yfwmrXa22bx+mPcFdobh0mxfU2Bntte3ZtdtDhTY6fb61ejnkAMLgR11SbjxKAopFTALD6FQfI/aJNI88ysHEAAGGm6pfe+8887IzHb66adHWl+FHKWy5nsuRa+6ERtuuGGkmpZyWBFQgESSB4UZWW2krnatQpEKP372s5/tvf3tb484vPe9731hvUmwwzLzkY98JF4ywxEUCdXecwNRmFQxU/PQhzguqa5vueWWuE5di2uvvTZSV6vDkimO53ArLNuUgQ61coBXoARQYGEBcKUIt4fwn5XFOnp/9tlnx5rZC9ZUbR4AxV4AdoBv+8OeY5Gxj9Tw4e7jvD0AKNsz7rd/pIIGbJE9AURzO9t7770DmNvDMgjam/aJsXgPACEZBgEZ5JzaU/0kxbT6UlK1A2qAtYDy4447rsBOP7Pq89AcKLAzNKvqwuLAxDlQYGfiLK8OiwNL48BCYIcl58gjj+wdddRRkWmN9pxVBriRXprG/PDDDw+h8eCDDw5hjzZepXqWHq5BwIaaKOqOED6zRg9tOcBEGKWFJ7RynaMZZxWQ8OHhhx8OkEJwJgADLGInADDZ3xLsEJwJxF7AFrBDo26ctPzquZx22mnx2XgJzan5JwADQPqkySf4Pv7440tjaN0dAMd6ADYAhnWRqQ9ZF/z+/Oc/H9ZCsXUCsllNrO/tt98ewNl6AKjWGZixZo4BKA8++GDsA+mhAR+AevXq1QGquctJie5ea81KlAToWG9tAF6sOAAZgGI/AsKAEjc0xBK42WabxXt73/5xX5OAHcCOckC/Dz30UACmKira5FK9H5UDBXZG5VhdXxyYHAcK7EyO19VTcWBZOLAQ2Gm6sWVHwAEh7owzzgiNOquIBAYEUsDlla98ZcRmcOVhzSF4br311gE4BIaL4zj22GPDenLEEUeERYX2/MQTTwy3Jf1wW9p+++0D/LAGiPfgwuRewi6hk8Y/wc6gmB3uU8ZGy89qw2IjiJy7FAF8r732Cm08YEa4zZgdaV+Bs6Klc4Dgbw24I6oTksH+l112We9Vr3pVAALWQkVogR1gGLHeSBeNrLd4G2AHSGIl+uM//uMoIgqk7LbbbuEeZz9Ya3uO1c7+A2wAEEAGsdgBRSxG2vGy1zKuCPC5+uqrA7QD5cie3WOPPeI9IA7sZOHRONjrRfHQtAYBeCyTQH+BneRQ/R+HAwV2xuFa3VMcmAwHCuxMhs/VS3Fg2TgwCthh0SFUirWgaeeGREgkYIqf4JbGpU1MBksMDT6XIKCH0EsoBZQImqxGNOKEWa5s2gCcuDTRvoujoYEn8GpHzId29XfCCScsCnZYCwAXArJ2xGCIGyH8mi9hVGA6UFRgZ9m20lMa4kqoQCcAg6wl8MtSB5iIa+Gi2AQ7jzzySO+aa66JNec+CXgMAjv2lD1jXV0PWDXBjn1lf4nxsd+ALBZB4Ng+AnBZnFhmWH9YdT784Q+He6X9xSWOtYd7GwKeHNdWk9wP7OiH65qximsrsNPkUr0flQMFdkblWF1fHJgcBwrsTI7X1VNxYFk4MAjssG7QUvcTrbYYCQBGpiDCIVei+++/PywmwAmgIXbh1ltvDQHSMdcQdMVu/Nmf/VkIjARZWn0ac7FANPYETgImNzjCY57nlga0sPQAQ/qlqSdEE3aTWG8AJy5MxqlvMUSuY9UBxgim2uEmxwLAHY8gi1ybVp5ss/6PzwHrDqRazyRuhaxrQIJ1AZqtbVaIB4q5tOVas+D5bE0BDVa+xx57LAA3sMJV0l7ynpXQunKH4z7n3J//+Z+HNRDYAY6AJy8xP9wc7RF9ifmxR+xH7QFg9hJXNsSNc1A9KsBNH/pzHpBmxdKeY+NQJSgYh2uzdU+Bndlaz5rNbHGgwM5srWfNZg44MAjscO3hLjaIMosaQc41QIwXgCO+xnvkvGMEzyTHUgD0P12InNeW67Nf7eS1zvusfcDHNQRf77M/1xBUHUPGSbvvv+udc482vPJztpX3OF60PBzAbyme/U+yXtbZOuV+8L+5jj67JuNj/M91cS73jbZzz3nvGuezP8kJAGN9cVlrvlyHnLNPct85lmPM/n0GXgalzjaWZluu1X/em/Me5X+BnVG4NZvXFtiZzXWtWc0GBwrszMY61izmiAODwM4cTb+mOsMcAEQIjcDMUojlj3tdf7zOUtpc7N4CO4txZz7OFdiZj3WuWXaTAwV2urluNeo55kCBnTle/Jp6KzlQYKeVyzLRQRXYmSi7q7PiwEgcKLAzErvq4uLA9DkwCOzQhEsKII7CfzEI6Ro07REbh9iKdDuidVfQVJB5ujoNGiO3KIHjRSvPAfE1Ym+aJC4rY6Oax4d5b91yvYe5vnmNOJ50M3NcRsHmXuZmKTFG092SK5rYrbTkcHXLeJ5m296bp0QYzfH5/mT2uP7rh/lcYGcYLs32NQV2Znt9a3bd5kCBnW6vX41+DjkwCOxIJCCtr4xphxxySG+rrbaKJARtYA+hUsY3KYVlZlPPRx0d45UBbiGS2limLIL4HXfcEckJFrq2ji+NA/fee2/vuuuuWxNbw53siiuuiExoo7YMeEjnLFHBqGStJdNINzYA5tBDD10DfqSWlgJdhkB7SHY+JBugfb///vvHPgOU1d5xfT997GMfi3pBMrwhQEryBcVIgaRxqMDOOFybrXsK7MzWetZsZosDBXZmaz1rNnPAgUFgR4HPZp0d6XqlamY5oRmXllcxR8Ih4U69GhncFOSk6XaMZtsx1iGadYKmAHHvHQdafJapS7sESW3K4EU4likNoDE+Qmv2oe/Xve51a1JPy+SFCLTAmTHR0rNISUUsTbZ+FLFU74UV6Lzzzos5zMHyTmWK1hAgTUuatZWVzRoCDjLtyagmk569IuOZzGjW2lqxxuTekXgASFVXxz2uE/zvPtY8x+wJ17kXKHKMJUbmP1kF7S/7UTryjTbaKPYgECXjGmDv/G233RYgWBKCk08+OZIU+B4oeIu8l62vn4AddaFkmdOOfXjllVfG96XATj+36vOwHCiwMyyn6rriwOQ5UGBn8jyvHosDS+LAQmCHsMqNh/sRgXGfffYJNyQae+mb1R8hPAIkBFlphBX+9JAGYGjLpe5VZ0WaX4LlF7/4xQBEL33pS0OYZW2heZc1izb9fe97XwiXDz74YBSZPOusswJ0SSesOKj0wl5HH310CLVSGK9evbpH4NQGIRnQUbtFgUhjMkbtATuuJdwqDvnAAw8siW9188IcAGh+93d/N+rpACXWT1pxIEVqcWsj/bPiotZMoc+zzz47auFI3az2kevtK4AF2JE62v644IILAsQCTECv9s4555wAKkCPPaMGj3TQ9hxwi+xJYBogBriBEnWAgGFkL9rX9rc2kbG94hWviPfAknH0EyuOGj/2pcxwvg9veMMbouZOgZ1+btXnYTlQYGdYTtV1xYHJc6DAzuR5Xj0WB5bEgYXAzi677NI7/vjjo5AikECzTljNWB4AAmhQf4TLD0GUoMqyworD9Q0IIWCK1QA2CLDAzWtf+9oAQoRLViNuSsAHzTjhc7/99gsBmdBLKFXLhIsa7b22CLc0+IRq9xOcFQ71El/0s5/9LCwAxkbw1Q/h133Gr9jkuPEjS2L2nNwM4Nxzzz1RvwawAIwBXcTq46WG0o477tj78pe/HKDk9ttvD8sM8KA+DssL6wzrD5DB4uKYmjj2njpLAA8LEFBkj7LkAen2IGsg6yTrTxLwwUXMmFgg7SnxOkj9HuMEqrisIRanzTbbLN7b+1ze/G+S8QJN+jVewA7IqqKiTS7V+1E5UGBnVI7V9cWByXGgwM7keF09FQeWhQMLgZ2mG1t2RPhjsTnxxBPDasLdh+AK3CioCCABF0AIaw4N98tf/vIoQEpoZZ059thjQxAlOLqHJhyoSg08y8x2220XbkMEWy5tBFH3AkPc38R/cJnjVuQYImCfeeaZ4Y5EUNh33317l19+ebyuv/76Aju5iBP6z4XNPgFWWW2AUATAHnDAAWFBAWqBHuCAZQWxBor5QdYWQAF2MuBf8VlFbO0XYIlFEECx9sCOwqFcIIHZSy+9NPZXNPZ/NXUS7NijQArAhBScZSk0FqAcKVIrFgwZC3CfSQviYK8X8TnAtL0KsBsPcF5gJzlU/8fhQIGdcbhW9xQHJsOBAjuT4XP1UhxYNg6MAnaeeOKJcBMCcARkH3bYYZEkgEYcmKG9J2Bq85prrglhkYuSYzTpANTpp58ewITgyNWJMExQ1IbYDrET4iTE4qhuT5uvP9p7WnxCLiFaLJD/LAKsQQRd4IvWn8b+vvvuCzckLlNcjLi2sewY55ve9KY1Qu6yMbIaegoHABvrlm5hgOuqVavCGmjNgGPr0gQ73AwBWxYZoAaQGAR2WFLsGSAIaLb2TbBjX9lf6aZmcE3LDvBib7IiATUsk8CKPZb7y3ngCdm/QDlQ3SSWHWPkQuc+VktAr8BOk0v1flQOFNgZlWN1fXFgchwosDM5XldPxYFl4cAgsCPA+6677npK+wQ+cTBc0WQ0IwxyA3ItrTjQwl2NZp2AS0POxYzACbQAIuJ/CIwCurmWEToza5brCZ2sPYRHbTnP2vPQQw9Fe9q95ZZb4h4g6N3vfncIxwTej3/843Et1yj9fvjDHw5hVtyHOQFSxkbAvfvuu58yvzqwvBwAjlk6rGfSRz7ykVgbrmL2DDdErl8JSsSIOWcvAbtAD3dIVkX75ktf+lIAbaDEmn/wgx+MvZhWQokEuDuyAN56662xh7Jv7mvatRcRUGI/GYc+9G2/ATCsgfYj1zTkeyImrZ+4dyo4qj/ukebje6Jv/Y1DlY1tHK7N1j0FdmZrPWs2s8WBAjuztZ41mzngwCCwQ0gbFFxN2AQ8uCSJXfCirSc8OsbFx2dE+CP0CdpObbhjXsi9+d5n/bk++9VOMz7CZ+3LuOUaQmnzPufymPEANY7lXPw3duS/cRWtLAesBwtLrr/erKO9ApDkHsp9lKPx2V5orleurT2TIELbuee4pVl392Z/YsgAXMeS9NskfXB5a17THKNrtQuAAdH9ZDx5r73pXmPt76f/vsU+F9hZjDvzca7Aznysc82ymxwosNPNdatRzzEHBoGdOWZHTX2GOAAULUdNJRYflsWMO1ppFhXYWWkOt7/9AjvtX6Ma4fxyoMDO/K59zbyjHCiw09GFq2HPLAcK7Mzs0g49sQI7Q7OqLiwOTJwDBXYmzvLqsDiwNA4MAjtcvBQPbZJA8KbbWfPcoPe04Atpwrn4yOCW7kbcfvSX7kmD2lvsGPch2vdsz7U+c3Eahcxv0DgcK7e34TnJlQvP0r1r+Du7d6U9Liap+d3gUudYcz+OMrMCO6NwazavLbAzm+tas5oNDhTYmY11rFnMEQcGgR1peGXSatKee+4ZtWuaxxZ7L1mAQO9BJChcQUm1cpDYC1XnAaBxSKpfweyEa8kLBJ4LLlfrZRQC6GTwUqenScaGJ0XDcUDCCcH6ahoNon/5l3+JBBUZkzPomq4c4ya3xx57RAIMYwZwJN+Qsjrjz0adS4GdUTk2e9cX2Jm9Na0ZzQ4HCuzMzlrWTOaEA4PAjnTAUvs2adttt40U0AQ4IEUWNqmiCaw0+dL3yo6mUr2AboHhUvK67kc/+tEaqw2rzjbbbBMZ1D75yU+GcCiZgHTQtOG04trRtkxc2mbx0ad006raa59GHSiR8YvwrMik/wcddFBk67ruuut6arLkOAEh9wE02nZcG8YmHbV+9Kdmi6KU+nSd81Ify7hVNBwHZE7DR+vFugbEWlO8tH8UCH39618fewbfralrrT8rn3Wyjxyzr4Anx+0TAEpbmZDAOetnraZBsripC5U1nwB3qc/VACqwM40VmY0+C+zMxjrWLGaTAwV2ZnNda1YzzIGFwI6aItJE52vjjTcO4VO6aMKcFNEXXHBBpA2Wfld9EfVSCLnS9QIaxx13XKSG9l/xSCTQW60dmbJYUQjDCXYIrW9/+9ujfamE99577wAx7gW+ABh9fvWrX+0RBlavXh1FQ/XFWsT6QvCkbVfn54QTToj+FbVUmBS4yYKWp5xyShRAVavl1FNPjdovTbBDeL3kkkuiRs/uu+9eYGeE70AT7AC01tvanXTSSZF+3NodeuihUTiWVQ7QlUL8da97XRTkVC/HMWtz0UUXxVraJ/YLi5GXPagfVjdgVC2laRDrpfo6xsrVEXBTTFfx3AI701iR2eizwM5srGPNYjY5UGBnNte1ZjXDHFgI7Bx99NEBGgAHr4022iisIbT0rCLf+c53omAk0AMQ7bvvvgFkHGe9Uf+EAEpzr7YKAZW15KyzzoqCoSrXK/JJe59gRyFRLjyERsLtUUcdFQLtm9/85gBLtPtA0mte85po86qrroq+FDMFtAiXxxxzTAichE+ASf8Kj6oJJMXwkUceGfE86rHoyz1c4NTeSbDDqrD55puHxcB5oKosO8N/CZpgBxgASKw99y5r+b3vfa+n2KtYKyDWe4AW4LEn7BvrwyUMgAVcH3300d5OO+0Ue0zhUcVJWYi059xSUj0PP7OnXml+gJd5APmsovZeFRV9Kq/qyPAcKLAzPK/qyuLApDlQYGfSHK/+igNL5MBCYGeQGxtgQlO/1157headFQfIQIQ8FhxCqIKg3NgU9USKel5xxRVxfP/99w+tPs0+K4zinwl2xPmwwiQRGAnOBOAsOslNCKABTgAqROgdBHYI10jszk033RRghxWH4K04JWsU0g4wlGCHy9wznvGMNXVeCNsFdoJVQ/1pgh1AWdFOxKrH6tEEO6xvF154YQAdYAd4sK8UgUXAM0BtDYEd1+TL3mUJBL6nRcbLXdMcATTWQJbOAjvTWpHZ6LfAzmysY81iNjlQYGc217VmNcMcGAXsuJYWG3gR16KiPC32ww8/3ANUWEScv/vuu58Cdt761reuARXJTu5Khx12WMTecFvSvsQF3/rWt8KdSeA3wZmmn3WIixBgAnyw1gA8qB/saOdd73pXWBKcHxXsmBtAZZ5iQViDCuzkqq37/7rADqsei4z4KUCBCyKL4b333ht7B0ACXsX4SDgB/AA0Bx54YM+9jgMV4nnaAna++93v9k4++eSwOkqQUWBn3fukrliYAwV2FuZNnSkOTJsDBXamvQLVf3FgRA4MAjsENxrrJl1++eUhkHIrIqCy2tx88829++67LwABAMIdTBY0iQNYTriXIX0AK+JgWIeSJA249tpre0APAVe6YlXqgRtt77zzzhFnA3DQ7t9www1xjmAsbifbJwizGrDYiN/Rj9fXvva16Irrm1gj7nEEawHwLEW33nprnOdCZV6ZJYy7m0B449CnWBFjLBqOAyx1rGpAIyAKDCNWGgH9kkng6wMPPBBJCVj3rIu9YK2BJetoPwHJXCC5vNlr1sT+s76sfFwo9TMtsg/tPamnWS/Fhv3iF7+I/dtMRz3K+Cob2yjcms1rC+zM5rrWrGaDAwV2ZmMdaxZzxIFBYIeQRrhskhgaIEEMDDCgjo3rxEqIrZAdK+vR+CzWxQu5DtDQpvub5D4Z3ZzTLjczAq9xSSLgXLZPCM50xYBStg/k5HX+E4K15xqU12Y7jrnHmFCO1fzcJzYIaceYXDeu4BoNzdkf/MNH/MT7XLPcV9YBT/E331tb9yAABpi2x7gXckG0XtqzHl76cK/95/i0qDk/8zFOYzM/4xuHCuyMw7XZuqfAzmytZ81mtjhQYGe21rNmMwccGAR2pjltSQq4skmQIPZhXIFxmnOovpfGAemkuUNyY1TvicVtnqjAzjyt9uC5FtgZzJc6WhxoAwcK7LRhFWoMxYERONA2sDPC0OvS4sBMcqDAzkwu60iTKrAzErvq4uLARDlQYGei7K7OigNL58AgsMMFR/C3ujf5EoczDrHMyHLGfY1bUrqWcT2SqjddnPrbNgZ1cZqUbTWP1fv2ccA6c3tskjiW/vVsnl/sPfdI7mHjkGQBzXvFCzWthVwYuU2mS6Q+7E33cUtD9iw3u3RvbI7DPMWQNd0c7V3Hmv0071nX+wI76+LQ7J8vsDP7a1wz7C4HCux0d+1q5HPKgUFg5wtf+EJkvlIEMl+CwschguY222wTwqJAdJm0EGFQTE5/IoTsQ8IASQ2a8RjiM7bYYou8pP63lAOy2FnrjM/yX9Y0BURHJesvG5tMfKMS0CXRgbgwBMBIdZ3jkg1OjNi5554bhUkT0KsLJI06V0oZBt0v4YLr+0miBDWmMoEFgCM9u4K4TQDVf99inwvsLMad+ThXYGc+1rlm2U0OFNjp5rrVqOeYA4PAjuxZUgP3EyFRPIXsV6w1tPUESHVpCHY034LH/+Ef/iEEQ1m5CH8EVRp1qaozG5tsbeedd15Un0/Ne1p7tCc7m8B0x2jPHSNsrrfeeiGs6ke7+qdV999549On8ThvLBnQTmjNYxkM3z/H+rx0DljjLLKpNVZCqcXTkgfoWiufrZV9AmjYU6wo9or1ts98Pv/886PujntcZx+6TyyPY9bUdV7W3zFWJFnSpB23L11jv22wwQZrkggA8A8++GDsMSnNARqZ+wAd++7++++PFNfmIHOclOr9JLvctttu2yOcGpM9Jt7oFa94RYGdfmbV56E5UGAIsFLQAAAgAElEQVRnaFbVhcWBiXOgwM7EWV4dFgeWxoGFwM7pp58eaXSl0vUiZBI+acGlYlaQk/AoXbBr1dkhUNLgAzWEW8UfAZWtttoqMrUl2CEUSiGsCKN6JFI/I/V1Lrrooqijc9ppp/Wuv/76yNBFs0/bTogEdgjJ2icEq8cCnL3lLW/pXX311ZGqWCpqFiNpi41VLSCAx3ttAHKsRkUrwwHgBZ+/8Y1vBACQdIKlBwBVG8laWQv1i4BU1pczzzwz9tY3v/nNSEoglbkCpO61ztbsqquuimsUrZUa/IILLoj9dsYZZwSoefzxx6POjX0J6EhXntYkAMh7fQLXXNSMUd0exJoJ/GS6cccArh133DHOc3VT/LSf7DPWIns13dcuvvjiqNNUlp1+btXnYTlQYGdYTtV1xYHJc6DAzuR5Xj0WB5bEgYXAzhFHHBG1T9Q/8VKXhkb+da97XcTxsOrsueeeAWI++9nP9gicjqnR88Mf/jC05GeffXYAoBe+8IWhhU+wQ/tNe07QpE0//PDDQ1uvlg/3NVp14EnNHrVyACuCI4Hzec97XgjIBF3CLeDz+te/vnfjjTdG7R1tEKyBI2NVt4dwLDbokEMOiWKjhN4UcpfEvLp5IAeAWcIayxwrDBBhXdG3v/3t3hNPPBH1dwAJQBpgBYKyPo900+4DNqwdsAOMOGZtgWQgCTCyL635a17zmnAlA5BY88T5OG7PJNlDXMSAHXsV2AGMkXEAxQDyRz/60TgmTmezzTaL9+4FlJqxOU4AO/Ya8M3SpJ4TkF9FRYNt9WdMDhTYGZNxdVtxYAIcKLAzASZXF8WB5eTAQmCHGxLhMl8EWGCHYAdgcA066KCDQvgDSFSPF49z/PHHB/Ah8AEkBNZ+sMOqwvXnqKOO6gFVm2++eWjdzznnnHBBMj/CLdciMRGsAEkveMELQtCVkpjAKy7jxBNPjLgOWvnrrrsuBGuASq0WAMfL2Amv73znO0Nbr6+ileMAftsT4qxWr14d66Q3gPeAAw4Ii6BYF1Y9YMd6IwDp3nvvXTMwwBfY4QpnD7ICcS977LHHervuumsAXVYfliFxM+9617sCNLHkXXrppQF8srEm2GHZYSkClpD+ASl7CLhH9q7CtkjfQHl/kgVgB5hz72c+85lw31NItcBOsK3+jMmBAjtjMq5uKw5MgAMFdibA5OqiOLCcHFgI7HAFEkORLy5qBFja8IXADo07ARIISYGPkNoEOwRSGn0a/iSafO1yBQJwuMx94AMfCCGSlUgiA25I2uTGpn2gy3+uQ29729sipoI2n6BMgL7lllvCKmDcLD/myX1KdjkC7nbbbbdWlq4cS/1fPg4AIdYGEECA85ZbbhnrYj2BFW5qTbAjuQHAYW0///nPx3tgx/VNsMOC8/73vz/2ovvtkSbYYSWyF1mRkppgB1gHalgQ7Tfv7R37RFusQ+JxEmhzxzz22GNjDNme/wl2gC+ul2eddVaMvcBOk0v1flQOFNgZlWN1fXFgchwosDM5XldPxYFl4cAgsPOd73wnLCWsM/kCHgR/czvjAkTwFJ9DgBWQTqAFjLgCAS8333xzaOkBJC5GNOICvBUK5V7mviTgicBKMNUfoCNmg+BLKCVQatdxwiStvXH4bxzGS0DWJy27PlmbCNqEWONx7V133RWWH7Ec2ixaWQ5waWRBsy+SbrjhhoilufXWW2P/cB8T/M9dDbG+se64zl6wt1hzAFlrzU1MLJBEAoCIduxNwAaw/tSnPhXWJO5m1j0tRtrmvmafsBYhgMa+AprsHX3Yb/p3HSuhbGwImBET1k/cJO1TyRGAO0DbXrNX+13e+u9d6HNlY1uIM/NzvMDO/Kx1zbR7HCiw0701qxHPOQcGgR2Cm4xYwE2+uIsREllSCIQoXXoIdTTphFHHaMq5L7mWgKkt9/gsC1rel6x3juYcAHLe/T5nDR5tEES5pjXbynH4D4CxBmSWNWNxbfOY8WtHbEUTbOU46v/ycgC/c72yZXsLuLW+1ipfTWCQeyDr3PifAMWeYKFB2raeuV/tE/daey/Amstktu2Yfptk30q84b4k1xtj7mn7CzhuAqe81njyXvvava7Pe/O6Uf4X2BmFW7N5bYGd2VzXmtVscKDAzmysY81ijjgwCOzM0fRrqjPMAeCHW2Q/wBl1ykAVixFAPQkqsDMJLre7jwI77V6fGt18c6DAznyvf82+gxwosNPBRashzzQHCuzM9PIONbkCO0OxqS4qDkyFAwV2psL26rQ4MD4HFgM73M4E8wvyT5exUXriduZ+rkbc4JaTuAl5DUu0/JlsIf8LejfGQWTMXPGKRucAC0j/2nDxGtfCIo7H+o1D3NGaLov2IXe2JC5w9kG6xjnOZc59uTdcw51znO9A9jPK/wI7o3BrNq8tsDOb61qzmg0OFNiZjXWsWcwRBxYCO+ITpAaWTEB6aIH/oxABUZ0c9XcEkQsEXw6ScEACApmzPvnJTw7dJOFV8VMFINUHkq5a/Z5HH310YBvSFmdByoEX1MEFOSArn3XKOBtgQ0poiQVGJW3IvGfNRyXARv2eBC1iwWRMS/AjtbRaUPa47G72CJIcQ0a2k046KeJ53E/4dP0kqMDOJLjcnj7scdkot99++zWvjTfeuOfVPCYJx6QAd3u4UyMpDrSPAwV22rcmNaLiwKIcGAR2ZMACdARuI1p5n6WL9mCWbYpg6L/PgA1tPg284H+fWUYUdfziF78YFhJB5rTntPuSBvjsvXtSi0577n5afA915332yoQH0lbLvkYAdYyWXlva0KcAccIsy4JYCwKua1ObT2iWijoFW/MTZJ79ZIA7kPalL30pxmxu7jf+HG8zKF1f+sGPEkZ6kVVPnSY8RSwnim7ikfVJHuIXvuIlYGJfWPtcd+vneqmnZWuzZq6z59xnXXLd3edlrzpmzR9++OHePffcE2ti3WWGW3/99dfsL1n5ZILTHkCuptO3vvWt3tFHHx3HxOmYB7rvvvsibic+rPCfAjsrzOAONF+WnQ4sUg1xbjlQYGdul74m3lUODAI7grrVvGkSYZFQL6UzwfWyyy6L/1/96lcDFCgQSjt56qmnRlpoQGH//feP6wiU1157bQifrCnSRyv4qeio4qBqklx88cWRPlhR0gcffDAKlGqPNpOwK/0wa9OGG24YViKf1UgBkLRhTBdddFEIrWrzuIeGXr0gKbIJwagf7JgTC9Qll1wSbZg3gRrYYaG47bbbIjUxgVxmLxYfKYa1Sdg+99xzY27ubxZFbfJu3t4DK9YOcABKpIsGLIBKtWvwSs0jQj1gAmgoCmofuIcl54orruhdeOGFsebWEs+97J/vf//74ZJo/7iOFcYee/zxx+O8/SUdtD7Tcsd1UZ0mVkqgCBgyRm2hv/iLv4jrWSDtB8SSs9NOO8V79Znsr0lQgZ1JcLndfRTYaff61OjmmwMFduZ7/Wv2HeTAILDDZe2jH/3oU2YjhkftEcUekZoihH4V7Q888MCwtAA5AAYQwXVJoUeCJ6GUQErIZYnRL+GRNv/HP/5xCL40+doCfFgBWHB+9KMfhTBMQAYudtttt7ie0AwwASTqrbC6uF/hR4UqTz755LhenZS3vvWtYV0w5n6ww7XKeeM1LuPkvsblTRvaZoEAgAA6lgK1YZzTj/4AQBYIoCuF66cwb44OADjqIKl/w8oGdAA8CH/EceExIIGXaiwBr0AS64qaNwCJfWEPADt4nW099NBDsY5SS7NC4jugaa+x2gEpaVkEUpLsEUBC2/YSsPODH/wgThsHoGMv5N5ngdpss83iPKBm/a3zSlOBnZXmcPvbL7DT/jWqEc4vBwrszO/a18w7yoFBYAeQAFSaRPMN5LCWfO9734tThFaFO8XOiH1AXN0InguBnRtvvDGu45bE2sPiwjrDkkIIBaDEUDgPSABOijkCSQBHP9ghJHsl6dt4AClCN6HXGBWcRP1ghxAO3Onb9QpZmiew86pXvSqEZ21wyeJC9853vjOEYhYggrgxGhcyH5auol8X7GTl42qoqCwgivD3sMMOi/3FNdJ6Azv2F1LQUzxWEoAD7Fg/62OtAWJ7cO+99w4rEYsPyxCwY33sPQCVFU7h0KQm2AFsWQ3tYcRqqDCu8Yk3QkDTzjvvHO+5Jx5++OEByOLACv4psLOCzO1I0wV2OrJQNcy55ECBnblc9pp0lzkwCOxw+SHYcSniZsTVh2BJICSYEkYJ+Cw1LD2sK6tXrw42rAvs0NojYIZgOgjscE8SWH7DDTdEP4888ki4NBGY99prr943v/nNsOqw7Khgn/EgaSECOIYFO4RmcRniSgjU3PO++93vBvgCemj7CeDmy4UKwKHxZ7V48sknC+wssvmBDQDQnkGAyxZbbBHWGPFggCuw6by9hQAZn/HY2tpfwI71aYIdFhygBFAGUgArYAdIB3a8WG5YfpKaYAd4sb/uuuuu6Mu+vPvuuyOJgrZYFlmnWI2Q9sTyGMNKU4GdleZw+9svsNP+NaoRzi8HCuzM79rXzDvKgUFgx1S4oxFWARIAQHwMQe+JJ54IgZKgSQtOM07IzDgHbkOESBp9giTg9PWvfz1iNbgufeYznwlOEV5ZYLjGESS5OhGGAQ2CZ2rpxQ85B3DQ1r///e+P9wRTgrL7jYWAzAIEGBGk/+iP/ijGC0zdcccdAdp0TDgGVLgxIckUCLXmop/bb7894jm8B8i0ReBl3RFLRJg2PwI264DP/iPzyRiQODDnfwBDcThcEZNYxFjSrIHYHPtMIgDrjljQ7CU8fsc73hH8tPaO23/W1z4Sf2NdxPu4nvuhvWbPia+yrvqQICOJCxrwZZ8h4Nb+zv4AeyDI2gJZrJjSriPj49I4CSqwMwkut7uPAjvtXp8a3XxzoMDOfK9/zb6DHFgI7JgKQMANiKDfzDIGQAArYiwQjbljiEDpPcFUEDj3MPEOAI3/mcXMcee165X3EFK16xhgQtgEaAAKQqo2HNdetuUY9zTHketybNrJe52Tecs5/5NcL3bIS//IePI9q44+jJnQLQ4oYzfwSB/IfPKeODDnf/AVv5I/2GGv4B/gal3xrJ9vPlv33FPWS1vImlsL+0vb1kyb9mhzTzkPEIm/ybVyTL/+J+mDu5o+k6yhMeaeNH5gP2PV8rqV+l9gZ6U42512C+x0Z61qpPPHgQI787fmNeOOc2AxsNPxqdXw55wDwA/rTgLfcdkBRLMYAUqToAI7k+Byu/sosNPu9anRzTcHCuzM9/rX7DvIgQI7HVy0GvJMc6DAzkwv71CTK7AzFJvqouLAVDhQYGcqbK9OiwPjc6Af7HDZERzOtaf5ymxa/T2li1n/8VE+65O7nGDypjvRKG0s9VpuU013q3W1x7WtyR/vWQBo/6c1h3WNeVLnuQ3280Y8jOP4VrQ4BwrsLM6feThbYGceVrnm2FUOFNjp6srVuOeWA/1gR0yE9L5SScvIduihh8Z7mc8GkYBxgfnjEoCgL4Hsb3jDG6I/9VMmQeJ81ABCe+6555oYoGH6FsNh3NIoJ48Ey0tskG0O084sXqNmDd4cc8wxkT3Pewkg8EVCgOUiMTv2n2QYs0QFdmZpNcebS4Gd8fhWdxUHJsGBAjuT4HL1URxYRg70g51m05kJLY+xfLBaCNz2X6C3WAbgyHtCpzgJ7/M64MlnAeaOSSzgftdJEqCejexcrkGsO/vvv38Erzuf12vbNYLNWZPEYTQTDWSSBNdrG3mvT2Nwn+v17X5tyeamiKTrnctx9vcpIF7/7mWdaFqAZIcDcJKMQ1/azHFqz3F9uF8/2nA+edlsM9vq+n+FQKVrTsKT3CP+44cX/uKR99Ycf5r8zmQS1rHJQ3vX+rGmNfeKNUe5V3Ld9JPv9WFNcg38b8saFNjJHfPr/7/1W7/Ve9GLXlSv4kFr9sDznve8yPi59k6tT/PCgQI787LSNc+Z4cAoYMe1F154YRTaVChSauEEO48//ngUaVS35hvf+Ebv3HPPjVo3l1xySbg0Sd17wgkn9BSA9P+2226L6vWsIplpK5mqqj1BVP0eNXfUzFEAMi0xAJJ2VbRXlFImLqmCWYbUX7nzzjtDWFbTxeePfOQjkcr44osvjs/q5XDL81/dHumzt95668g+p4aQoqbakhpZ1rn3vOc9Pfcax4knnrhWeul+sCON8T333BPjYq3Kcb797W+PNhQq1Sbe4YV21fmRnpsAPkvUD3ZkM8PTr33ta7EO5n/yyScHYPGeJZFVSAppIMYaeCk4ar3sOddZN9dIN84iJ301nudeUeiV1UfNHvdog5VJKmtryBonpbgU0+7RplpN1qQNa1BgZ+1vAbADDNereNCWPXDfffcV2Fn7azpXnwrszNVy12RngQOjgJ23vOUtAUBo0QmgColyYQNsDj744BDYnQNCCKKPPvpoCJJq0SgE6joPK/VNCKRSAwMEKN3ngKnLL7882jrppJMCTKVwrLYOcAUgAENcybx/+OGHe+ecc05PMVEPofPOO6+n3s/Tnva03mOPPRbae4I3kMFFjrBLWNZu1k554Qtf2PvhD38YQrZaQrT8MnkBZYpTEpRZClhxpDNO6gc75qquj3pC5sFCoeaPOjBSGhsbFxXtce3CF22oEYQHs0T9YOehhx4K4KH2jRpOLDAKh1o7+wIo5eamxg4AAgByDQQGgegdd9wx+GqdgRU1jd72trfF+mpTXST7eb/99guw+Sd/8ifBYxYlxWG9rOHxxx8f+1cdHfsXwOFip982pA4vsLP2t6DAToGctoCcHEeBnbW/o/P2qcDOvK14zbfzHBgF7LCoECgRQRXAYUU58sgjewQ0AiPBkpWEIAnwEP6BEkI96wwQAQC4h0XlgAMOiGOO096rb6Kfj33sY+ECBRBoRzFIGnyAh6UFcUMDHrRPgE2BltBKGAZ2uC6xHBnPEUccERYgfT755JNPATusT4ANqwAirHOxU7wy45I+9KEPhQAeF/R6AVSabmxNsKPYKfDHWgTQIABIGwR4Vh9zM0cgDl9miRYDO3gGWCgeiyf4pGgr8InfLC7JG4CH+98XvvCFOL7rrrvG2jfBDl6zDNknhxxySKwdsGNvADOAVIJU4EqsD2ug/pFCpdaBO9u0qcDO2itQYKfAToKMtvwvsLP2d3TePhXYmbcVr/l2ngOjgB1adOBGIU0CPKtKurHJpnbaaaeFyxrXJA8D1wFAhFRghyDbBDuAEZcx2vyf/exnkQXuxz/+cbgcATJnnHFGaO+186lPfSqsNMAOUIO4RQE7/hsbkMJi84lPfCLaAnZYgFh5WHPEdhgnYCQ2iOWA+5JrWHZcR9D+1re+FWPnksYKA6SZJxoF7Nx4440xX7zSFiLYE8DNQZtiUPCGoI8fs0SLgR0uZAl2WL0S7AClLGEAq3VnmbOXgOybb745jgExwBCww93N3nn+858fayrhBVdBViTX2QtoENixZ1wjjse+1m8b1qDAztrfglkEOxQ7sl4ut/DuO+O3zXdiudteqD2Wetbw5nnfKb/lsjI2j8/K+wI7a39H5+1TgZ15W/Gab+c5sBjY4R5GUE8SSwOwsFJwQ/rRj34UbkgES8Iq6weNOcGU5YKA73ppnd3LWkPLTshN4OOhTxsPBBA+xdjcfvvtoWFnybnsssuiHdacn/70pxHTkcDj29/+dpwDYgjHrAWsAcbBosOSk0Hq3MZo/wm0QBpB2bjEc3hQi8VhrfrsZz8bLmaAyvXXX9+TMplFgLsVMj8uaklAmHiRJEIzFz9xS4AecJfuda4BlsSlEEjE8dx0000B9gCsNsSL5DyW47+9xT0vCbg0X9YU+wqwIBDJ9IdPrCvAB6uc++wf1hdxWYQnwMY62ycAov3gvbWxh+wR7dszgJZ1cC/yGYBGgJb73Qss2xfuNZY2UIGdtVdhFsGO3xYKjuUW/rnqvvKVrwyFynK3vVB7vnvHHXdcfEfzGhb6M888M37X89gs/S+ws/Z3dN4+FdiZtxWv+XaeA4uBHcI/96EkwjhgQZOXx8WZuA5ltivX0TC6jpCaAIcVA/lMA58EKBFcWWX667BIPuC4ByXSX77Xn/Eg7/VHUE7tvPf6yvu0oz3j0I5+fea6pH/XOkYr6tqMocnrtePanK/P+JC88NnYXGM8eR33tLwGP7JdPAIYAb4cpzZmhfDA3JLwwZxZ0vDDnIHR3BfO53u8Az5Y66wJcizX0L3p+ugeAJqgZz217Zh1SF5774XsGccTKOnHurSFCuysvRJdATsUIxQx3CEpaux9Cg/KEnuOBZqlGMjZYIMNInmG/cz6AXB7+exaSpUHHngglDcAu3bFpVHmUBr5bfNb4zqus5Qz9v+6wI6+KGS0ZZzG57eYgooiiKKIAsf3Qb9AGQWE32UKIooov48+U3KZJ6sp5ZV7KHHcYzwAECWW7yLFlLFTbPiOAkMs3O6nwEgFCCu6a/yWm19bXwV21v6OztunAjvztuI1385zYDGw0/nJ1QSKAwtwAFAipBHO2kYFdtZeka6AHUL7VlttFRkG119//UicAhx4D8hst912kaYfOHn2s5/d23333cPC+IpXvKInDm2fffaJ5BrAADdNrpm77bZbCP977713b9tttw23X0BJun+Wy+c+97m9U045pbf99tsHeFoX2GFxluhj1apVPQlgNtxwwwA4wNQzn/nM3pZbbhnWVKCMa68yAC996UvD8i2hi3slngGaWJAAJ7GHxk9pIF5OGyzlxgbscB02d5Z2/JGURsIR95uLZDWstjvvvHPETOILd+KVcPNbLvBUYGft7+i8fSqwM28rXvPtPAcK7HR+CWsCM8aBAjtrL2hXwA5AIgaRRYTwz0WWlUbs4dOf/vQQ6lluCNwvf/nLe+qYcYl1DhiS/ZHw736ZK4EClk1ZIrUHOLkXAOGWyzoCbLDO2DMSr6wL7HAllUCGVQao4moGrLAWveQlLwl3T30AVqeeempYYikFACGuoK4X58g6Je27mDrz3GmnnWIuL3vZyyKFO+Cjxhaww1ID7LDkAHqbbLJJjHmPPfaIeejPNYCQ1PAsYaxILEXOtfFVYGft7+i8fSqwM28rXvPtPAcGgR3uRNwkxLTkq+l2NsqkuRt5KHNF4s7gwcXdo0m07Nwi0v2sec79HsrOERz6iasIV6h1EaFBW6NQurTR/q+km5O5ce9Kd60co/lai66ReZjPoPXs2lzWNV6udfZWc67WbJz9ln0V2ElO/Pp/V8DOLrvs0lM3jEuXWlDS1vtdE7/4rGc9K6wd6Z6lBhiww2VMIhUZAsWasehIjw/s+Oz3Ddhh4QFq/H5KwCGRh2QtO+ywQ8S3yUQ4LNjZZpttIn7Nb7r+xEkCGJtuumm4m+nDe2Pwmy0mEdjhcgaUAEKsMUCS8SXYAYDcJwbSPCWCAXY+8IEPBMBxnVhP8+J+B+wAQPrgRif2Rwyduerbc6ONQMeYCuys/R2dt08FduZtxWu+nefAILCj/g03BA+cfNE6jkPSPtNEeuhzvfAg576QsRTaJBgqNpkxFc1+CI4EB5pCWdv6ycOUMDCICKL8zYEcGkkxJMOSe2hNaWU9pBWl9LBHHv4yty1EHuBcN4Yl2l7B+HjUJEHzkht0jYA0SSwIPIOIgCT5hTibrpPCpYQ6adSTCH2EwXHnV2AnOfnr/10BOyweAId09YoVi3+RiIPFxHcZMBHLQnEC7Ciu7LeWNcfvDFAka6TfDr+7shQOAjuADbDjtd5660XMC6sSS8uwlp0DDzwwfk+5s4nV8VsHqIidIcxr22dzMhdt+532OwwscX9jlXJtgh3WGNcqK+B3eaONNor/4nXMl6uaebJYSRAC7OARsMNqZe7GwiIkoydFW4Gdtb8L9akdHCiw0451qFEUB4bmwCCwQxBV1LGfAAAabEIc4ADIeC/gnHUGOeazl/fINQR5rhesJPy6ZT1LUkdFhizts9K41z3aBICAJe9Te85y4LwXf3X1cZz32b3a0BYNo3TYxpHWH8fzumzPee+b/Trmgevhjoz77LPPDuuSoql833NM7vMyLvcZL02l92mtca3PqNmX8WibcMCCleMzRi4dzcxvcXMH/vC1p701L/Nvrqn5cX1Rz4gg43OezzXq51HyTVvJa/x0r3N45TUN4v7D/YaW3XjsV5p9bjvGOg4V2Fmba10BO+JYZBH0++D3jGWCVUOWSAoAe0Qsit9CQr2YGeBC/ApljN8qyg0Ah+uYOBr3EfpZPWRs9J2hSGBZcJxlxr3ihQATFnkZDMXXDAIK3NjE9xgfBY6kASztlFB+g9LNzr0sT64BUvw2ZXvGBogZm2OUOzJLAnHaB+IUoDZOc3CcAsB8X/Oa18TvMkUI5ZUMjNqQ9MBYWK3OP//8KA6c/bXxf1l21v6OztunAjvztuI1385zYCGw46H0+OOPr3l5sHmQXnjhhaHJ80D3cPVQ856LhQeWh7JraPA8UFlXaAI9LBPsqLtDkCeoEggPOuigsM546LvXC4iRvcj9wAPrjYcugZfLxerVq8ONgiaR8MwdhL88NwjnFA31meaSDzxtI0GUdcY13EZoJLWbRT5pU1m0CBz68dk57RNcvDyctUnI8GAntHMDIai4VnpjGk3H1YW54447Yo8I6mUd497lYW6OZ511VggXTbAj6Bio0ibNZ9fBDgGPJhfPaaSlicYnMQjW0R4zV9Y7L7xgNeMi4x68ILzJsEZwtG5eNOSEQnsKKHX9NIjlkBWHNp+10h6R2hxgKbCzPCvSFbDTJqHcb7Vsbn4Xmy9WaWCHsqZN4+3aWArsLM93u6utFNjp6srVuOeWAwuBHS4FBLh8sVT85Cc/CQCgZg7wImsO4U6wK+0iNwdAgTXEwwDocI+sPs4l2KHBT9c0QMS9NPUEXwCCsEtTSNPnIQjscBMCMLi1CZz1MAfAnANGgBhpnL0HIqUht5QAACAASURBVAAq7RC0ady5YdCo0qwao/5oHfVDKwq0GRctJUHaPcZDK8tKQfAmKLiGm4V+aFa5odDo0vATcvXBlYXQ7hjtKCLka8s9fNIF+xozDWcT7Oy7776h7QXMpG7tOtjhnsI9h+DP3x9gBWppwIED7otcZmitaXoBUCBZNihr8OlPfzqKuuK3IGhg0NqypnCFAXJ8XsmYqsV+HIAdGnH7x3fCmtrn9l2BncU4N/y5AjujB+n7TaJs8dvWfPnd8Z10vmsAo03jLbAz/Pd3Fq8ssDOLq1pzmmkOLAR2CJ3NhwshH3ABFlhwgAV+345zmaBd5y8OkLBa8FFnwfBQ7Qc7hFggILX+fLoREAJIEIhZftRr6Ac7LCNAQLo26eM73/lOtOc4y5KxsAr1gx3uVQBJuqax/hgr4ZprBuJuwYKgH64d5gdUAT76YglKsAP0sTzgFeGdpYu1oQl2uOghQjCww/2PC59+WaVYgppgR5rXrMmj5kTXwQ7LFv4ioBivmmCHa4tjQLU9w/pl/a0p8t852mlgJ8G3fUg7DSjh37QI2AHK7VV7jnsPAF9gZ/lWpMDO6GCn+dtd75effwV2lu/73cWWCux0cdVqzHPNgcXADm15vjwwgR3uWXy8gR3uZ02ww20C2BBwKliVxQYA6gc7GK5fAj9ggrTHnYnwz6rBCkDT3w92xGZolxUHIGEJScsSKxOwIeMPQKFvwjSAkZYd42cJ4B73iU98IlykgBtWGJRgR6Yi7nkAkTFoS7s+A1UsOhIuSBlrvICa8bvv4IMPjvlpX6pVfbFUEMzdDwA5JniZf3sT7KhFweUND/nLzwLY4buPEuywErLoWCs8AYjwg4uggGXxDFzd8IA1La1B6pAArPYksJMWQKBzWgTsAGCAF9dP+1mB2gI7y7ciwI7vTb2KB23ZA36f/E4VzScHCuzM57rXrDvMgUFghysZKwZrRb5kC+Om40eeqxbrDEsGCwurB3cwCQFYIwjzhHyxFjILEdpZRwAKlh5E0FXBnsY+CVgS3M3qox1gApAAMoANFgKgiFZNf4AVSxLh2ficdw/rDUuKe7nSsTwBVlzgWGu0DeAQormRGUMmTHDeZ/MjhLM6AF1csbi9SS7A+kBIF6dkvAnMaPfNy39j4ZrFQuU94dz8AScuT8ZL4P/KV74SPDFu4M093KLe+973xtgBgK4RMIJH1h54ZcFDQByXGpZBaw/IACp4AzRaI8kmuCjiK0uP+Bx84vLGLcd+tB74ox9xP6NkvltuXpofgMZljZWP2509YP9TBIxDlaBgba4BO77n9SoetGUPUEoV2Fn7ezpPnwrszNNq11xnggODwA5QwIpDiMwXARSwIZAL3kficIACgh6NOyDiGO0bod61LDHacg/hNAVA1xIKWV2StA8McTNzP4DkOpYk97keeW9cNOiO6YMwzNqjL/d6IeMxDgK2sWZ7xpjuYq5lWUDayXuNRx8sL+bvXmTMYm9c6zzXNlYI/QBDjrveOPHFeQBRu8bgv/7di1xnrnjkvPnig7lZi66ReZiPeeEr3iB8SaDMApb7xzzxwznE8gYI4QFwDQhpC2+BXi99eOG5c9Oi5vzMx96wb8zPWo5DBXbW5hqwU1QcaBMHKMcK7LRpRSY7lgI7k+V39VYcWDIHBoGdJTdaDRQHlsABgFXqczFNLGppDVxCk526tcDO2stVYGdtftSn6XOgwM7012CaIyiwM03uV9/FgTE4UGBnDKbVLcWBFeRAgZ21mTsI7LAmc1PNFwsoS9+kiPWORVmfLJbG4T/r41LIPPotgtrU3zCEL/18cO+gcTk2TavoMPNZjmtyjfp5yArbzxdr2txTac3337lcmwI7y7Ey3W2jwE53165GPqccGAR2PAS4fXHF8t9DvC3kYcMdzoOL+5MxenH98jBqCxE6koc5Rm5r+fBsjtPDmKtX/8O4eU2X3nPTIzA0ibtX/7Hm+cXec1Ublzf2SPPedKnL/gh71qUp9Fmjpguhc/bcoLXLdpbzf4GdtbnZD3YIqOLfxEVldj5xc34D+snvhUQWXAyXkxQDlcyEy60YvRyHZBzizsYhYxWn1tyL2pEMxe/0MCTOkNtsk2Q/lECln8TQySC4EJlbutoudE0XjovLFJ/Z5IHvsphP6eubJC4z95Usi9J05/Pw/vvvX/MbVmCnybX5e19gZ/7WvGbccQ4MAjserqeffnoEjKsvo66NY20ggg7BApCQIEFNHYHtAlcVd1SPpQ1E4JCIQGHT/fbbL+r0SJwwCDgS5vl/z4JggfeC9qXyTg2z/+JuMsX4KOtDKCEAjsMbAIXwlyBL/JSEEwl+gFBCkIQQEk6Is0GSV9hTkksQkgE1go7rJ0EFdtbmcj/YoUiQtIQgCnR4SY4y6Ltl/wAgsuUtJ0liInGG30U1w/zueNn3MkCOS4Tv/N5kG34b7rzzzvy46H8JWb74xS+udY3EL5J79NNtt90WiT76j+dnSVQkUOk6SbijsHXWXDMfKe1f/vKX92RTbJLvPSBtT7lPhkVZM9V5U28t4woL7DS5Nn/vC+zM35rXjDvOgUFgR0YpQiBNo5eAcYUw20CsN4RQcRxHHnlkpCvOccr6RVBsCxkXwXrTTTddE5g/aGyEbBniBN7PAkk7ThgFLpAYHJ/HAQsEP5kBx+FNZkrTBnB8xhln9NZbb71wXbE2hDmJEKwRYZBWlxZcQV3HCJjq5iB7S+rsSVCBnbW5PAjsAKiE0Sb5bfCbIKOiBCYE/0ceeSRS31OEyCYpi98mm2zSO+SQQyLJCGuQvbnDDjtEHSwxYqecckpvgw02iN8ZYMmecD3hWDuZwTHBDqWG/YSkv995550DeGlLynsZBGUdpPTYaKONwnJgLJQ2xuleYBqAku6eJUGf6pitWrUqUu3bi44DVhtvvHEooIwdED/00EN7u+66axQqTrDDgklJZcz6tdf7KcEOS5Tfe9e97GUvi2yXrD5KBsg65vsLMPodU0NMIhjfKVkxt99++zWxdb73rGhi7TbffPPImkjRIGulFPvqZA2yvvWPa7k/2yfWjQLP2iFKPAqyQWDH3JMoaWSGLLCTHKn/OFBgp/ZBcaBjHFgI7Px/9u4DXLKizBv4t+6u+6wurq67rnFVJEnOQxgBFWRJKhnJSSSogOwqICIgCgIKkmVgBARUQAkSBAQECYIESSJBchJH4gAzTKjv+ZVW7+mevnPvnOl7b9/ut56n7+0+51T6V52q91/vW2/ZIG5ytVpq9XKRRRbJEyvXwSbUT37yk9llMK9b1P4mYeffmLStqG+99dZ5Vcxq2v3335+fMemYbEyoJkxulR206RoNiMmZpsaqGtfRrpnITarcN5usXLNyWsiO/HwnDDNlUQbl5r5aevL3XT1MYsruGUKscopDCHY+irLAwwoeIYfGhZtjafMK5jmf7373uzku8xWTuNU/wlcxXyFQlfNxCAWEBDgJhGj5qMuGG26YhWyCOLJjQuVKWV0JQ9JXB+UliEtr5513zloH+WoDdei2ADf4Fi2bQzZhYj+CttTG6u68IiulpQ0IlFZcnYXkGa6crcgjOwRSWLhGawYzAgtsCLgIOWFL//CbO2gCHrfjAo96To8nvNEOEhLlw226cMkll+R2IYDCX9AvCZECYVUZRiIE2WlGuR3ZMd54t/UzH4I7AR9JcOiv9xF58B5/9atfze8+oRuR1a7OwPL+ICfefX1Uv/VdHyWka3v90fjBJbw+hxQUYlLIjneZSZvr3mPPiC8tWhUmkUgMMyrjkOvy19f0O/1RHGVfeOGFs4YRQVIm74z0kR2u/BEoZUY+ivv1pZdeOo+lNF6F7BxwwAF5nEIAaUaNJa2hkB3vGCKifsZk2k+mdMy8jMMIozOu4GZxwPhrfDLGGxt5pnRf/dTN2GfMtyilDgiFtvKs8W+kQyE76mtcMOYoryMS2pEdWGnPiRMn5j6iDwTZGelW6+78gux0d/tE6QKBWRAYiOw4GJNpj/NQCJAmZ3sx2HhzE4w4EByZXXzsYx/LE71J08RgdQ85MtERQk18Jn3mGIR58fz/zne+k02eCJ1+mwg9T1gxwTIpMKmagAkDhBmrjITeQnaszhE6CP9WWE1KzKVMulZ4lQFBISATpqVFKGBuQtAlMJvkESTC7Pnnn5/PdiEcI10EDELIfPPNlwWTK664ItdNHkgRAQqRgY/J03eruQQcoZXsOBNo3XXXzSSFRoeQwVSESV4R6gldyk0wU16aNgIwwQexIkwQYtxXx24LVqqZgiCI2pRZWCF/6gJP2FoBR6TZxiPR8KBBQVIIW54jbMGFAOpaIZLaU1vpW/oowUua2hOR1qbO7/G9BO0OR8IljPW7ciCpNpC2fqYvCjRT73vf+/J3QmqJW9Ibrv9BdpqRbUd2CP0O6vWe+hC4tavgHnKBFFTJjnGiLDAgtDQ4ntHmRetoPEGaBWMIsmysIwAbrwjt+mjVjA1pIkjrN8YD7z6yYzwxFnpvmVHpfwKBW1mMJRZT9FHEwBiE7DDZNJbp24J3CdlBMmgZaCHFs8hkscPYZzwQkB1jqMUC5ELw7jnHqzVUyY5FA8HYDj/pFbLjv7zli2QhX57zrhnfBCa6cPn4xz+eSZZn4ep9NzZ6x0crFLJjPIGbsV9bWWRpR3a0DWyYwJrf9KEgO6PVet2Zb5Cd7myXKFUgMCACA5EdAiYhgjCIWBA0CYhWLpEfE79J1jMEcoKjFXWToVVzk74JHMGweuk5Ew3iwb6eoOG3CV06JiSBYLDgggvmSVJahGWCqNVZk45yWLUtZIfAS1AhqCJBnkeUpEmDYvVUmQlD73jHO3Id5FMmMGUURzBBE6AQMxoUAoYPG3jCivR85I/YETaQO4GAhBwiPCbLElrJDqGd1qyEssqLxBBUCLrqaDJ2GGupg9VrArdVV0K9QMvRap9f0h3t/4Q8ApT2JBQV8xWHjeoDhMfll18+kzqCUNkorQ2sHgtIk7bRF/UTvwltVtD1J0ImrBFFecGFYIYUI52ENmZCJVTJDuJetGnuI5ew1qY0d4I+g7QL+gtSL95whyA7zQi3IzvewTJmVJ9GcgncxiiaPO1WNDsIjvfaPizCq9/IDlIsniCe8UkwRhnH9CNjkL6EWNOyVslO1YwtR0wpkx39kjbEGMAMuBAqCyhlnDRmIQX6tP6N7CifMhHOBWObcch7gDi4b5HDOIXsICKF6BlD9GVlLhvykSuLCa2hSnaMPwLi1Up2vJPylq/3TlrqYoHBnABjfdZYjGSqs2eVj3ZXmduZ0bWWZ7h+F7Jj4UxfsEhkjhqI7FTN2EqZguwUJOI/BILsRD8IBMYYAgORHRNwayiaEBOcAzkJFYQAk6ZVSROCFT6roSYSwiXhnlBu1Z4mBAkxObJHJ6hKy//i9UZ6NDsEFRoBggJtCGFfGkwQqpqdIvBYiZQmQRURoRWyukroNdkTtt23UqesymnF0yRu4iaUIyEEBWmxOSesIHtWSNn0SwvhIFATvgktxVSLgI28MX2hfSqhlezAUP1MtjCkMaLdIHjLhwCB6Ki/1VnlIjjQkiBByE4xl+tmsqP+sGXzDi+BQAZX+Ggb5jeIMLJjNVogSIqjjbQ7Aikd2FTJDgJV+hgCZLUZ2UFWEBLtQWCkASqhSnb0QUIkYiwvmDNb0f+s3sPdqjS8Be2FzCvDcIcgO80ItyM7NDAWCnbcccf8QTgsONibwQTJO0KL410m4CJH3lmkQ39Eji3Y0KLoY94xgTamaPu8f8YD44B32/PLLbdcFt6RE/EIxsav1n6hf+t/FmUEpnDKI28azbKfDZFg1qu/ScN+F33Ne7DlllvmPuo9oTUxVtsjgyhJyx4y/VxdyoINXPRh7wINM0JHuEfkWwOthvvSRfIEixSwMtYwf4MHLQ4NNByZD4rjnfGuyduijHIbC2FEc6+MyCLypC5lAaG1DCPxmwliWQiDg7FDoDGzuFUNiJ75ozUgeRb0wkFBKzL9+TvITn+2e9R6DCPQjuwQvttNTggD0uGeiQ55IVSYBAmsJkcmAiZyk67VPBMnUySCrgnfZGhSJ2ha8UMGCAQmGZMowdZEjcSYJN1HCggF4phwpGklFjkpey40AcHWyqb0rD6ye6fZ8Z0AbDWU4KKs0iFUIBHKj7j4IDMCgdsqblkx9Vsc9SbkKJPJsipMqx+huxqUn9laVSNAq7Hvvvvm9AgFSBSBneDlw1SFcI8AKRtBi2AvLRgV0yyCUx0PZ9XyDed3eFvpLWZB8tJn1F89EDtkB8kgkAhW2uGrzbSV69odLvoNIZP5D5KCsMINTkgJoUybEDQRG32N4FcCAU7+RTAkwPgtL+1BkwNjQips9UnCn6AO+t1IhCA7zSi3kh1EVdvpX+VDQNV3LGboJz4WXyymMCsjiOsTfutzfusHyJB3zX9Be5cxAOnx3oqD9CA2xkCLI8Y48ZANmozWoB+5jhQIxhF5IvXVsYBmpvp+GPvUz/PGVvnKj1ZC8J0nMPVXfh/lVF/BO1D28VlUoDGlqSqa1fzQ3/645hnlEU9AupBCZVBvmmt4eAZuxhvvkXoZ143TcKZdUl/lUAdlVFa/ld330QrKXrR1SK2xRFD/gmspG3fb1fYp12GgfmU+CG9sBZn+/B9kpz/bPWo9hhFoR3YIi2XPSbVqJi6TvInDhFo0HSY+ky8hvEzuhACToMm0TMSu+Qgm0jKpuC8/6ZZ8TS7yKHFNwoiFicozJh2Ep+RXymlSVX73TeA+RXiRlvvSIfgI/hNwPGcSLwERKmVxjVBBCFBHzxEG1L+kY8UPiSp7U0o6/jN/IfyUQLCSThEO3BNfmaVrAlZf+SirfIswRrtVvpfnSrrd9l991LFad21BONN2+gAM/VffEvzWF4ogos9JS9B/tI22JGzCUZq+awvpwdB9Jn5Wr0tc1+TrfwnyQJjlWYKyKCPByLPSox1s17YlTif/B9lpRrOV7DTfjV+jgYAx1kISrZZFIItR1fFzNMo0knkG2RlJtLsvryA73dcmUaJAYLYItCM7s40QN9siQKtD00Qwj9AdCCBBnGIUUl23VIgoslPIV910hhovyE4zUkF2mvHohl8WAbxfFgS8F2UBphvKNhJlCLIzEih3bx5Bdrq3baJkgUBbBILstIUlLgYCo4ZAkJ1m6NuRHcI1DZyP71VtXXPswX/R2la1j2L4PVRNheeq8WkCi8Z38NxH5wnlbSUoMFSXOliqc9GgzmmNxC1YS6N8XBeUR1m1k1B9Pl8Y5I/nWQBU20iUapqDJDHL7SA7s0DSVxeC7PRVc0dlewGBdmTHRG3FjskPu2amQ3UmwOHARzmYHClb9WMPTbsymtCYPdUJVi6refhulZ+AVczx6qTb63EGws31wG3w1g+y04xRK9khDHMLzGzUfiv76Tj08F7OaTBmcKhS9nSU+MxyzzrrrPJztv9tcre/sARjJucq3RyMZfbOVQmKMZ9DmTpEjbkyM892Y/BgODAZtTfIWK1NmcT52MuEoNiHRXPO0yVsERfOGTw/lGAPp32QVS9rCJD6193zGGRnKMj37jNBdnq3baNmPYpAO7LDlbSN/ty0+vhOqOiGYPLjOUu5uB7mDch3E23ryp3y2hTMEUJZJRxqHUzaNj9Lm1tWHod8J1jZmNvtwsxQ6zkcz+k/sNJveJ4ruF100UUd7Uf2VHGvW0c4G456dyrNIDvNSLaSHcIul/G8QNogT/DkYas4uWiOPfgv+8oI+tXAjTInK0MJvLY5j6m4obdXkQe1bg4WHniW4/GwBKTNPpx242h5ZqD/SAPnNXXIjn0/CIn9d7xZ2mvnw+GEPXicj3COwJkMU2F5ILtDJaP6CK+X2qmUj/OH97///bOcszNQ/VqvB9lpRaS/fgfZ6a/2jtr2AALtyI6JnstRQqSPVcAPfOADeTLqhiozeVAuAg/vb74XE4fW8pk0eYmbU7IjHZO+tOFBAPVd3vIa6qpia3n64XfBjetm3tiGCzcrvzy32SzdSyHITnNrtiM7vOhZ8Rf0L54Xvac85nE7zzsYbQ3viB/84Aezy2Tk2DlPtAICxySetRjCw58xgmDNvbOFFGTHu87JhfOWllpqqfyca1xcS1s5eFukiXDN/rBCdqRHU8IF9Ic+9KHs8Y8GuniUnHfeefMGf94G3Uc0EDlOVCwSuEbTMVzBfrZq+lx586SG+MHPeWfOSUNC1EuZnI1lTOXlTb3GjRuXF5SQHfdWWmmlPFdYhDAOwMXZQTBFTmmSEBbpG79p1fxHQnha1H7ICc+IrvlezjGCp/w4afGBz1DGdWlYrOKuG6kStDuC3Hqo6FCxDrIzVKR687kgO73ZrlGrHkZgILLj3AWTbvFeZrLnsYwAQSAwwTvjgicrE6FJqmharJpx4WkyMcnQvjggj8vqctAdrYnJlmBAA7DOOuvkSY85hMnV2RDONWFqwP2yiU+aJtyyOkdjYIWvBFocAog8TaAmRBPzAQcckMstH6uvhCTf1cF5QiZAWgdxfT7ykY80yiltq4oEmRKkySyCgMQ9skMyldU131dZZZWcB89xJnZ1ox3iHreUvaTVy/+ZFmmvEuDITbS259bZeTYO6uTiWx9ZccUV8+o83PQn7aOdPE9I3HrrrfN5GdrIqi+8CWSEXMIXYQbW4jF1dCAk3P3WPtyGO+fJOSD6Bm0lV+fO4NBfWk2ZSrlH+n+QnWbE25EdwirtqveWptf5L4XccB3O3EmbGmMsUBh7kAnjlXEDQaKJ4HiCi3IEqLgxZw7nHrJDW2Qc4xWRQO87kvTv//7v+WBRBErfpSHhvpyLeOMfzQ7SwMU6wV0c6bnnfCx9Vx9EEJAtY5AFJv3aOKpOxkKLBYWcNaMy978sYsGN9sT4bIxDUIypzPK8Q94Z5mPMd51RxBTMnOC7esGTC3jYeNfhbnz1nqmzxQjzg+MMvGvwUj8acs5caHUcmCrIx7tpPPAOGD+cmeRIgBLgYR4QEJ+q2+7yTOt/ZEfdaIacV8TLp3OB5BdkpxWt+D0UBILsDAWleCYQ6CIEBiI7q622Wp7oTNCEUjbTVh1NPFYiTXKERUTE2SaeI0CY6KzWEWpNmlZBTdZIgNUwcQn8zuDx28TvHBlCgImPFsYEZkI0WZqYrAKaRE281UPgqmTHCh9h2bkqVg+dX6NsiImJl0Br0iM0E5RohEqevltVlA8tgQlRuUpoJTvKLW+ClnrDhcBNcLAnpZxMro6EeoKQiRWx8my/hFayox8gytoEmSYEwZawSLCCkf5lNRiJhBssrZ5bcSZgEZqkS+DRTwhGpc0QWddWXnnlnAdBxoo/Yde5OT76KEHK+SXuSV/fOfPMM7PQ69nRDkF2mlugHdlBfPULfcX7q68Q1BFh7yXNK61Eed+QFnHs3zM2WXSxKOF9LWQHWUaaBf3Du63PEpQ9g1wZo4x9b3/72xsu7ZlHyd8ijX5tjEJ2kCbaTXGNBfo5UmBsMV4IxlkEgOBfDiF929velhd5aKFoNRCf4QhlPLeYYEx0dpVgD43xE7bGNMQE2YGD8Rx2tECCsdx4q17GN20Ae4tV3mlzgPp7r80BCB68ilZOexkDBOQL8RKQHItpymQcL8HiCFf+gvYqccv9dv8L2THem2scYI34IKZBdtohFtcGQyDIzmAIxf1AoMsQGIjsmLStMprYrIybKAgGVh99rFjSmJjMrIKWCbmYFTg92wQoEEaZPHBRanLz24Rv5ZNpiNU/6RFGkSoCqzxMnAJTC4RKXLbmJVTJDsHiP/7jPxpefQjUyu0/EkRQNolblTTpWoWVp4mUBqCYUEhbnRGfEmZHdqShnPapSNPEb/+QdAnshHvPIHHIYT+Zv82O7FhlhwUSQ4sDQwKOFW8CJeGr4EbYIjhZhbdab3UX6amSHUILIQqZppmTt2v6J4EMqSEUC06mJ0Qhz7SBghVrbaRvjnYIstPcAu3ITtWMrfq0MYLGVX/y/tPICPoD4uC6fuE5fVDfKGTH/SL80mwgO979crgsgq0PEraRHe+6UMgOIoDoIFnIDgJkDDDG6qvGgkJ2CqlCdizoIAH6vbQ//OEP532Bxl9aD319OIK6G/u8B8gJ8mP89u796Ec/yud7GXuNW8iORSNx1IW5mmeRR22hjmXPjgUD6RkHYacNtAmtGFJn7C/vHYy998K3vvWtxvWzzz47p8uaQHmkiQgZyy1YCN6TqtOBfLHNn0J2zD/GZdojCy1BdtqAFZeGhECQnSHBFA8FAt2DwEBkh/lVCSZc5hbIjsmCoEhoMImZqKySERRM9lYJmZ5Z5TNhumayLuSBMIpIITaC6yb+ElfaJlOTZCFOzL+swpoMq6FKdlxHaAjP0mKSwjYe2SHEElqYLiBYJl3mc54zWdJEmVytrApzQnas2MIC2YGNNE3y6qeuBGzXrPoSLIqAVK1Hr36fHdlBZArZISTBUF9CfK0qIydwc6Cq69p14sSJ+Zp+RcDUT5Ajgtib3vSmTM7hiwxZOSe4MhEStEMh5IXs0ApJWz7+E+q6oX2C7DS/Ea1kp5igGbtaA+0J7a7gnZ9//vkzadYnimAsnrHCQbSEdxoM/YX2mGmU1X//aRZoGwjnFjL0F9cI3e985zsbfYWpJG2PoC9ZTDFeEtSRKhoaREaaBG/979JLL83PE7yNq8iOvsx0Tb9VXuOd8pd9JjlCh//QntOWKGMJFh/Uk+nf+PHjMxlSZ9oceAlwNv7SltHa0Koab91HTNRLO/hPkyI9GleEg7bI+ywgj+IL2mCBBRbIWjD1RwwtPjCTM0YgkUWzD2dtQFM/WDB/IGriGJOZxgrGBGNKnRB7duqg1jtxguz0TltGTfoEgXZkh/BP4CyBUIog8H5jUkNE2MIjNIiBVTITGJKD9Fi1Q4SKVsPEWCY3k6tVT2RDoDEiHCANJk9291ZQTfRlYiUAsL8LswAAIABJREFU2IvRusJp1bGYg0gL0SJIWLE1uVpFVD9CLuLEbIkGh6DhPo2BSVRZrDz6LaijCb8Ek2WV/MlH3ghO8fRmFZdWitCunL4TptipqxtBQFkLgStp9/J/wqWV7RLgoo8wKSJkEIr0E7jDhXCEpMKNBgf5YHKEiCA0hErXpMkjnj0DNIBMjjxvhVq/IcwwP/JBngVp+AhIqTYkvNJAWtlHdEufzA+N4p8gO83gt5IdfcUYYdxpDcYPWsASPMeUzLhT3j0aDIsPhdjSoDAlE4w1SLrnkRWBoO+aPkezbFzy7pfxiZtqGo4SjDvGEEFftpCCmOuv+jENszQFe2UI4d4FxB6RM4YYL40XyMFwBnnr91XSAB9jpIUieMACVtX3wzPuI2/SEF/5BbioF7y1hzFXGt519YNXyU8beq9LW3rGolC1vWAG/zKHyENb0CgNJSCT8BcQWu0tILJ+1wlBduqg1jtxguz0TltGTfoEgXZkx8Rtwq4Gk7NJwkRGO2Iyt5G8TPiEAKubzMRMcuU5k14RJKTnOiGiCB6uyctz0nUfuSqTPCEAeUJUTE7V4BkTWTUoE+JRBB7lMlkK6iUNeaiLyVPeflfrLI50SrC6qF4l+C1v/4vQwoxOPUtapc5MVBA65imEgn4KrbjBWBvDF26wIvyUvuZ+FTftY1W74KZNC5biEgq1k1Vxwpf+R6CUtmv6RhGifC99hYBD2EJ2EKXSD7qlbYLsNLdEK9lpvhu/xjoCyI3FpqEG77r9U9UxeahxO/VckJ1OITk20wmyMzbbLUrdxwi0IzvdBAfBlVbH6izhNkIg0AkEkG3at+pqdSfS7UQaQXaaUQyy04xHr/2yuFU0PUOpm3nAwocFj9EKQXZGC/nuyDfITne0Q5QiEBgyAt1OdoZckXgwEOgRBILsNDdkK9lBVIu2z5O+t/4ummPmV7SuxWTN84RlAnb1U55vzrn5F+FaPv7TOJf41bSbY/z1V2t52z0z0teUqbXc1frNaXlK3DmN5/kqPgXbanu4pqyti13aoloHbeLZkQhBdkYC5e7NI8hO97ZNlCwQaItAkJ22sMTFQGDUEAiy0wx9K9lhEmofTBFsbVq3P6sIw/Zp2atDa2eTvX1c3Jo/8MAD+Rl7wzjI4JigfKQ5WGCWKW2mkeLZP+a/zf2ckhC22wVmu2W/WLv7THiLuWW7+8NxjSknU7AqSWSaS4POtHROA5My+2pKm8xJfPunmJIyM9WWHAfYH8oEWJsyY+aNk6ODYvIqTrlmXxByZB+V/UAjEYLsjATK3ZtHkJ3ubZsoWSDQFoEgO21hiYuBwKghEGSnGfpWsmPfnbO/EATC8MILL5wdiNinJfAa5hwXzkpsjicEc4LBYQpNAAcmvCUiPeVT9vU159z8S/ocsNgntthii2WPgeIjQFwx2//VLihvcVjQ7n7VRXa7+8NxDXFzHEDZuC8P54txIFIlQEPNm+e04np6qHHKc7zQcW7AOQnHMJyHuMaJCXM13tiQScRVHkgQJyUILlLEU562Qbh40rMncLhDkJ3hRri70w+y093tE6ULBGZBIMjOLJDEhUBgVBEIstMMfyvZYZbGO6JVfCSC+3ru5WkHOMD4+Mc/ngVfZ9hwWCEQgJEeZIdW58c//nFzJillF/iE6BVWWCG7SRaXloPnSa6qkRJnvhSyQyNTAs+UND3icIteCBhNhHyRCATMf2fFOF+MtzXn+XCbziNlXc9gpQxz+p8XQlqvEhy8jLTQ8CCT6qwv0pLZU4NEOgKAMwHEjltq7qA5DRFPvbixdk4QwkLbQqPG+6b6cqkNf54Ppa8NeWzkSZFGiAZH3gJctCnMPFdM3bSNowqQHmnRBvF0SbvjN3x5zxzuEGRnuBHu7vSD7HR3+0TpAoFZEAiyMwskcSEQGFUEguw0w99Kdgi1BHVCLzfizl1y1hdTMdoAAq/A1G2JJZbIZ93Q7BR30+7DmBDtQ6jmnZGA7TptgvS52EdUEBlCdTl/q5Adh1IS/J0Vs/jii2cBn6t0RIp2hCYCUaKB4OqeO2fEjNMV4668fadh4XJ5pAONE+2X+tLwqDtNGTMyLvXV2cHRHHnQfMGS+3jx1JenRESHe31kx9k4sOGO2rk2zPcQG14WkR8HiPK26B53/IgNvMpZWKX+3F0jQIiQNi3n8LgvD23Nzbyy8syG7CC6CJH2b02vpNvJ/0F2Oonm2EsryM7Ya7MocZ8jEGSnzztAVL/rEAiy09wkrWSHFsDeEkI4zQLCgEggF8gEbQ9NBMHbf0Kzc8MccOlZ2gwfArIPDRFtEbLDHbmASDmvCWFCfAjSBHWHgxayQwskHft2aBNolWgc7A0SCPiEcmSskB3ncyFrtCXc6dP8jBbZQRSUDz5M/GAqIIX2ITErc34aoojsrL322rnsSB8tj6At7FVCdpBCBITjho9+9KPZ3IxpnHSQJtor5mY0XzQ2gkNXHf5agvN1YOgga1o12i+EtgRau1NOOSWbIcpLuyE7SJfAjbV+oL2GMwTZGU50uz/tIDvd30ZRwkCgCYEgO01wxI9AYNQRCLLT3AStZMddhMbqPwFaQDAIyYssskgWtmkqHDpZ9p/Yo8KcitZgIDM2ZKcI1gTwz3zmM+miiy7KBwgT4Gki5FnITtWMTRkQKXt6yiZ5hOmggw7KhKmQHaRLmapkZ9lllx0VzQ6igswhIsgJ4oAk2CNDO+LwU+XnyADZoZERxzlmTNg8C1f7a8wj8C/kR3oIgYOiPY+MOpga2YErkzWBtqc4b6AJWmONNTLmiJhA4wU7hIoGiqmcuMqINCKLtENIkryRK5of34czBNkZTnS7P+0gO93fRlHCQKAJgSA7TXDEj0Bg1BEIstPcBO3IDi3KWmutlQVbT1vlJ0QTggXC8S677JIWWmihrI1h/oSoEJAJ8PbzELTLp5ijtZIdm95pIpi+EfZpjgYiO/JlRqX9aDOU77LLLstC/+zIDgEfUUAERjogGLRjtDclMK9TXhoSe2RgUiU7nlt//fUzkaH5cZ9mp5XsXH755ZlE0cRsv/32ady4cVn7VSU7SBUzQuRkww03TIhfaRPe15Ap+6SkjWBJC8miVZMmQksbh6jpA3DnMGK4Q5Cd4Ua4u9MPstPd7ROlCwRmQSDIziyQxIVAYFQRCLLTDH87skOwtSndan8JtCWISAmEYkK41X4mZbQzhOoHH3wwkxBEpHzs2eEggFcwgclaOXCW9oD2gcmb+8yrmGG1OwhTnkyq5Kk88pMWLQnCwMW1a4RzaSFlNEb2BtnbMtKBlun2229vcn2tbNxI00xxuIAQIYk0NCXQvLh/9dVXZ00Vz3i0K4L6lT00NGywkIb2Eg+uxdW2/8wFeVijrSvt4b/nBfjZ96QtS9CWCAeNUcGtaJlo74Y7BNkZboS7O/0gO93dPlG6QGAWBILszAJJXAgERhWBIDvN8LcjO81PxK+xjACHDlx4z22gnXNOD7I13CHIznAj3N3pB9np7vaJ0gUCsyAQZGcWSOJCIDCqCATZaYY/yE4zHr32i7aHZmduAw0QrdRIhCA7I4Fy9+YRZKd72yZKFgi0RSDITltY4mIgMGoIBNlphj7ITjMe8Wv0EQiyM/ptMJolCLIzmuhH3oFADQSC7NQALaIEAsOIQJCdZnCD7DTjEb9GH4EgO6PfBqNZgiA7o4l+5B0I1EAgyE4N0CJKIDCMCATZaQY3yE4zHvFr9BEIsjP6bTCaJQiyM5roR96BQA0EguzUAC2iBALDiECQnWZwg+w04xG/Rh+BIDuj3wajWYIgO6OJfuQdCNRAIMhODdAiSiAwjAgE2WkGN8hOMx7xa/QRCLIz+m0wmiUIsjOa6EfegUANBILs1AAtogQCw4hAkJ1mcJGdY489Nj6BQdf0gZ133jl973vfa+6o8atvEAiy0zdNHRXtFQSC7PRKS0Y9egWBIDvNLXn++efnQyUdLBmfwKBb+oDDaSP0JwJBdvqz3aPWYxiBIDtjuPGi6D2JQJCdnmzWqFQgEAj0CAJBdnqkIaMa/YNAkJ3+aeuo6dhAIMjO2GinKGUgEAj0JwJBdvqz3aPWYxgBZGfVVVdNBx54YHwCg+gDXdAH5ptvvjRjxowxPKpE0QOBQCAQ6F0Eguz0bttGzXoUgZdeeilde+21Y+Zj1fuQQw5plPfcc89Na6+9duM3LzlbbLFFOvXUUxvXxlL9oqzD2xd33XXX9PnPf76pb7z5zW9u+m3z8d577910baTbpUeHm6hWIBAIBAJjHoEgO2O+CaMCgUB3I3DVVVclAuvMmTNzQR977LG03XbbNQp9zz33pN133z09//zzjWvxJRAoCOgfiy66aKP/uP6Wt7yl3M4alY985CPpgQceaFyLL4FAIBAIBAKBQEEgyE5BIv4HAoHAsCAwderUtOOOO6Y//OEPOf1WsnP00UenCRMmDEvekWhvILDOOuukyy+/vFGZKtnh+WubbbZp3IsvgUAgEAgEAoFAFYEgO1U04nsgEAh0HAF7GU488cR02mmn5VX4Ktl59dVX07rrrpsefvjhjucbCfYOAjfccEPafvvt0+uvv54rVcgOIq3/3HLLLb1T2ahJIBAIBAKBQEcRCLLTUTgjsUAgEGiHwG9+85v0ta99Lb3wwgupSnbOOuustMcee8Tm7nagxbUGAtOnT0877LBD+t3vfpevFbKDBNnv5X6EQCAQCAQCgUCgHQJBdtqhEtcCgUCgowg899xz6Qtf+EI2ZStkZ9q0aWmllVZKd911V0fzisR6EwGawWOPPTbv3UF2aAz333//xMFFhEAgEAgEAoFAYCAEguwMhExcDwQCgY4icNJJJ6WjjjqqodnhuGCTTTbpaB6RWO8igBR/5StfSc8++2x2UMD0kWOLp556qncrHTULBAKBQCAQmGsEguzMNYSRQCAQCAwFgUcffTStvvrqWbuz5ZZbpj333DMhPBECgaEgwOX6Pvvsk5hEzjPPPFmjc9hhh6UpU6YMJXo8EwgEAoFAINCnCATZ6dOGj2oHAiONANfT9ud861vfSiuuuGI2a7OHJ0IgMFQEzjzzzOzG/I1vfGPaaaed0qWXXjrUqPFcIBAIBAKBQJ8iEGSnTxs+qh0IjAYCzkxx2vxb3/rWdMwxxyT7diIEAkNBgPnaXnvtlU0fHVK7wQYbpAMOOCC9/PLLQ4kezwQCgUAgEAj0KQJBdvq04aPagcBoIbDeeuulD37wg+m6664brSJEvmMQgfPOOy8dfPDBafLkybn0DqFFfq655poxWJsociAQCAQCgcBIIRBkZ6SQjnwCgT5F4NRTT01rrrlm4/OhD30o/eu//msaP35845r9O7HRvE87yBCrffjhh6eLL7646Wlmbd/73vearsWPQCAQCAQCgUCgikCQnSoa8T0QCAQ6joC9OtwEl88jjzyStt1228bvcr3jGUeCPYWAg2mdy1QNRx99dPrhD39YvRTfA4FAIBAIBAKBJgSC7DTBET8CgUBguBEo5+wMdz6Rfm8hcPvtt6fPf/7z6eqrr0733XdfuuSSS9LnPve5xMtfhEAgEAgEAoFAYCAEguwMhExcDwQCgWFBIMjOsMDa84m+/vrr2VW5fTsrrLBC9up34403punTp/d83aOCgUAgEAgEAvURCLJTH7uIGQgEAjUQCLJTA7SIkhFgEsn7mnN2OCrwO0IgEAgEAoFAIDA7BILszA6duBcIBAIdRyDITsch7bsE3/KWt/RdnaPCgUAgEAgEAvUQCLJTD7eIFQgEAjURCLJTE7iI1kAgyE4DivgSCAQCgUAgMAgCQXYGAShuBwKBQGcRCLLTWTz7MbUgO/3Y6lHnQCAQCATqIRBkpx5uESsQCARqIhBkpyZwEa2BQJCdBhTxJRAIBAKBQGAQBILsDAJQ3A4EAoHOIhBkp7N49mNqQXb6sdWjzoFAIBAI1EMgyE493CJWIBAI1EQgyE5N4CJaA4EgOw0o4ksgEAgEAoHAIAgE2RkEoLgdCAQCnUUgyE5n8ezH1ILs9GOrR50DgUAgEKiHQJCderhFrEAgEKiJQJCdmsBFtAYCQXYaUMSXQCAQCAQCgUEQCLIzCEBxOxAIBDqLQJCdzuLZj6kF2enHVo86BwKBQCBQD4EgO/Vwi1iBQCBQE4EgOzWBi2gNBILsNKCIL4FAIBAIBAKDIBBkZxCA4nYgEAh0FoEgO53Fsx9TC7LTj60edQ4EAoFAoB4CQXbq4RaxAoFAoCYCQXZqAhfRGggE2WlAEV8CgUAgEAgEBkEgyM4gAMXtQCAQ6CwCQXY6i2c/phZkpx9bPeocCAQCgUA9BILs1MMtYgUCgUBNBILs1AQuojUQCLLTgCK+BAKBQCAQCAyCQJCdQQCK24FAINBZBILsdBbPfkwtyE4/tnrUORAIBAKBeggE2amHW8QKBAKBmggE2akJXERrIBBkpwFFfAkEAoFAIBAYBIEgO4MAFLcDgUCgswgE2eksnv2YWpCdfmz1qHMgEAgEAvUQCLJTD7eIFQgEAjURCLJTE7iI1kAgyE4DivgSCAQCgUAgMAgCQXYGAShuBwKBQGcRCLLTWTz7MbUgO/3Y6lHnQCAQCATqIRBkpx5uESsQCARqIhBkpyZwEa2BQJCdBhTxJRAIBAKBQGAQBILsDAJQ3A4EAoHOIhBkp7N49mNqQXb6sdWjzoFAIBAI1EMgyE493CJWIBAI1EQgyE5N4CJaA4EgOw0o4ksgEAgEAoHAIAgE2RkEoLgdCAQCnUUgyE5n8ezH1ILs9GOrR50DgUAgEKiHQJCderhFrEAgEKiJQJCdmsBFtAYCQXYaUMSXQCAQCAQCgUEQCLIzCEBxOxAIBDqLQJCdzuLZj6kF2enHVo86BwKBQCBQD4EgO/Vwi1iBQCBQE4EgOzWBi2gNBILsNKCIL4FAIBAIBAKDIBBkZxCA4nYgEAh0FoEgO53Fsx9TC7LTj60edQ4EAoFAoB4CQXbq4RaxAoFAoCYCQXZqAhfRGggE2WlAEV8CgUAgEAgEBkEgyM4gAMXtQCAQ6CwCQXY6i2c/phZkpx9bPeocCAQCgUA9BILs1MMtYgUCgUBNBILs1AQuojUQCLLTgCK+BAKBQCAQCAyCQJCdQQCK24FAINBZBILsdBbPfkwtyE4/tnrUORAIBAKBeggE2amHW8QKBAKBmggE2akJXERrIBBkpwFFfAkEAoFAIBAYBIEgO4MAFLcDgUCgswgE2eksnv2YWpCdfmz1qHMgEAgEAvUQCLJTD7eIFQgEAjURCLJTE7iI1kAgyE4DivgSCAQCgUAgMAgCQXYGAShuBwKBQGcRCLLTWTz7MbUgO/3Y6lHnQCAQCATqIRBkpx5uESsQCARqIhBkpyZwEa2BQJCdBhTxJRAIBAKBQGAQBILsDAJQ3A4EAoHOIhBkp7N49mNqQXb6sdWjzoFAIBAI1EMgyE493CJWIBAI1EQgyE5N4CJaA4EgOw0o4ksgEAgEAoHAIAgE2RkEoLgdCAQCnUUgyE5n8ezH1ILs9GOrR50DgUAgEKiHQJCderhFrEAgEKiJQJCdmsBFtAYCQXYaUMSXQCAQCAQCgUEQCLIzCEBxOxAIBDqLQJCdzuLZj6kF2enHVo86BwKBQCBQD4EgO/Vwi1iBQCBQE4EgOzWBi2gNBILsNKCIL4FAIBAIBAKDIBBkZxCA4nYgEAh0FoEgO53Fsx9TC7LTj60edQ4EAoFAoB4CQXbq4RaxAoFAoCYCQXZqAten0a6//vq01VZbpS233LLx+cd//MfGd9d32mmndNttt/UpQlHtQCAQCAQCgdkhEGRndujEvUAgEOg4AkF2Og5pTyf42muvpWeeeabpM8888zT9fvbZZ9OUKVN6GoeoXCAQCAQCgUA9BILs1MMtYgUCgUBNBILs1AQuojUQCDO2BhTxJRAIBAKBQGAQBILsDAJQ3A4EAoHOIhBkp7N49mNqQXb6sdWjzoFAIBAI1EMgyE493CJWIBAI1EQgyE5N4CJaA4EgOw0o4ksgEAgEAoHAIAgE2RkEoLgdCAQCnUUgyE5n8ezH1ILs9GOrR50DgUAgEKiHQJCderhFrEAgEKiJQJCdmsBFtAYCQXYaUMSXQCAQCAQCgUEQCLIzCEBxOxAIBDqLQJCdzuLZj6kF2enHVo86BwKBQCBQD4EgO/Vwi1iBQCBQE4EgOzWBi2gNBILsNKCIL4FAIBAIBAKDIBBkZxCA4nYgEAh0FoEgO53Fsx9TC7LTj60edQ4EAoFAoB4CQXbq4RaxAoFAoCYCQXZqAhfRGggE2WlAEV8CgUAgEAgEBkEgyM4gAMXtQCAQ6CwCQXY6i2c/phZkpx9bPeocCAQCgUA9BILs1MMtYgUCgUBNBILs1ARuDEXbe++90wc/+MFh+7zhDW8YtrSHs9yR9vD1iV7H9p577hlDI0AUNRDoLgSC7HRXe0RpAoGeQ+C73/1umm+++RqfD3zgA8nKfPXaJptskh599NGeq3u/VmjHHXdMd911V3rhhRfiExhEH5jLPvCFL3wh3X777f06nES9A4G5RiDIzlxDGAkEAoHAnCAQmp05QWtsPhtkJ0heEN3O9YEgO2NzHIxSdw8CQXa6py2iJIFAXyAQZKf3mznITucE3SANgWWQnd4fM6OGw4tAkJ3hxTdSDwQCgRYEguy0ANKDP4PshIAeJK1zfSDITg8OklGlEUUgyM6Iwh2ZBQKBQJCd3u8DQXYGF3RvvvnmtPLKK6drr702ffWrX00rrbRSeuihh+Zqf8vvf//7vB/ujDPOSF/72tfScsstN0t6u+66a9puu+3Sk08+Ocu9v/zlL+niiy9OZ599dnruuefSnnvumQjaTz311CzPdoLMPP/880lZf/CDHwyYvo35xx13XPrjH/844DOdKEs3pxFkp/fHzKjh8CIQZGd48Y3UA4FAoAWBIDstgPTgz14lO4RzhIKA/tOf/jSTgKeffjoThDvvvDP9+Mc/TldccUV2znDaaaelX/7yl+nPf/5zEu+SSy5JEydOTBdeeGG+Jp0vf/nL6Y477pgt2UFKzj333HTfffdlYf+GG25Il156aZLvZZddlr7//e/nNL1XVbIjf2SFEI8o/OQnP8npbL/99g2yc9ttt6VTTz01nXXWWemBBx7I5V5llVXSRhttlDfES/uEE05If/rTn/LnvPPOy3W3WV66999/fy7DjTfemOR33XXXJYSpHXGQxpVXXplOOumk9LOf/Swp7/XXX5/mmWeetPnmm6e777471xG2ynTTTTdlfJV3kUUWSRdccEG69dZb839p/eEPf8h4I2LKDvuTTz45/frXvx6wDO3KNRauBdnpwUEyqjSiCATZGVG4I7NAIBAIstP7faBXyQ6PgZ/85CfTJz7xiaw12XnnndPvfve79NGPfjRraZAEgvnHP/7xxMPgsssumy6//PJMBD784Q+nDTfcMC222GLplFNOSTQ7H/nIR7JwPjvNDrI0bty49J3vfCeTJnF22223nCbNzdZbb52WWmqpdMwxx2SywtMhwrD//vvneE888UQmPZ7x7Lvf/e5MdhCdJZdcMq211lppxRVXTBtvvHG66qqr0jvf+c4077zzZgL0pS99KX3xi19Mjz/+eNpss83SEksskespLaQLafF9nXXWyR9E6be//W1bsnPRRRdlnPQN9aF54qnxjW98Y1p00UUzwUF6pLHeeuul1VZbLWOz4IILpre97W35+cMOOyxj+uCDD2Zy8653vSshWsqpXXbYYYc0fvz4jPlYIDFDLWOQnd4fM6OGw4tAkJ3hxTdSDwQCgRYEguy0ANKDP3uV7Jx//vlZMP/Vr36VNTXve9/7MrFAGvbbb7+seVh66aXTkUcemQkCgkObwzxNHFqHZZZZJu20006ZLCBGCMbsyA6B+H/+53/Spz/96ST/f/zHf0w0LAR+xMJnjTXWyAQIgSlkZ6+99sru3V1baKGFMjmgYUIkmLEp09VXX51opJAEJMe7uemmmybnJNHQfPazn83P0pr8wz/8Q9YO0Sip77rrrtsgHEzNbrnlljT//PNnXFqFePkef/zx6b3vfW8mYepMY/Xss8/m8qr/pEmT0m9+85uspWG29v73vz//RnAQvHvvvTcdeuih+XwlGiWaJGWi3ULYkCPmcLROA2mXWss1Vn4H2enBQTKqNKIIBNkZUbgjs0AgEAiy0/t9oFfJDjMpZMJeG9ocGo0f/vCHWfgnzNPy0FqceeaZiUaFJoQWh+kWkkPz4/BLJIJmZKhkh7kXLRGNkTjMuJh6Kcf666+ftSu0Pe3IDjJEO/Lzn/88a1xod5Ade4VoQRAF+4Xe8Y53DEh2kA8kC1mzlwe5WmGFFTLZQaQQJ3krmz0/7UiE+/qFeEgirRjzOngiO8jbNttsk4kNLc173vOeWcjOt7/97eScLsRnwoQJmewgWaeffnpuC3gjXPYcIVjtyjEWrwXZ6f0xM2o4vAgE2RlefCP1QCAQaEEgyE4LID34s1fJDtJBuD/44IPT17/+9bTHHnvkfSc0Hfa2FLLzox/9qIns/Pd//3dafPHFs+YBIdh2223niOw88sgj2SyOyZd9NMjO5z73uUwc7AFafvnlM3mwp6VVs2OvD5K01VZbZS3TAgsskMkOE7I3velN6eijj84k7N/+7d+yNmrLLbdMa6+9dt5/UzQ76v0f//EfOQ2EAxH51re+lcnOwgsv3CA7zNHakR3Eg1ZKv0AK4cEUEGlhovapT30qE0Lmc7D1Qb6YqCmfMjPNQ3De/va3J2VgVveGN7whXXPNNVmrxmyPRk0a/gfZ6cGBJaoUCNREIMhOTeAiWiAQCNRDIMhOPdzGUqxeJTvMrk488cRswkWrw3GAjfKf//zns+aEeRUCxEzrmWeeyaZlnAn84he/yMI987Xdd989MTG766670i677JI1IsyvXKPc+X/QAAAgAElEQVQNaqd5ILhzMICIMP/yW7pIwhZbbJFNww488MC8yZ/2iGME2iTtwKTLfhnP2hODFNj/w5mB9JjH7bvvvnk/Ee0KjRGtFW3JUUcdlZ9lusbxgrRXX331xLSMYwD1pKFRbqRKfZiitasDUzd7a2iS7F1C0pQNaUTG5KtsvnOsACtEBoFEjuzxUT5aKZofhIhJHsLErM+eI2nLw7V2ZRir10KzM5ZGvyhrNyIQZKcbWyXKNCYQmDZtWhY8CB/xGToGzGrsCwjMho7ZnGI12i9Qr5Kd4RSWERgOEJCn6mdu3VEPZ5nbpY3kVctfvtNGtXs+rg3upjzIzmiPaJH/WEcgyM5Yb8Eo/6ghYKWSecVnPvOZ+AQGXdMH/vM//3PU3omScZCdwQXYViGf17Vjjz12ln5E29H6bDf/po2hQaqOi/YJMUnr5nJ3c9mC7JSRJf4HAvUQCLJTD7eIFQgkZIfdfDdPklG2ORc6xzpmPFeNdgiy03/9bqy/N91c/iA7oz2iRf5jHYEgO2O9BaP8o4ZAkJ0Q6LpRQAqyE/2yG/tllKl+vwyyM2rTfGTcIwgE2emRhoxqjDwCQXbqT94h+Awfdt1Cdngt44EsPoFB9IG56wM84Tk/KEIgEAjUQyDITj3cIlYg0PVmbFy98hxVl1g88MAD2U2sszCqaTjEr5zmXr3eqe82ODvEkEepuUmT5yxnnBTvUMjpww8/nL1GcZt79913z1X6c1O24YzbLWSHu+QIgUAgMPcIOFQ2yM7c4xgp9C8CQXb6t+2j5nOJQLdrdpyK7kyPuoK1E9+dAO/ww2oazsngxna4zrFArrjD5Wq2mu+cfucad9ddd00/+9nP0h133JFd2iJQPg5ILIcszmm63f58kJ25fLEjeiDQZQgE2emyBonijDkEguyMuSaLAncLAmOB7Dit3ZkYDuC76aabMnlwCroDBp0TQvNDA+KMDJvKnWfxve99L02aNCkhO0yR9tlnn7TmmmtmLY/rTox3BgYtyUEHHZTPuBDXCe7O7kAGrr766uyNycGF4jtRfiCScMEFF2TyxHuTeFWyg1A5I4Sraqe4O2mdxkpal1xySc5DWZzF4dmJEyemb37zm/n8EGeXIEzOOHEWyT//8z8nBNDhhMiOssvziCOOyHE9d+ihh+Y4zgH56U9/mg444IB8mCPspO8sEBiJhzQNF+EbCKuhXA+y0y0jRJQjEOgMAkF2OoNjpNK/CATZ6d+2j5rPJQJjgez867/+a7K5daWVVkof+tCHEtMihxoiCA5CRIZoONZYY43kFHj3nGzO9AvZefOb35yJgoP6PvCBD2SCYeL993//92wGtuqqq6bFFlssn2A+//zz54P+nAvy/ve/Px9A6ABAJOMrX/lKW7LjsEKHCNLArLLKKvn0d8SraHaYmskXOeO+9q1vfWsmJAiXk+K32WabfNq7MiBf6sT1MnLnwMcVVlghkzQnwTstHiFzuj2yI184wEhduf11mrv6rbzyyvkEd+ktuOCCuWzIkDp+8YtfzPGUWZ5DISAj+Uy3kp3rrrsunXDCCQkJ9UEc77zzzlpv4auvvpoPpXSYJbNKfQZRnjFjRk5v5syZ+bBOGr12Qb/ycUjllVde2fQIQq+sr732WtP18oOLaCRX0A+nT59ebg36X5o0pYi7j36nLsr7+OOPpylTprRNY+rUqflcqtdff73t/XYXmT1x99wakHR17IZgkQIeAwXa2YL1QM9023XmvxaRqmacxrnTTjst6TvV4D1gauu/cckZZPqwueWWW25pPBpkpwFFfAkEaiEQZKcWbBEpEEhdv2eHFoNmxh4YGoq///u/z9/thzF5Ou38v/7rv/LJ7EgOUlFOIHcQIEEMGbr22muzcPTud787nXXWWTlulexIm9CJkCAHNCLIDqHKQYJIyUBkxwnqtD/yRz7+3//7f9nkrJAdWphFF100XX/99TktG3VpX2hqkDPxlRORI3jKf4MNNsiCxmOPPdYgOwRhJIg2qJixqQuNzXzzzZeFDWRn3LhxibAiDwSRsOyEeGSKRgy5W2aZZTKZItAQYkaSyAwlr24lO/vuu2/WiGlTH9o+Ql2d8Morr2Qyq0223XbbTJoQa1pK4eWXX85awCuuuGKW5BELGkBCJpJ06aWXNj2DBNFGtiMEiA2ShvhKZ8KECXNEdpQX8VZ3GCg7siXd//3f/82Ep6kwf/uBCNFYtitTu+ddO/roo/N7X72vzNzlq2M3hGOOOSYvlAxUlv32228WMjrQs91y3fj3nve8J+NfymTMnXfeefN4Uq75b/HkqKOOyn0BFiuuuGK69dZb83hEI19CkJ2CRPwPBOohEGSnHm4RKxAYE2Sn7Nk5+OCD0xve8Ia8WkiDcvjhh6errroqkxlCv9VxAiDiQvhnLoZEIEtWXp977rn03ve+NwtpJt4q2TnyyCPzqjNhE9m4/PLLE2LE3Iww+U//9E8Dkh1CI80J4kDY+7u/+7ssuBayw8SNQICgIGCIEyJCSHSgq3LJD1GjyZG/e8hXleyoSyvZufDCC7NgIX2CL7KDzDCjY9r20Y9+NN17771ZM4Zw+X766adnckjLBBuCyVAIyEg+081kR79rDfoeLYd9YIjAySefnNZdd91MxpFJBIZGzjV9zIo5PDmZKGTHb9pHGhmBxmaPPfbIfeDRRx9N22+/fSbye+65Z6IdKWSH5oO2iXYFOWCiuOWWW+a0EAtEaKONNsraQ33Eyvyyyy6bNX/ypOWbNm1afn8sFCDazC5d+/a3v50OPPDArCn1ziA0P/nJT3K5aGoQD5oNhE8ZvF8EXPWjNWRmyjxUnt5fhF65pavfCYiXQzxpUy0YrLfeeukb3/hG1koVsiNfZWKaCQdaz24jOxZkvH/qu9pqq6WTTjopL0RYZFh99dUzRuedd1765Cc/mTbeeONGO9NeaR/9AmbS0Wf23nvv3JbMWBFffcyiivgWb4YzIDs0w1/+8pcbWin9hMa8VdNo7CkaIP3BYaxF+xlkZzhbKdLuNwSC7PRbi0d9O4ZAt5uxMdGi/SiCIdJx8803Z2ENISD0vOtd78oCPIFi4YUXToRBE7AVa0IBYYNAiFTQ8jC1oKURT/1pYwhVTz75ZBZUCVy0Lcstt1x+XprMxwbS7BBCECfCCo3JG9/4xlxGAgziJV11QGyQC2ZmyA4S9G//9m9ZqHCfuZp85U9gFg/ZGT9+fCZSt912W5pnnnlynREWZSIAuq6MzEg4XlAfZAeBY9qH4BCal1pqqezoADZWxuFH83PXXXcF2WnzRhFaixBXbtPsLL/88lmgdR+O999/fxZskYyXXnop76OiIaS5oV1h+kOjgQwxAbPPCjGmMVx//fVzH9UWRctCUCTc6x+EfiZBm2yySf5N6LX3jLankB0CNA2n55ElREieCI/+g2AgzvqBPui+lXhOL6TNpTLioSzKRCuo/Eg+ckEz8eKLL2YSTYNDELffSz9C4Ggcma4hR7SVNDgWGvRF9fU+6pv6pO8ImPeWhlIgUNMSIYgljnogAYXsIELwVjYkh/ay28iOMiJqFiX0A4sdMDcuWOgwbjFZ1RYIg3fcfRpk7zDSqH3UEalBqidPnpzHEOQQeTImuT/cZnHIDtJr/FJW5VA3Y1M7smOxxjhicYimXX20eZCdMnLE/0Bg7hEIsjP3GEYKfYpAt5Odiy++OGsskB0r4NxFWyW2Wm3Fs5jS2J9DMHWfQErYI1RZHbeaTRAhIBAyTdaED6uwCAWtkPielx/yQuhznyBm4rfPhuCpHO0+VqcJsQROGhV5iEfwYbNfnBzQxCBZhDjpWNH++te/ngUbgo8y0hQph3rSCDBtIyi5R2CWFk2V/5wpWPVH7AisnlMfq8MIHmKnjupEOFZH3wmjVuxhigS2q9NoXutmzQ6TQO3qo/3gRBBFLgV9AWFBJLSLPqeNaEQI9Fa+tV0r2RGXkIgQIEpW+Zk+Ct5T7fr9738/E1QEp0p2lAmB0d5Ik37h/dB/kBHvA6cdTChpgFrJztlnn501L+IiLXvttVfuG0gJQVZAqM4555xMyJEfwq3yIEnqVSU79oExe3Kd0My8aXZkR91gifTtv//+jXwK2UF8CNrIkzLaw9eNZIf2S1sjq8qoPQvZMR7ASp20PzwRAmZfJSAUhSDpB9534w7SjAh6Z0ciKKtyyx8p1n7GQ2VqR3aQY/3VgpCxVQiyMxItFXn0EwJBdvqptaOuHUWg28nOaAncBFEr6DQfTHuYmNmfYDInkFU/iMfsyomE0bYwL7P6T9M0WJzZpdcP97qZ7LQzY0N2EBwB2UFyCOVFW8EECAmmaSS4DkR2EBFCIzJPm+M30kSTIQ8EVn8kjLaSHaRKfp7nNIFJJTIrLgcetDLve9/7MpFCfKqaHSSd2ZQyI1qIhb1gxbugeikXwmaBQf7yEZheWhRAdmiTaHZoMOAkf2aZBPwq2aEBQtgEGg5pIi/MUmkrmVi6VsiO+sAQyVJGgng3kh0Yqj9slLeQHZo4Cx20UwgsU0VkABFlAsskUFszO2XqWjCzwR8ecNe+VU1JBm+Y/mhfZdVfkU/aZQtHA5GdVg2oYgXZGabGiWT7FoEgO33b9FHxuUUgyE57TQ1CwVzE6j1BxWorbYkVcyub1c9gG/xpZAgwBDlpMQ/qRm1KN5GobiY7SKsVfB+EgrZjdmQHCSI4Ms1Cggi0zIPaaXa8z9IjANN2lOCsKCv89vggywTJKtmhJUAIaFFoMrk5t7eFxvId73hHfp62hrll0VraN4I8MGNjWuU37aSPuPp7K9lRNmmqA2HePhymkgR5ZMceHXW0r0R9aQa0pTQJxK4jRzQF9n+o09JLL90gUEiMRQX3EL5CdmgkEQCaDQI34XuskB3lRQIRG+3CJO2QQw7JJoA0b+ql3ZA+bYUUIjfMYBFnmJU+NtJkR/+wz4zm0DgWZKe8kfE/EBh5BILsjDzmkWOPIBBkZ2Cy003Cf7+VpVvJDgHbqnf50I4wH2S2xVRSYMbkt1Cu22tDiGcuhuzan2GfC00NQb7qopdmBXlgslUCQZPgy0RIfGQbefBhpkiDUPKjAbAij6DTGCgzAiQOjSIBm4kkU0l7S6RJE+F7cV6hTAKzSM8LTMmQIgER8iwzNuZsRcsjL5oLe8/Ul/bGnibuiJEh9fShnaFtcl+69hbBw4IAgqSsAm2CBQZBmZjGMatD7Aji3RCU0ThqXwssaGjUTxtrNwsb+gtzVlgyKURe3IOJdqLpQSKROM8zg/MbvqVv6F/afiSCPlUcSOhbftvrBXdjUTUwi9VnW4O+qe1LsDigrSMEAoFAPQSC7NTDLWIFAnmSJlgyq4lPYNAtfYA3vdEOtDEEtgiBwHAhgIzS4ND+efcQgl4NQXZ6tWWjXiOFQJCdkUI68uk5BKxIrr322o2V6rJiHf//b/U+sBh5LLjJHu0QZGe0W6A/8qfxodFiMlu0aL1Y8yA7vdiqUaeRRCDIzkiiHXn1FALIDtv7CIFANyFgT8hohyA7o90CkX8vIRBkp5daM+oyGggE2RkN1CPPnkAgyE5PNGPPVaJbyQ6zIy6S7YvhJMAeFftV7NPgqGKgYD+HfQ9zEnhPs0+H63Gb+u3XsG+iU8G+G27OBwruK7d62XPTybwHynOsXefsQTvZe1OC/Vn6RvVauTfYf5jbr1Un0BDZf2Wvl302+oz9TWX/lf1WxbW+PVX2FWlXebYGThLUwV6qEtTVnqmSXrk+1P9BdoaKVDwXCLRHIMhOe1ziaiAwKALtyI7J0mRYDSbSORF2TPgDbSC2EVl6JlvBf/nVEQ7El55Ns2WTtGvyVoY5CTYFtyuHDcPtNuDOSdrlWWnZCN5LQX0IxNX2g5c2bg1lU73/1T4GF4J1Cd1Kdgii9ljYZO7ck1VWWSVvpudogGexgYJN3Fz4zkngActZLdxJ897Foxdhtrw3c5JWu2cJslWPb63PcCfN/TSHC8ysEL0IzQjo47zYVfd2cUKhj9QJ+hE39XMatA23+MZzZJx3Pq67nbXEgx/zOAfEOl/JGVv2B+lHiBpHEq1jO9Pd97znPflsnVIW9XIoc3EeUa4P9X+QnaEiFc8FAu0RCLLTHpe4GggMikA7smPCNUFWg4MQq551qvfafedliUDYLlipJgwUj1WE5OKatt3zg13jIcgGX8KylXACiLxN2HMSrFyqd3U1U3wHlXIZ3YkgLULIQIHgMVIelwYqw5xed5Cl0+JpOQRCFNe5DkhEIKuBm2FnrDiHxXkxCABBixDGO1cJ3Up2CI/cTZd60YzwmsWtM/fQ2o9HLu6EP/WpT2XBkttxdV5ooYWyBzMEo5BD3tz033IeC0LjFHrpc/Pr/JsSPIuAIJc8dDnI0XvJw5rnlYXrZu6NCbECcuS8Hm6NvddW8pEycb2H+qN+D//ddtstC+5W/3lhs2+K22FEjZbAIgj3yfL0kZ4FBav9zg5yhpT3Z6BFjlKPXvpvgcXYVQ6U1Zfhz5MZb2tw5b5bG8ALKXLe0tZbb53HKn0Hls7tgjNPdssss0xuixJHHsgmd+DcUDsjST7OMXLQp/OPvDtcfXv39D9ez3znPp85pj6lP0oLeZWOYAz2DrZqJY2dzhjT34r3tT322COtvvrqQXZ6qQNHXcYUAkF2xlRzRWG7CYF2ZIfpgwm0GpZddtkslJlAkROTrY/fQrnmv2tWo50J0fqcydY5IVb5mEkIniGMEfLFLXFKWtU8XROkQ8Czoul/+TgDRToECm5bS1rVcpaySqN6n5mHenMlWy0HIYKw14mg3gQg6StzyV9ZfJSfUNR6v5S/lLnUwXWfko40Bf+rz3Si7AOlgWha8bXyKxDGYeasmFKeEvctb3lLQ7CikSNQEcytSnNlXEK3kh0umwmj+vC+++6b3U3D/5JLLsl1oNH6+te/ns+I0Vaf+9znMhlAgrQ9Iu7gSQsH+u43v/nNTKRXW221LCAjRs7gkU4r2bGiTtOjf/JWR6D1/CKLLJLLIX3PMJfbYYcdstCLUCIzNDQImcUAB+QiS8iR1X4ujR2gSyOg7Zz5YlzYbLPNMpEjgDvfhpC88MIL5zzdf+9735vfNcTJmT/aeqeddpqtaVxp3176DwvEUD/QJkiJYBzdb7/9clvq40gPEvTOd74zOyNAcC0SMBkzZtk7aZHAO8IdNaKLONGAuqdtmUtqK+2HvGhT7UdTo49Vg/6H2Go77xaSLiCt3jvtpQ9KG0GqBmRn/fXXz30ZGZcvRzYOmw3NThWp+B4IjBwCQXZGDuvIqccQGIjsmJgJ3eVj1dokZyWSeY2VSBO1FUUTJQHJqjLzCZoRhyx+7GMfyyuY/jtJXeBxyGRt5dhKodVPgjqy4zwNeyGsaBLWmAhZeSyr3srkY6I3GRMqTMBWp61ymtDf9a535cndCjxBzgoqDYOVUZO7SV75CZcEAcKZFWnlqZIdwolyqNPyyy/fcbLjXA1YSd8qKwJkZVf5rbCrI8Jg1ZcWhDBNMLFyDgNCNIHbae1Mq9ST9oAgTShl9iSuVd050cjV6d7aWjvIkyBFeFM3q8CtZGeeeebJwlnZ4+IQSkLhWCE7+jZtBgKgvhYBaFwK2SFgwlv/RPhpMBGMgciOQzlpDfVh7YqkIx1wayU7BGUaIwIxsoNk+sBZf3VYpf5s5V//US7ES5Ae8quvyEegESpkh2amrO7rYzQBrWSHRpLmqQTvP+2QtnOmjLorP61uvwUaMO1ogaVotI1t3mnjkrGGuRvSaewRjAE0J9oFdsZB462zdgTjoXTdNwZaTCjtLS6yU7TAxrvq/ittiUgb65iIajvjiYBIy6O8m9pP/6kG/dfYRHOkL8jXAa/tDhWtxpvdd2Q8ztmZHUJxLxCYPQJBdmaPT9wNBAZEYCCy41R0wlz5WMVFdnxMtOKZYK1uM2NBaEyYBFf24QRgq9CEXxOmSdLkahWRgGTlkiBOgCtkx2RtJVp8HwI0MwyrlyZr8QmVhDBpEPhN5AiU1XDmMzQCVr4JXfJHEAibfhMaCKfIAE2N7+IwQTGRF7IjzyWXXDILHkzjCIed1uwUsxQCEfMvxM+qP0EI8XKwIjJH+IElrFx3srw6M4d529veloVaxNChkZ4lDFtl1y6+FzI5YAfowA3lI0jRitm87OR7pjEIcBGoSjb/9E//lIkQwUf59Av1GStkBxF1YGcJhFt1L2SHZkR/1ac8BxMazEJ2CKFW2AmpNFuEXQLxRRddlE3MtCPyDZNWsiMd7xxTsgUWWCAvIGhzK/fS814yW5MGImLhoKzm6wfuMaErmocq2VEHxFnQd5RJv7e4UTQ7NA2IOcHcR19FbDxvXHANaetHsqNNEFvkEha0PMZF451xDWFALOFpXBN8d9/4Z5wxJugHZc+OMRLZMRZazND+yJJrheyUNtMHihkozZ420Qf1R8Fik4UFwQKSd1NQTv212qddR3aMOWVstfCExAfZybDFn0BgVBAIsjMqsEemvYDAQGQHkTABl4+9FiZxZMakTYgisBLWrHQTsGgSkB4EppixwYjwIz2TpVVo8QlS0iymbjQ7VkSrK8eEeMQDuSHoCwREh6AS6JluCAS+dmSHICpY4ZYPskOQQIAIJwRCQVmlVcgO06A3v/nNue7uS3s4yA4BRVloQmhk5F/IDmEFFlZnPXfooYfmMtDelDD//PNnYQSe2sGzzGa0kZX6Uv/y/HD9R3aUD8EhJOsXxUSqlez8y7/8Sxae9QXmN2V/x1ghO0iNfmuTt3ahXaOJIRQi2voaIZF2BGFdYYUV8qo4oiCetiEwqi9NjDiuEXpdt4KOUMDFO0EbIC99wUKAlXHvAMFVGhYjXGdep83lqz8jTDQDhFpaT33Y3hICeDuyQ5gV36KAdxNp9c7SFNEoqCuhW14Eev2ThpawHWTnr2a8xiXEAcFAImh0mPjZ06YdaIqRikJ2tLG20DbaSFz7pVrJDm9ptNP6hvd73LhxmbjS7BSyY+zU3xBOJNdCDgKr77inf1jAQpYRcJpkQVk9VzREZYwoZMd+Hf1RP0CYg+wUhOJ/IDDyCATZGXnMI8ceQWAgsmNCrAaTp5VIAhGBDgky+SI9JmgfpIcAZ9IlcJnABauaJkuTPoEL6RCsUhLamFUQ7BAQwp+VSYKwyZlQXARh6Vv5JEDQ9JQJu0p2kC025sjNhAkTcj7IVpXsWEmVV1ndbCU7NEPM3TxDIBkuzQ4sWskOQYfgfMwxx2TTF3Wm+bEijxStvPLKGR/CyT//8z9nzQ4NCSw9a3XXqi8hp9Q/gzCMf5Ad7U7oR3gJ6LRnSFgr2anu2akWqbRxuaYfjHZAWqpetkp59E19Rr2L6Zc+jeDpiwRQ92m4aOv0R/cJkMy9CJ60jd4j/Zswq08iItKEneB9QzR8aGVoSUvw3fM0nIUwSoeATdgtnu4IsxYi5OU571ZZOEBoaG3Uh2ZRmWkPijYAuWEyp/8ZJ9TBPVqqc845J/dd/ZcZK6GYgK9fIu39GLSzhZISjGvGRfjbN8W0EDZVLQpzTm3o/dYePt5/QXvRyMAV/hYvpAFj2hnvufiCfmRxSD9CiEu/8V9++guSrN8pk7IJCDGCXPpLvphS7sOcWQil3CXt4rCgPDvU/2HGNlSk4rlAoD0CQXba4xJXA4FBEWhHdghDzFGqgeBnkqXhsJKL0Ji8mH+ZXBEQcWgYCD+EbhO4YLK1N4EgVyZy103ATM3EJywT8ghXiBYtgY3XJnXClhVF2gN25EXDZCIX3CdQmMAJ+cqEiNmfIBDCixmcDbaENjbw6iEoK8GRcKcOBBITvXKwtVc3xKcTgUmfctN+ESwJEARQ5ZU/UmYVXfmsuFq5t5pLWPUsDF1X9je96U1ZmFZPq8L2aqg/sua5Uv9OlHt2adBawJfgxZRHWQl3ytJKdpjhtQpW0ubGGVkooZvJTiljr/z33iHe7c5b6ZU69kM9jKFVIjVYnZEoi0fGCd+HOwTZGW6EI/1eRyDITq+3cNRv2BBoR3YIrVafqwEBsIprdZCGwUoicmElkukE4RbJsdLttxXgsgJIC0SQkmZ1dVr64jGPIOgTggnI0qGpYPbhuonYc1Yh7WUQaDFK+srkunythiqrvMqKt/zlIVhpl546FuGulBUJEg+pENQFcfCcNDoR4KXc8ldmZZGfusvfdcKnOqmj9vHbPXgjNa4hjfPOO29uE/W2cR7pK/WUXql/J8o9uzTkU/JF3NRBeQu+1bjIaysBcl951beEIDsFieH/r728z/pchLGLgHHFGDDUYOypmpIONV7d54Ls1EUu4gUCf0UgyE70hECgJgLtyE7NpOY6GqGdNsi+Hh8aEEJzhL8iQDihvbGvhx09M6deDUF2erVlo179ikCQnX5t+ah3pxAIstMpJCOdvkOgm8hO34EfFR4QgSA7A0ITNwKBMYlAkJ0x2WxR6C5CIMhOFzVGFGVsITA7ssPkjFkXjYJA88JcqZ0Z0lBqLb2y+bk8z/SibJYt1wb7z5yumK15Vrn8rluuwfLr1P2qOV1JE7bMvdRhTgM81btOkB/TwBL8rraN39q+tA1TuyrmJZ7/zM+kVdXCMY1qZ8ZWjTe770F2ZodO3AsExh4CQXbGXptFibsLgSA73dUeUZoxhMDsyA5vXtzPFo9ThF0b+OsKsc714C0KKeGIwP4VG9O5K56TwOuRcyeKpyyEiUehUs45SWskn+X0gEOGauCdixBQCGX13mDfmbFxaFAn8KjFm1MJ2prDhBK0C6cUPDzxLoaoaTP7h1oDc0MnvdtTJagLRxbtvLG1xh3od5CdgZCJ64HA2EQgyM7YbLcodfcgEGSne9oiSjLGEBiI7BBYnePi/I9yWJ3Ve8K6zfB1gjSLBsO5EYRorqyL17ahpsld7tvf/vZ8No04NrdzXV3Iz1DTGennaEkWXHDBvCm45M0lN/gJ89cAACAASURBVE9ydQKS2OoifCjpIK1LLLFEbgvaHO7DHRrrnB6BUwYurpUXwSnnsvjOa11r4EnuAx/4QHZH7J40OVJw8GVdbVuQnVaU43cgMLYRCLIzttsvSj/6CATZGf02iBKMUQQGIjvOCHEGDtekDhFkllTIDg8+3Ds71G7bbbfNh9y5T3Pj8EOHdW6zzTb5zAlndyAi0qJ9cX4Mt8jvfve7s1YCmeJ1jctih+1xK82jFwcF0nAoI/fL0nXujryRHS6onalD4KchKmSHJzeuomkVCMy0F86VQAqcl+NQRO6xfZeec1GkSYPl3B0aI/Woo2kZShcorqQ9S0O20EILZdNAeaqDA1ThesUVV+SyObgRnurAfbd60aI4s4WrZucfwYbTAi5kYcFdtvo5aZ0ba1qZZZZZJtfRAYbKUFyLO7SVFsZZH4XsaJ/ilpu2TFvBAwmCTys2nneIJdfgTOvgucsuu+TDEYPsDKVXxDOBQO8jEGSn99s4aji8CATZGV58I/UeRqAd2bH3ggBNCHagXDEZK2SHID5+/PgsWNPyLL/88lmgdv4LLRABl5mUgwp5DyP40r443JNALP2qZscZOvbhOITUwXlMpRARgvbEiRPzSe20Bc6boQVBdhxCeeWVV+bDPwtRoNlRXifSO9yPCRZX1ogBImHfCc2E79Jz5o2zKRAAGitmZkiA8hT3051uem6xnVYPD6ZjiCTygHSph3IrM0LibJ9FF100a8DUCRmzPwZBQXQQUoSG62fY8tAGs0suuSQTE0QVeUJS/uu//iu3jXpvscUW+XDLat1o1wrZkXc5EBZRcp6PNoUJElrcTJf4yA7Mdtttt9wnEFBtpbxBdgpK8T8Q6G8Eguz0d/tH7ecegSA7c49hpNCnCLQjO/bEjBs3LhMeWpLFF188k45CduztIEQLBHVaG0IxTUw554GJGm3Nd7/73XxgpmcJ4e3IDmIkIDIICLJDM4EUEdjtHRGOOOKIvMenkB2CPzJE27H55ptnMzbnz2y88cbZxA2pYaKF7CA1AkHcAYrSZpblOy0RzQ8hH/FRZveHKzDxQrrki6DBEHmhsaFRQbxoZ6666qpMZpSD5gWBEDzvoy6IpOBcIpouWjEkk6ZK3RBVZ6ggO2VPEw0a0lUNVbJD+wYHgZOCd7zjHTk/v8WluakGZEe7fu1rX8saKZozbR17dqooxfdAoL8RCLLT3+0ftZ97BILszD2GkUKfItBKdgjRxx13XCYWBRJahaJpIYhfc801ackll8zeuQi+yy23XCY7VvcJuQ4npBXafffds7kbDYbQSnYcTrr33ns39uxUyQ7yQivAfMu+FqGV7NhTIi9aKMI84uA7cuM6coBY+C2ugCAwB5O2jfW+06TQKIlz++2357LX1UjkTAb5c/PNN2cNyf7775/zpJmBFXKjDCeeeGI2P/ObSZtAi8Xcj7kgUz0aoWKe5z6yw2wPxrRenDZoG6Txvvvuy/ggqwICe+utt+bv5U+V7NBw0RjJCwlDWgQEcNVVV206/NN1ZAeZpImSNo0Owhpkp6Ab/wOBQCDITvSBQGDuEAiyM3f4Rew+RqCV7NDQ8PB12223NVBxjdaB9y+kgYaAQL7zzjtnwRrRsFfD/hhCO8HXXh7euWhPzj///JwWjcxpp52WiQaTNyRIXgiIcMEFF2QCIn1aAoRDmsW8igYIibKvh/ZBngJBX/meeuqp7O0N6WI+Zz8QDQXSULRH6oBUSZs5nu80HzbhK7cJWXmQvuEK9tXQVjH5kw8Sceqpp2bSxQsaLRPypazKIyBBSAxcOHWAKbO3orGiUaPlgbk46u9ZZE/9mA0WN9VwR/KqAamhJROUiYbJRxvT9AlM7GjLWgMTOl72kCOmdOecc07ej6S8dUljOChoRTl+BwJjG4EgO2O7/aL0o49AkJ3Rb4MowRhFoJXsELxtnCdcVwOzJ/tMaAeYNtHI0DBce+21WQvAy5oP8zVkpAjW9nfQMghIkzQI0wR+zyI29pEInvO8vSHF5Eqc4upamu4TqpWheHbzPPMt/30I5QR8dbCniLlbKQ9tkDII8i3f3ecGmkairoCeEx3CH+VWJ3UrAXFTbu1B06N+yq1eJagbUkNj47u6FG2N+PCUtjjqIg04w4sWrdRL3siE9EuoYuGaONpXu2svnzPPPDOT0RKn/NduBV94i6sfVctenh3q/yA7Q0UqngsExgYCQXbGRjtFKbsXgSA73ds2UbIuR6CV7AyluIRmGgiezazk8wIWYWwhwLkBDcxQA1JIezM3BGaoeXkuyM6coBXPBgLdj0CQne5voyhhdyMQZKe72ydK18UI1CE7XVydKFqPIBBkp0caMqoRCPwNgSA70RUCgblDIMjO3OEXsfsYgSA7fdz4XVz1IDtd3DhRtECgBgJBdmqAFlECgQoCQXYqYMTXQGBOEAiyMydoxbMjhUCQnZFCOvIJBEYGgSA7I4Nz5DJ8CNgHyzOq/6MRguyMBuqRZ08gEGSnJ5qx5yrRLWTnX/7lX9Jb3vKW+AQG0Qfmsg+88Y1vzK79e26wigp1BQKc4yAi/g9X4BAoyM5woRvpBgLDiACy4/wWbo7jExh0Sx9YZpllhrHXR9KBQCAQCAQCvYIA76SOqbjlllvyf7/nJiBMvMoWD6Zzk1aduAPlH5qdOmhGnEAgpey62OGb8QkMuq0PxAsaCAQCgUAgEAgMhgCzMmTHEQgOPZ8bMzMExzmDPqNBdmaXf5CdwXpC3A8EAoFAIBAIBAKBQCAQCAR6DAGHafsUouB73VDSCLJTF8GIFwgEAoFAIBAIBAKBQCAQCAQCHUGgmLAVbQ4TMNqd6qHZrRnZe8Nk2/4bH8+7Jm65Vv1f0vbf9fIbqaJRamc2V8pVJV7i3X777Y08lKGkpYyD5R+andaWjN+BQCAQCAQCgUAgEAgEAoFADyOAIFQJRyEZrreGorVBWO699940adKk/PH9iSeeSK+88komPb/97W+TDwLkmddeey0n1Up2yu92eZV7hcwgX0gVsiNdH3lUidlg+QfZaW3R+B0IBAKBQCAQCAQCgUAgEAj0KAKFvFS1J6rqdzsztKI5QTQGCiXNdvFbCczsnm0tA7JTiE/JuxCgKlmaXZpBdgpy8T8QCAQCgUAgEAgEAoFAIBDocQQKWWglEa2kBAyzIxFVmGb3XLt0EZWqdkZapVxVElPNo3wvWqgqWRsof88G2SnIxf9AIBAIBAKBQCAQCAQCgUCgxxFAEqombKW67UhEuTYYARmIbEi7HdlpR2zk0a5czOHcc+QHN9llX9BQyI58guyUFo7/gUAgEAgEAoFAINDXCEx78bU09ekX0+SnX0x/evy5ls/zaeqUaRmfqa9NS0/95bX06CvTB/w8N3VGfnbGzOlp8tRJ6YXXnhrwM3X6K32Ne1R+5BAo5KUQhnb/q4SjHSlpV9o5JTvSqJKuUq4qgfEMkqOMnBLYI1T27Shj9dmB8g+y06614logEAgEAoFAIBAI9B0Cr0+anJ448Zr04D7npdu/ekE66ovnpIO2Ob3xOfWbv0jPP/tymjljZrr4tJvSN793Xdrmuklp0xufn+Wz429fSLc899cDGp944Z50wZ1fTefe/qUBPnul6x86JU2fMXcHOvZdg0WFayFAy8J8DIkojgaq/wu58F8YiIS0Zj4Q2fBcO81O6/VSLuSkhIHybnd9oPw9G5qdgmj8DwQCgUAgEAgEAoG+RGDmtBnp6R/+Jt250ffTHeufkG7f6MQ0Yf0T0zZLfztttcQhadfVvpduuuz3acaMmemmy/+Qdlj+8LT18oenDc64L81/ybNNnw9f+mw66J6X0+RpM9OL02akPW66Pp14/UbpmGvWGvDz0999Ob0+/a+eq/qyAaLSI4LAQISgmnkhElVHAzQotCsIyUBhdmkPRHZKnLvuuiv5VPOUz0BapZLeUDQ70gmyM1CrxfVAIBAIBAKBQCAQ6HkEZk6fkZ676g8NooPs+Fy/xcS0/5rHpu2XOyxdcPINacb0Gen3Nz+SfyNAPjuueUJa+cInm8jOdje/kCZNnZE/G9/wXFr6ssfT3r8+Oh1z7XptyM7a6Yzf7pSeevH3ibnbi689lf/3POhRwVFBYCDy0FoYJKLqPAAB4u4Z4WnnerrEL1qhhx9+OJubPffcc/lWISftyFKJ045MFeJV1UTJ374d16pkR0Ylrdb8g+yUFor/gUAgEAgEAoFAINB3CEx95sV09xanZIJTiE75f/FWP0hnH3lVen3q9PTHu55KX934lExyCtnxf/vPn5+WveSZTHg2uuG59PDk6Zno7HPnS2mBv2l91rzqrvTd6784C9mZcMOm6b4/XZ1mzJiW7n3ml+nc2/dKL772TN+1QVR4ZBBABqokZqBcCymqkglamPvuuy/HR0x8nH1TNTvzDDLinnyGQnZKXtV9QtVyOUOnEC3pSp/DgtY9O+IMlH+QnSqi8T0QCAQCgUAgEAgE+gqB6a9MTX/8+oWzkp0NTkyPHverNGXy1PSXZ15KR+x2dsOsrUp2tlru8LT+t36dPnXdc+meF6el16bPTMc9+Epa8rI/NzQ+C1zyp7TlNdek4yvanWOvXTvd+eSFea/OQ5NuTKfcuHm67N5vp9env9pX+EdlA4HhRiDIznAjHOkHAoFAIBAIBAKBQFcjMPVPL6W7t2zW7jy43wWJ1kc45/Bfpq2W/KvpWhPR+Zs52xc2PCXd/vs/pZkppV8+MyUtViE6ZU8PLc8Rt57R0O5c/9DElNLM9OfJf0w/umXX9P3r1k+Tp/6lq3GKwgUCYxGBIDtjsdWizIFAIBAIBAKBQCDQMQTs2/nTT29Ld25yUtbw/GG3s9Lke55MM6ZOS38697Z05cYT0h6rHjWLCRvis+MKR6SfT7wxTZs6Pd3x3NS0/C8nNTQ6heiU/4v94sl01G8OSL+499A0ZdrL2SX1xfd8I53w60+nPzxzZcfqMxYSmjZtWvb0NRxlZc5kv0eEQAACQXaiHwQCgUAgEAgEAoFA3yNAi/PH/S9M92x7anrxpofTzGnT06TL7kl3bToh3b7R99MPN56QPjvu8GbCs+Qh6YzDrkivvjwlPXjnk+l/JtyWFmzxzlaIjv8LXvps+p9b70+TXnkyvT59Srrq/u+l465dN11+7+Fp2oyps7TBSy+9lK6++up09jnnpJ///OfpkUcemeUZFyZPnpwuvvjivz530UXJPoduDjfddFM6+JvfTN84+OBcrylTpnSsuDanf+uQQ3LaPzzjjI6lGwmNXQSC7IzdtouSBwKBQCAQCAQCgUCnEJg5M714yyP54yydl259NN37uTMae3lu3vikdPA6xzeRneP3uSATnWcffz4dvutP0nbjj0obnvvQgJqdFa+clO56YVqaPnNGuu6PJ6fjrl0vnfHbz6anXrynbS0eevjh9JnNN0+LL7FEWm755dPEH/yg7XNnnHFGWnqZZfJzG2y4YaI16eZw/PHHp3k/9KH82XmXXdILL7zQseIihyXttddZp2PpRkJjF4EgO2O37aLkgUAgEAgEAoFAIDAMCNjDc9+eZzeITvHOdsN2p6Udlzs8bb3kIekb2/4wHzI65dXX0+mHXJ6vMWvbcp0JafwlT89CeBa/7M/p1uempRkzUzr/iZfScTd9JR1/7SfTTY+ckWbOnNG2Fk8++WTaYostsvA+/wILpEO//e1Znnv11VfTSiutlJ/50HzzpR8MQIhmiTgHFx5//PF0wIEHppVWXjkhEH/5y9ztLVKPQkj23HPPJo9ec1Csto+ee+65jbQRxQiBQJCd6AOBQCAQCAQCgUAgEAhUEHjylOtmITqF8Jy3wxlp/81+kO695dE07fXp6eJTf5O2W/awhsZn62UPT5vsc3la/KL/IzzLXTEpnf3Ya9mBwbV/nprWuOYv6VO/uiv96HcHzdYpAde9u+22W4PI7PvVr1ZK+dev5/70p2mBBRfMz/z3Wmulhx56aJZn5vbCBRdckBZdbLGcxzrrrjvXmpgvfvGLDUJy2GGHpalTZzXhq1vmKpFqh1fddCPe2EUgyM7YbbsoeSAQCAQCgUAgEAgMAwIv/vaRdPeWE9sSnju3OCXdf8MfM9G58pzb0mdX/E6D6BRPbdt+7Ni0zil353N2aHS+c9/kNHnazHwGz/rXP5e1Pktd/uf04IuTZlt6e1kI7EULgiTYfF8C86/PfvaziUZnwYUWSocffnhq3f/y4osvpkcffTTv6ynxBvtfNYObOXNmOv3009N888+fy7H5Fls0lWGgtOwjQtZa9w8p30Ybb5zTQtKY4MnD2SnPPPNMoqkaLEiX1qvds7Q5Ba/TTj+9bVLqRzvlkMtwZNAWop66GGSnp5ozKhMIBAKBQCAQCAQCc4vAjCnT0pMTfp3u2OCEJsJz5wYnpud+dV/ive22ax5IX1zj2FmITiE82336lLT0L55Nu936Qnrh9ZnpxddnJkSnHDR64oOvZE3P7MqKBBxxxBENovHZnXZqIi3XXnttWvFvJmyrrLpquvW223Jy4v3ujjvSbp//fFp11VXzMx/92MfSgQcd1CAIhPz9vva1tOpqq6WNN9kk3XLrrenue+5J2263XVp9jTXS5Zdfnn5x2WVp0003TausskqDQCyz7LJps802y5+77767qfgIzimnnJLJzEdWWSWNHz8++Y/cHHfccfnZxx5/PH1izTVzetKiNTrhxBPTxz7+8Wwm595Pf/azpnT9QFAcVKl84z/ykWy6Jw6CV8jZ1NdfT0stvXROm9nfDTfe2JSOOk+cODF9ev3108rjx+fPWmuvnU6ZODG9PHly07Pxo3cQCLLTO20ZNQkEAoFAIBAIBAKBDiHw6oPPpvv2+EmD7Ny58Unp6TNuyqm/+tCf06X7XZg+10arU8iO/wccfUOaNHVGemnazLT77S9mjQ6ys/lvnk9/mdp+n05r8e3BWWSRRbIAv9XWW2dthGdoSA455JCs1aHJ2PNLX0ozZszIGpKTTzklLfy3OAt9+MMNMzfPfXW//XIWNCm0NK4hCPvsu28mG35zdoDsfOlLX8r3XWv90PTwfCYwQ7vq6qszCWl9rvxG1ASe2BAN18eNG5fWWWedhJiU5/ynqfr1r3+dn/eHBufwI44YsE68ryF49z/wQPrwwgvntBCie++9N6fhnrJWtT7yKHnK/8ijjsppNDKNLz2DQJCdnmnKqEggEAgEAoFAIBAIdAyBGTPTn39+R7pzo++nOzf+fnr0yF+mac+/mqY9/0p6+JuXpNs3OSkdt9HJA2p29l7/pPToH/6UXpk2Mx1z/+S0xN8OGuWR7RdPT8mOCoZS1gt//vOGtoIGhmZE4Ib646uvngV2Av7vfve7TIBOOOGErAliIrbhRhulY445Jh188MENEmDvDeF/0qRJ+T6BnwncIosumhZddNG01lprJR7SEIXvHnlk2nqbbfK9Qgy22mqrhLhwLCAdRMe+oWWXWy6XZbHFF0+bfeYzafc99ki0SSXe8SeckMt93nnnpSWXWqpxHdFCQjbdbLNcjvI8rVRJ/5BDD82ESJ04bKAJ+p///d8G+VljjTUyyfvFL37RSGOTTTdNTzzxRM7z6aefTjvvvHNOA0lbb731snngLrvs0iBaylQ1EcwRe/gPE74rr7yy6fP73/++a2qsLNXyzU3Zgux0TbNGQQKBQCAQCAQCgUCgmxCYPnlqeujAi9IDe/8sTXni+TT91dfTI4ddlu7Y8MSs8bn5Myen/dc/aRbCs/uax6VbrrwvsVO7/rqH06d/8mDW6jhnZ7+7XkovT5s55GrecMMNaYUVV8zkYL1PfjLdf//9OS6NT9lHU7Q6199wQzYbQxg8e9ddd2Vtj/0ttDWuIxdIxIMPPpg9qxVywZzt7LPPToRKhAqJsd9HGlxfe05+PLPZ71LcRTOXY/bmPm0St9Li26vD5Kykf+ONN+Z8jzv++IamiRnbhAkTcprqteVWWzWeR0hory699NIGgZHeH//4x1x/mh/uuKW/5n//d957w1SuaImQsRdefDHneeaZZza0Y+qpTojN888/n9bfYINGnv1AdtTxtttuS9ddd13TfiUmfswS5wYDBErac5NGKV8rudGHh5puazmC7Ax5uIkHA4FAIBAIBAKBQKDfEJj2l8mZ6Nin89d9PH8lOsU72zWbn5x2Hn9kg/DsMO6IdPFpv0nTp89Ij93/bPrc+CPTtntdnJa+6Om0/C8npSdf+z8HA0PB8r777kv24xDqP/GJT6Q777wzC33FFAzBoMFADBzSyTyLwG/vDFKDeGy3/fYNc7eDvvGNnC1zspIuU7cJJ5/cVpj8zU03NciAPTLVwGzOPqBiEvalvfZqSqOQNOV5+eWXsznafvvt10hvhx13bOxBymZ5hx7auLf22mtnUrXtttvma0jaBRdemOvE4xwNU8n3iO98Jxdrr732ytdcZ/amfIR4GrFCuk497bScRqlH1QHEUIXpEncs/n/sscfmmpAMVO9WkjHQc7O7rp8gYv7XDa3lCLJTF8mIFwgEAoFAIBAIBAJ9gQCi85fLft/WQ9vtG56YTt/slLT9soelbZY6NE086NI0dcq09PgDz6Yv/M2BwTbLHpY2OuG2dOGTU+YYrz9PmpTW+MQnsrBusz+SQgNDeCfU773PPnmD/lNPPdXYg0MDs8WWWyZuootbatqZXXfbLb300ku5DD+/6KKGeRwSwwyuXTj55JMbRIG2pBrspRm3wgr5PlM6q+8lPPzII414yo90PPvsswnBUXblQrBKkFaVeHBqQNNQ6r7EkkumzTffPHGvXeqOAO2x555pyt+0UAiQe0z1zvrRj3LSBN+CAXM9ZaiG3XffvVHOXic72gCRgMlQAmI0VFOy2ZmdzUk6Qy1jNU2OKwo5aleOIDtDae14JhAIBAKBQCAQCAT6FoHpr0xNjx17dbpjg2atTtHu3LjphPTNdU5Ix33lgvTyC6+mZx59Ln175x83tD2cFZxy5K8G9b7WDmCexj796U9ngZzZ1oUXXpg+9alP5d/LjxvX2Mj/wAMPpI9V9sggQvahMGdDCH784x/nfTryoPHhxKCYfCEWTLrahSoZ+MGppzY9cvPNNzeIgj031cCcDfHwsTcGkaCRcSipa7RJ119/fSOK/KsOBHiKu/rqqxsmfOKo0zLLLJNNz/73y19O559/fsO73AMPPpjr6rkVV1wxXXPttTltabjmw/NaNcChkCn3e53sIDmt5mtVPKrfkYnqs7BhotZqXlaN06pRca9OOv+/vXP7raKK4vD/wxNPxoA8+irQasMDAaVG0EATHww1gsQU8FprsIQWWy5VWluaak2oGKpWRSGGW8tFqgasoKSIp7WWi0C7zLd1jftMTktvmNOe306amTN7z5o13/Rh/7L2WtuFDMdcjevxcrn0e6X9kNjJRVHXREAEREAEREAERMAJjI7a0LE+O1fakFRnc6ETjkU77MTmDhvsH7LrQzet/qWOrI1Gny+us77efrc26SPJ9UzGSf5fu25dOPKbSE3mX5FCQYEFCxeGcUQy3tu3z06ePBkEBvk1TOy9UYmtoqIiEQEsP4v7fRxHL4LA84gqxS2O+hBh8kbxg1hEsHEoS8q6u7uT3CEKIlA4wBu5SVzjOfxRVpuCA174gKhWc0tLiEBRnIEIVewzOUG+LI8cInKSaK2trYlNcoLiBh8XfJTwLkSx48KCCI6LG6Ir8PRoiTPjN9fpz9XSImOqdrDNs4jY4FcsenLZdCHG82lpPyR2cn0tXRMBERABERABERCBFIHLtV/mFDu9Zc1GqWpCNx17jtqK+S8nUZ1VD7xuB9/91kZH/hMbKbP3/Lll69YwYWd5GkuxEAMs66KymTcS933/GsROW1tbEAMIAv6YECI4aL9nMqHimguLmtpaN5N15D4XA4w9fvx4YpOB7hd9RI8YTySKHBr3k76mpqbQ19nZmQgP8nnwhz9yjny/IMYvXrIkjKcIgQs4+ru6upLnp9/p44MHEyFFBIcldYxhryBs8sd1rtHIEaJim/eR7+R9WRDm0A9EgAua9GvFQmascbmERmwnLTKmaidtE8HjESVsxkvr4nP6aGk/JHZiojoXAREQAREQAREQgTEI3Mlct/Nrm7IEz9kn9trA1z/a6J0Ry3zea2+W1NuK+a8kYue1p9+3gd+mt2FlQ0NDMin3yXlRcXFSEQ13M5lMKPfMUi/GUMAA0UF+DxGY0tJSYz8aJvmIC5a3uS2WeuVqTP69EhtjH1m82KqqqqyxsTE8m3LSbgPxxYadL27aFPJ4fG8g/Dl06FAwHy9tQ7xUV1fbxo0bk7wfxhIR8opzCBaW2PkzyNeh4lrL/v1WvX17yEvCHxpCyquzEQFbV1YWijT09/cHYYgN7FdWVlpHR4eVlZWFXB6usbTO9+TJxWGuXEPQIHY4plu+ih38jP0eS0DF7yOxE9PQuQiIgAiIgAiIgAhMgsCfPZftzPL6IHhOL3snFC5A6AweuWBnH99jXyyrs/KH3w5i58kH37DvjvVNwnruoWzY6RN+P37Y3p41GGHC0q94bxsf68clS5eGiSP5PV6Kmr64sECWUbOw2SiCwG1wxA5LyRAICIu4j0IF69evD3vZcH3evHn21eHDwSx778Rj43OiUStXrrQjR48mESjeqb29PWtfnvgezokC0cgHYl+huJ+oEBGtzVu2ZEWa4jFUuGMDVSJShdCIkHiUJH7fWOzE4mKsMfF1P0+LjKnacXt+JKKESMP+WDZ9LMe0H4rsxHR0LgIiIAIiIAIiIALjEGA52q8NR6z70Vq7+sGpENG58cNV+/7ZFusu2mGnimqspaTO1iyotI/qvrGRaSxfczcuXrxo7A9DNISIzVOrV4cIjff7kQk7E9ny8vJk+RcTe/azoYRzc3NzyLegfDV5LQ8tWhSiI768ze3E9593tAAAAtZJREFUR6qXbdu2LUSCEA/48cKGDUbEBCFBoQMXTkRWampqQiEEokjk2RA1IVeHtmv37rCULF4aR+SIXBpya5ikpn1hosv97CXk+TuIL5bBsbkpYoiGL1SUW71mTWCEr+zLQ6OiHREh/IEH93POMjxEW6EIHVi4cIgT/Lkeix1+838UL3mDL/fE+TOMixvfL76HvsnawQ/KrceNZ8Z2c9kkRwsfaWk/JHZimjoXAREQAREQAREQgXsQuHVpwK4dOG1UabszeMMuVBzIWtp2omSntT7XZiN3p56ncw8XJtTN5O//yENhA1GW0U20DQ8PG6WymZT6BHWi905XmFDiGn8LvSEY4nwXzvkecYuLF9A/ntDhPhdEjMW+t8nYcTEW+xYLHbeZ9j/2Le2HxI5T01EEREAEREAEREAEJkIADUPS//Atu1TdlSV0qM52btVeGzox/eVrE3FFY0RABMYnILEzPh/1ioAIiIAIiIAIiEBOAplPv7Oe4uy9d3oeq7Vf6g/byI3c5XlzGtJFERCB+0ZAYue+oZVhERABERABERCBuUzg9rVhO7N8V1Zk5/wzjXbryuBcfm29mwjMKgISO7Pqc8lZERABERABERCBfCIw0NVrPSU7g+AhqpP57Hw+uSdfRKDgCUjsFPy/gACIgAiIgAiIgAhMlcDIzdvWV9Vp3cU19vNbnTZ695+NO6dqT/eJgAjMLAGJnZnlKWsiIAIiIAIiIAKFRGDUbPjcFfvp1U/sryt/FNKb611FYFYQkNiZFZ9JToqACIiACIiACOQtgVEz9t9REwERyD8CEjv5903kkQiIgAiIgAiIgAiIgAiIwAwQkNiZAYgyIQIiIAIiIAIiIAIiIAIikH8EJHby75vIIxEQAREQAREQAREQAREQgRkgILEzAxBlQgREQAREQAREQAREQAREIP8ISOzk3zeRRyIgAiIgAiIgAiIgAiIgAjNA4G8ZtdSWJxTOewAAAABJRU5ErkJggg==;" vertex="1" parent="1">
          <mxGeometry x="-2190" y="2480" width="1230" height="838.84" as="geometry" />
        </mxCell>
        <mxCell id="85fp8OsPQn2n-JRIOmVz-67" value="&lt;font style=&quot;font-size: 18px;&quot;&gt;&lt;b&gt;Complete Authentication Schema for DB&lt;/b&gt;&lt;/font&gt;" style="text;html=1;align=center;verticalAlign=middle;resizable=0;points=[];autosize=1;strokeColor=none;fillColor=none;" vertex="1" parent="1">
          <mxGeometry x="-1995" y="2415" width="370" height="40" as="geometry" />
        </mxCell>
        <mxCell id="85fp8OsPQn2n-JRIOmVz-68" value="&lt;b&gt;NOTES&lt;/b&gt;" style="text;html=1;align=center;verticalAlign=middle;resizable=0;points=[];autosize=1;strokeColor=none;fillColor=none;" vertex="1" parent="1">
          <mxGeometry x="-2230" y="3380" width="60" height="30" as="geometry" />
        </mxCell>
        <mxCell id="85fp8OsPQn2n-JRIOmVz-69" value="&lt;ul&gt;&lt;li&gt;advisable to keep user authentication subschema to be loosely coupled with application data model&amp;nbsp;&lt;/li&gt;&lt;li&gt;so that it can be copied to different application without making major changes to it.&lt;/li&gt;&lt;li&gt;this means rest of the table should not have foreign keys pointing to authentication schema tables besides user id&lt;/li&gt;&lt;li&gt;For instance, these include an Orders table that relates each order to a user. Do not store data such as users’ email addresses, home addresses, or any other user data in tables other than the ones included in the authentication schema.&lt;br&gt;&lt;/li&gt;&lt;li&gt;The above points can be achieved by normalisation.&lt;/li&gt;&lt;/ul&gt;" style="text;html=1;align=left;verticalAlign=middle;resizable=0;points=[];autosize=1;strokeColor=none;fillColor=none;" vertex="1" parent="1">
          <mxGeometry x="-2265" y="3395" width="1320" height="110" as="geometry" />
        </mxCell>
      </root>
    </mxGraphModel>
  </diagram>
</mxfile>
